{
.appVersion = "1271";
DisplayStrings = (
"abcdefghijklmnopqrstuvwxyz\012nnnnnnononooooooooonnnnn \012nnanoaoo\012nnbnnnoboo\012nncnocoo\012nndnodoo\012nnenoeoo\012nndnnfnofoo afaro feo fosforo falso\012nngnnogoo\012nnhnnohoo\012nn/idotless innoiooa\012nn/idotless nno/idotless ooa\012nnnjnnojoo\012nnknnokoo ka ke kc\012nnlnnoloo an Tomate Tarro\012nnmnnomoo\012nnpnnopoo\012nnqnnoqoo quien\012nnrnnoroo re rama \012nnsnnosoo fosforo\012nntnnotoo bn toronja\012nnunnouoo aun nun\012nnvnnnovoo\012nnwnnowoo\012nnxnnoxoo \012nnynoyoo tocayo hayaca\012nnnznnozoo zoologico ozono\012",
"ABCDEFGHHIJKLMNOPQRSTUVWXYZ\012HH1H2H3HH4HH5HH6HH7HH8HH9HH0HH2180 3215 2438 14718 2761 2568 23 2141 7428\012HHHHHHHHOHHOHOOOO\012OOOOOOO\012HHHAHOAOO H-H-A-H Atado\012HHBHOBOO feo ACME\012HHCHOCOO C-C Comodo CATARRO\012HHDHODOO HH-HH Dorado\012HHEHOEOO H-E-H MUR\012HHFHOFOO FOSFORO HF-H Fa Fe Fu\012HHGHOGOO\012HHIHOIOO HOLOGRAMA Lamana\012HHJHOJOO Jamon Jo Jumin\012HHKHOKOO HK-H Ka Kokinos Ku KQ\012HHLHOLOO Laura Lu Loro\012HHMHOMOO ATAN ATMÓSFERA ATOMO AMTO TOTO\012HHNHONOO Fa Farmaco\012HHPHOPOO HP-H-H Palo Pel Po\012HHQHOQOO H. H, P. F. V. T. W. Y. A?\012P, P; F, F; V: V, V; W, T, O, O. Y,\012HHRHOROO ARQUOEO HR-H\012HHSHHOSOO ASUSELO H-S-H\012HHTHOTOO TOTO ALTO AL URO AJUAR Ta Tomate\012HHUHOUOO ASADERO AFANADOR\012HHAHHOOAOO\012HHHVHOVOO H-V/emdash H ALWAYS ATADURA Va Voltaje Volumen Ve Vulcano KOLMA Mo\012HHWHOWOO H/endash W/emdash H Wol Walk We Wã OVOIDE AVARO RaRoma AWAY AMAYA HA50\012HAYACA\012AWARNESS OWO OWNER ALVARO AMAYA\012HHYHOYOO H-H-Y-HPVCZHOZOO H-Z-H\012HHZHHOZOO Za Zu  HHSHOSOO\012VlVlANA MONSALVE HAMACA HAN HENCHO DAÑO BOAO\012",
"HH!H\"H#H$H%H&H'H(H)H*H+H,H-H.HH//H\012H:H;H<H=H>H?H@H",

glyphs = (
{
glyphname = .notdef;
lastChange = "2020-01-15 21:27:04 +0000";
layers = (
{
background = {
paths = (
{
closed = 1;
nodes = (
"451 0 LINE SMOOTH",
"466 0 OFFCURVE",
"481 12 OFFCURVE",
"481 31 CURVE SMOOTH",
"481 650 LINE SMOOTH",
"481 667 OFFCURVE",
"467 681 OFFCURVE",
"451 681 CURVE SMOOTH",
"57 681 LINE SMOOTH",
"39 681 OFFCURVE",
"26 667 OFFCURVE",
"26 650 CURVE SMOOTH",
"26 31 LINE SMOOTH",
"26 13 OFFCURVE",
"39 0 OFFCURVE",
"57 0 CURVE SMOOTH"
);
},
{
closed = 1;
nodes = (
"252 320 LINE",
"436 21 LINE",
"56 21 LINE"
);
},
{
closed = 1;
nodes = (
"47 655 LINE",
"240 342 LINE",
"47 46 LINE"
);
},
{
closed = 1;
nodes = (
"264 339 LINE",
"461 641 LINE",
"461 21 LINE"
);
},
{
closed = 1;
nodes = (
"68 660 LINE",
"448 660 LINE",
"252 361 LINE"
);
}
);
};
layerId = master01;
paths = (
{
closed = 1;
nodes = (
"451 0 LINE SMOOTH",
"466 0 OFFCURVE",
"481 12 OFFCURVE",
"481 31 CURVE SMOOTH",
"481 650 LINE SMOOTH",
"481 667 OFFCURVE",
"467 681 OFFCURVE",
"451 681 CURVE SMOOTH",
"57 681 LINE SMOOTH",
"39 681 OFFCURVE",
"26 667 OFFCURVE",
"26 650 CURVE SMOOTH",
"26 31 LINE SMOOTH",
"26 13 OFFCURVE",
"39 0 OFFCURVE",
"57 0 CURVE SMOOTH"
);
},
{
closed = 1;
nodes = (
"252 320 LINE",
"436 21 LINE",
"56 21 LINE"
);
},
{
closed = 1;
nodes = (
"47 655 LINE",
"240 342 LINE",
"47 46 LINE"
);
},
{
closed = 1;
nodes = (
"264 339 LINE",
"461 641 LINE",
"461 21 LINE"
);
},
{
closed = 1;
nodes = (
"68 660 LINE",
"448 660 LINE",
"252 361 LINE"
);
}
);
userData = {
com.fontlab.hintData = {
hhints = (
{
position = 0;
width = 21;
},
{
position = 660;
width = 21;
}
);
vhints = (
{
position = 20;
width = 21;
},
{
position = 455;
width = 20;
}
);
};
};
width = 508;
},
{
background = {
paths = (
{
closed = 1;
nodes = (
"440 0 LINE SMOOTH",
"460 0 OFFCURVE",
"480 16 OFFCURVE",
"480 40 CURVE SMOOTH",
"480 641 LINE SMOOTH",
"480 663 OFFCURVE",
"462 681 OFFCURVE",
"440 681 CURVE SMOOTH",
"58 681 LINE SMOOTH",
"36 681 OFFCURVE",
"18 663 OFFCURVE",
"18 641 CURVE SMOOTH",
"18 40 LINE SMOOTH",
"18 18 OFFCURVE",
"36 0 OFFCURVE",
"58 0 CURVE SMOOTH"
);
},
{
closed = 1;
nodes = (
"247 303 LINE",
"409 40 LINE",
"75 40 LINE"
);
},
{
closed = 1;
nodes = (
"58 610 LINE",
"224 341 LINE",
"58 87 LINE"
);
},
{
closed = 1;
nodes = (
"271 340 LINE",
"440 599 LINE",
"440 66 LINE"
);
},
{
closed = 1;
nodes = (
"86 641 LINE",
"420 641 LINE",
"248 378 LINE"
);
}
);
};
layerId = "ACFB53BD-70C1-480F-BE56-298851F5C10E";
paths = (
{
closed = 1;
nodes = (
"440 0 LINE SMOOTH",
"460 0 OFFCURVE",
"480 16 OFFCURVE",
"480 40 CURVE SMOOTH",
"480 641 LINE SMOOTH",
"480 663 OFFCURVE",
"462 681 OFFCURVE",
"440 681 CURVE SMOOTH",
"58 681 LINE SMOOTH",
"36 681 OFFCURVE",
"18 663 OFFCURVE",
"18 641 CURVE SMOOTH",
"18 40 LINE SMOOTH",
"18 18 OFFCURVE",
"36 0 OFFCURVE",
"58 0 CURVE SMOOTH"
);
},
{
closed = 1;
nodes = (
"247 303 LINE",
"409 40 LINE",
"75 40 LINE"
);
},
{
closed = 1;
nodes = (
"58 610 LINE",
"224 341 LINE",
"58 87 LINE"
);
},
{
closed = 1;
nodes = (
"271 340 LINE",
"440 599 LINE",
"440 66 LINE"
);
},
{
closed = 1;
nodes = (
"86 641 LINE",
"420 641 LINE",
"248 378 LINE"
);
}
);
userData = {
com.fontlab.hintData = {
hhints = (
{
position = 0;
width = 40;
},
{
position = 641;
width = 40;
}
);
vhints = (
{
position = 18;
width = 40;
},
{
position = 440;
width = 40;
}
);
};
};
width = 500;
},
{
background = {
paths = (
{
closed = 1;
nodes = (
"431 0 LINE SMOOTH",
"461 0 OFFCURVE",
"492 24 OFFCURVE",
"492 61 CURVE SMOOTH",
"492 620 LINE SMOOTH",
"492 654 OFFCURVE",
"465 681 OFFCURVE",
"431 681 CURVE SMOOTH",
"76 681 LINE SMOOTH",
"42 681 OFFCURVE",
"15 654 OFFCURVE",
"15 620 CURVE SMOOTH",
"15 61 LINE SMOOTH",
"15 27 OFFCURVE",
"42 0 OFFCURVE",
"76 0 CURVE SMOOTH"
);
},
{
closed = 1;
nodes = (
"251 263 LINE",
"361 84 LINE",
"135 84 LINE"
);
},
{
closed = 1;
nodes = (
"99 510 LINE",
"202 342 LINE",
"99 183 LINE"
);
},
{
closed = 1;
nodes = (
"301 339 LINE",
"408 502 LINE",
"408 167 LINE"
);
},
{
closed = 1;
nodes = (
"143 597 LINE",
"369 597 LINE",
"253 418 LINE"
);
}
);
};
layerId = "140D7E2C-8008-49AA-8FE3-CF6E53AFBA7D";
paths = (
{
closed = 1;
nodes = (
"431 0 LINE SMOOTH",
"461 0 OFFCURVE",
"492 24 OFFCURVE",
"492 61 CURVE SMOOTH",
"492 620 LINE SMOOTH",
"492 654 OFFCURVE",
"465 681 OFFCURVE",
"431 681 CURVE SMOOTH",
"76 681 LINE SMOOTH",
"42 681 OFFCURVE",
"15 654 OFFCURVE",
"15 620 CURVE SMOOTH",
"15 61 LINE SMOOTH",
"15 27 OFFCURVE",
"42 0 OFFCURVE",
"76 0 CURVE SMOOTH"
);
},
{
closed = 1;
nodes = (
"251 263 LINE",
"361 84 LINE",
"135 84 LINE"
);
},
{
closed = 1;
nodes = (
"99 510 LINE",
"202 342 LINE",
"99 183 LINE"
);
},
{
closed = 1;
nodes = (
"301 339 LINE",
"408 502 LINE",
"408 167 LINE"
);
},
{
closed = 1;
nodes = (
"143 597 LINE",
"369 597 LINE",
"253 418 LINE"
);
}
);
userData = {
com.fontlab.hintData = {
hhints = (
{
position = 0;
width = 84;
},
{
position = 597;
width = 84;
}
);
vhints = (
{
position = 15;
width = 84;
},
{
position = 408;
width = 84;
}
);
};
};
width = 526;
}
);
},
{
color = 4;
glyphname = exclam;
lastChange = "2020-01-15 21:15:02 +0000";
layers = (
{
background = {
paths = (
{
closed = 1;
nodes = (
"137 158 OFFCURVE",
"148 168 OFFCURVE",
"150 178 CURVE SMOOTH",
"257 680 LINE SMOOTH",
"260 692 OFFCURVE",
"253 701 OFFCURVE",
"242 701 CURVE SMOOTH",
"232 701 OFFCURVE",
"220 692 OFFCURVE",
"217 680 CURVE SMOOTH",
"110 178 LINE SMOOTH",
"108 168 OFFCURVE",
"116 158 OFFCURVE",
"126 158 CURVE SMOOTH"
);
},
{
closed = 1;
nodes = (
"99 0 OFFCURVE",
"118 17 OFFCURVE",
"123 39 CURVE SMOOTH",
"123.505 41.355 OFFCURVE",
"123.755 43.682 OFFCURVE",
"123.755 45.924 CURVE SMOOTH",
"123.755 57.006 OFFCURVE",
"117.645 66 OFFCURVE",
"106 66 CURVE SMOOTH",
"89 66 OFFCURVE",
"71 48 OFFCURVE",
"66 28 CURVE SMOOTH",
"65.539 25.697 OFFCURVE",
"65.314 23.441 OFFCURVE",
"65.314 21.272 CURVE SMOOTH",
"65.314 9.315 OFFCURVE",
"72.15 0 OFFCURVE",
"84 0 CURVE SMOOTH"
);
}
);
};
layerId = master01;
paths = (
{
closed = 1;
nodes = (
"137 158 OFFCURVE",
"148 168 OFFCURVE",
"150 178 CURVE SMOOTH",
"257 680 LINE SMOOTH",
"260 692 OFFCURVE",
"253 701 OFFCURVE",
"242 701 CURVE SMOOTH",
"232 701 OFFCURVE",
"220 692 OFFCURVE",
"217 680 CURVE SMOOTH",
"110 178 LINE SMOOTH",
"108 168 OFFCURVE",
"116 158 OFFCURVE",
"126 158 CURVE SMOOTH"
);
},
{
closed = 1;
nodes = (
"99 0 OFFCURVE",
"118 17 OFFCURVE",
"123 39 CURVE SMOOTH",
"123.505 41.355 OFFCURVE",
"123.755 43.682 OFFCURVE",
"123.755 45.924 CURVE SMOOTH",
"123.755 57.006 OFFCURVE",
"117.645 66 OFFCURVE",
"106 66 CURVE SMOOTH",
"89 66 OFFCURVE",
"71 48 OFFCURVE",
"66 28 CURVE SMOOTH",
"65.539 25.697 OFFCURVE",
"65.314 23.441 OFFCURVE",
"65.314 21.272 CURVE SMOOTH",
"65.314 9.315 OFFCURVE",
"72.15 0 OFFCURVE",
"84 0 CURVE SMOOTH"
);
}
);
userData = {
com.fontlab.hintData = {
hhints = (
{
position = 0;
width = 66;
}
);
vhints = (
{
position = 65;
width = 58;
}
);
};
};
width = 186;
},
{
background = {
paths = (
{
closed = 1;
nodes = (
"89 152 OFFCURVE",
"105 165 OFFCURVE",
"108 181 CURVE SMOOTH",
"210 663 LINE SMOOTH",
"210.597 665.388 OFFCURVE",
"210.882 667.73 OFFCURVE",
"210.882 669.989 CURVE SMOOTH",
"210.882 682.866 OFFCURVE",
"201.612 693 OFFCURVE",
"188 693 CURVE SMOOTH",
"172 693 OFFCURVE",
"156 679 OFFCURVE",
"152 663 CURVE SMOOTH",
"50 181 LINE SMOOTH",
"49.642 179.093 OFFCURVE",
"49.469 177.228 OFFCURVE",
"49.469 175.423 CURVE SMOOTH",
"49.469 162.085 OFFCURVE",
"58.907 152 OFFCURVE",
"73 152 CURVE SMOOTH"
);
},
{
closed = 1;
nodes = (
"52 0 OFFCURVE",
"76 20 OFFCURVE",
"81 47 CURVE",
"81.863 50.28 OFFCURVE",
"82.279 53.5 OFFCURVE",
"82.279 56.584 CURVE SMOOTH",
"82.279 71.363 OFFCURVE",
"72.72 83 OFFCURVE",
"57 83 CURVE SMOOTH",
"36 83 OFFCURVE",
"12 61 OFFCURVE",
"7 37 CURVE SMOOTH",
"6.413 33.919 OFFCURVE",
"6.128 30.946 OFFCURVE",
"6.128 28.115 CURVE SMOOTH",
"6.128 11.65 OFFCURVE",
"15.787 0 OFFCURVE",
"32 0 CURVE SMOOTH"
);
}
);
};
layerId = "ACFB53BD-70C1-480F-BE56-298851F5C10E";
paths = (
{
closed = 1;
nodes = (
"89 152 OFFCURVE",
"105 165 OFFCURVE",
"108 181 CURVE SMOOTH",
"210 663 LINE SMOOTH",
"210.597 665.388 OFFCURVE",
"210.882 667.73 OFFCURVE",
"210.882 669.989 CURVE SMOOTH",
"210.882 682.866 OFFCURVE",
"201.612 693 OFFCURVE",
"188 693 CURVE SMOOTH",
"172 693 OFFCURVE",
"156 679 OFFCURVE",
"152 663 CURVE SMOOTH",
"50 181 LINE SMOOTH",
"49.642 179.093 OFFCURVE",
"49.469 177.228 OFFCURVE",
"49.469 175.423 CURVE SMOOTH",
"49.469 162.085 OFFCURVE",
"58.907 152 OFFCURVE",
"73 152 CURVE SMOOTH"
);
},
{
closed = 1;
nodes = (
"52 0 OFFCURVE",
"76 20 OFFCURVE",
"81 47 CURVE",
"81.863 50.28 OFFCURVE",
"82.279 53.5 OFFCURVE",
"82.279 56.584 CURVE SMOOTH",
"82.279 71.363 OFFCURVE",
"72.72 83 OFFCURVE",
"57 83 CURVE SMOOTH",
"36 83 OFFCURVE",
"12 61 OFFCURVE",
"7 37 CURVE SMOOTH",
"6.413 33.919 OFFCURVE",
"6.128 30.946 OFFCURVE",
"6.128 28.115 CURVE SMOOTH",
"6.128 11.65 OFFCURVE",
"15.787 0 OFFCURVE",
"32 0 CURVE SMOOTH"
);
}
);
userData = {
com.fontlab.hintData = {
hhints = (
{
position = 0;
width = 83;
}
);
vhints = (
{
position = 6;
width = 76;
}
);
};
};
width = 196;
},
{
background = {
paths = (
{
closed = 1;
nodes = (
"112 168 OFFCURVE",
"138 190 OFFCURVE",
"144 217 CURVE SMOOTH",
"230 625 LINE SMOOTH",
"230.845 628.663 OFFCURVE",
"231.254 632.286 OFFCURVE",
"231.254 635.808 CURVE SMOOTH",
"231.254 657.286 OFFCURVE",
"216.056 675 OFFCURVE",
"192 675 CURVE SMOOTH",
"165 675 OFFCURVE",
"138 651 OFFCURVE",
"132 625 CURVE SMOOTH",
"46 217 LINE SMOOTH",
"45.186 213.338 OFFCURVE",
"44.795 209.768 OFFCURVE",
"44.795 206.332 CURVE SMOOTH",
"44.795 184.437 OFFCURVE",
"60.662 168 OFFCURVE",
"84 168 CURVE SMOOTH"
);
},
{
closed = 1;
nodes = (
"70 0 OFFCURVE",
"105 28 OFFCURVE",
"113 65 CURVE SMOOTH",
"113.872 69.216 OFFCURVE",
"114.301 73.389 OFFCURVE",
"114.301 77.444 CURVE SMOOTH",
"114.301 101.28 OFFCURVE",
"99.493 121 OFFCURVE",
"73 121 CURVE SMOOTH",
"43 121 OFFCURVE",
"8 90 OFFCURVE",
"0 56 CURVE",
"-0.837 51.677 OFFCURVE",
"-1.246 47.47 OFFCURVE",
"-1.246 43.432 CURVE SMOOTH",
"-1.246 18.513 OFFCURVE",
"14.323 0 OFFCURVE",
"41 0 CURVE SMOOTH"
);
}
);
};
layerId = "140D7E2C-8008-49AA-8FE3-CF6E53AFBA7D";
paths = (
{
closed = 1;
nodes = (
"112 168 OFFCURVE",
"138 190 OFFCURVE",
"144 217 CURVE SMOOTH",
"230 625 LINE SMOOTH",
"230.845 628.663 OFFCURVE",
"231.254 632.286 OFFCURVE",
"231.254 635.808 CURVE SMOOTH",
"231.254 657.286 OFFCURVE",
"216.056 675 OFFCURVE",
"192 675 CURVE SMOOTH",
"165 675 OFFCURVE",
"138 651 OFFCURVE",
"132 625 CURVE SMOOTH",
"46 217 LINE SMOOTH",
"45.186 213.338 OFFCURVE",
"44.795 209.768 OFFCURVE",
"44.795 206.332 CURVE SMOOTH",
"44.795 184.437 OFFCURVE",
"60.662 168 OFFCURVE",
"84 168 CURVE SMOOTH"
);
},
{
closed = 1;
nodes = (
"70 0 OFFCURVE",
"105 28 OFFCURVE",
"113 65 CURVE SMOOTH",
"113.872 69.216 OFFCURVE",
"114.301 73.389 OFFCURVE",
"114.301 77.444 CURVE SMOOTH",
"114.301 101.28 OFFCURVE",
"99.493 121 OFFCURVE",
"73 121 CURVE SMOOTH",
"43 121 OFFCURVE",
"8 90 OFFCURVE",
"0 56 CURVE",
"-0.837 51.677 OFFCURVE",
"-1.246 47.47 OFFCURVE",
"-1.246 43.432 CURVE SMOOTH",
"-1.246 18.513 OFFCURVE",
"14.323 0 OFFCURVE",
"41 0 CURVE SMOOTH"
);
}
);
userData = {
com.fontlab.hintData = {
hhints = (
{
position = 0;
width = 121;
}
);
vhints = (
{
position = -1;
width = 116;
}
);
};
};
width = 222;
}
);
unicode = 0021;
},
{
color = 4;
glyphname = quotedbl;
lastChange = "2020-01-15 21:15:02 +0000";
layers = (
{
background = {
paths = (
{
closed = 1;
nodes = (
"337 521 OFFCURVE",
"348 529 OFFCURVE",
"350 540 CURVE SMOOTH",
"380 679 LINE SMOOTH",
"382 690 OFFCURVE",
"375 698 OFFCURVE",
"365 698 CURVE SMOOTH",
"354 698 OFFCURVE",
"344 690 OFFCURVE",
"342 679 CURVE SMOOTH",
"312 540 LINE SMOOTH",
"310 529 OFFCURVE",
"316 521 OFFCURVE",
"327 521 CURVE SMOOTH"
);
},
{
closed = 1;
nodes = (
"213 521 OFFCURVE",
"224 529 OFFCURVE",
"226 540 CURVE SMOOTH",
"256 679 LINE SMOOTH",
"258 690 OFFCURVE",
"251 698 OFFCURVE",
"241 698 CURVE SMOOTH",
"230 698 OFFCURVE",
"220 690 OFFCURVE",
"218 679 CURVE SMOOTH",
"188 540 LINE SMOOTH",
"186 529 OFFCURVE",
"192 521 OFFCURVE",
"203 521 CURVE SMOOTH"
);
}
);
};
layerId = master01;
paths = (
{
closed = 1;
nodes = (
"337 521 OFFCURVE",
"348 529 OFFCURVE",
"350 540 CURVE SMOOTH",
"380 679 LINE SMOOTH",
"382 690 OFFCURVE",
"375 698 OFFCURVE",
"365 698 CURVE SMOOTH",
"354 698 OFFCURVE",
"344 690 OFFCURVE",
"342 679 CURVE SMOOTH",
"312 540 LINE SMOOTH",
"310 529 OFFCURVE",
"316 521 OFFCURVE",
"327 521 CURVE SMOOTH"
);
},
{
closed = 1;
nodes = (
"213 521 OFFCURVE",
"224 529 OFFCURVE",
"226 540 CURVE SMOOTH",
"256 679 LINE SMOOTH",
"258 690 OFFCURVE",
"251 698 OFFCURVE",
"241 698 CURVE SMOOTH",
"230 698 OFFCURVE",
"220 690 OFFCURVE",
"218 679 CURVE SMOOTH",
"188 540 LINE SMOOTH",
"186 529 OFFCURVE",
"192 521 OFFCURVE",
"203 521 CURVE SMOOTH"
);
}
);
userData = {
com.fontlab.hintData = {
hhints = (
{
position = 521;
width = 177;
}
);
vhints = (
{
position = 188;
width = 192;
}
);
};
};
width = 303;
},
{
background = {
paths = (
{
closed = 1;
nodes = (
"282 500 OFFCURVE",
"297 512 OFFCURVE",
"301 528 CURVE SMOOTH",
"329 662 LINE SMOOTH",
"329.359 663.797 OFFCURVE",
"329.532 665.565 OFFCURVE",
"329.532 667.286 CURVE SMOOTH",
"329.532 679.928 OFFCURVE",
"320.203 690 OFFCURVE",
"307 690 CURVE SMOOTH",
"291 690 OFFCURVE",
"276 677 OFFCURVE",
"273 662 CURVE SMOOTH",
"245 528 LINE SMOOTH",
"244.403 525.612 OFFCURVE",
"244.118 523.314 OFFCURVE",
"244.118 521.131 CURVE SMOOTH",
"244.118 508.686 OFFCURVE",
"253.388 500 OFFCURVE",
"267 500 CURVE SMOOTH"
);
},
{
closed = 1;
nodes = (
"163 500 OFFCURVE",
"178 512 OFFCURVE",
"182 528 CURVE SMOOTH",
"210 662 LINE SMOOTH",
"210.359 663.797 OFFCURVE",
"210.532 665.565 OFFCURVE",
"210.532 667.286 CURVE SMOOTH",
"210.532 679.928 OFFCURVE",
"201.203 690 OFFCURVE",
"188 690 CURVE SMOOTH",
"172 690 OFFCURVE",
"157 677 OFFCURVE",
"154 662 CURVE SMOOTH",
"126 528 LINE SMOOTH",
"125.403 525.612 OFFCURVE",
"125.118 523.314 OFFCURVE",
"125.118 521.131 CURVE SMOOTH",
"125.118 508.686 OFFCURVE",
"134.388 500 OFFCURVE",
"148 500 CURVE SMOOTH"
);
}
);
};
layerId = "ACFB53BD-70C1-480F-BE56-298851F5C10E";
paths = (
{
closed = 1;
nodes = (
"282 500 OFFCURVE",
"297 512 OFFCURVE",
"301 528 CURVE SMOOTH",
"329 662 LINE SMOOTH",
"329.359 663.797 OFFCURVE",
"329.532 665.565 OFFCURVE",
"329.532 667.286 CURVE SMOOTH",
"329.532 679.928 OFFCURVE",
"320.203 690 OFFCURVE",
"307 690 CURVE SMOOTH",
"291 690 OFFCURVE",
"276 677 OFFCURVE",
"273 662 CURVE SMOOTH",
"245 528 LINE SMOOTH",
"244.403 525.612 OFFCURVE",
"244.118 523.314 OFFCURVE",
"244.118 521.131 CURVE SMOOTH",
"244.118 508.686 OFFCURVE",
"253.388 500 OFFCURVE",
"267 500 CURVE SMOOTH"
);
},
{
closed = 1;
nodes = (
"163 500 OFFCURVE",
"178 512 OFFCURVE",
"182 528 CURVE SMOOTH",
"210 662 LINE SMOOTH",
"210.359 663.797 OFFCURVE",
"210.532 665.565 OFFCURVE",
"210.532 667.286 CURVE SMOOTH",
"210.532 679.928 OFFCURVE",
"201.203 690 OFFCURVE",
"188 690 CURVE SMOOTH",
"172 690 OFFCURVE",
"157 677 OFFCURVE",
"154 662 CURVE SMOOTH",
"126 528 LINE SMOOTH",
"125.403 525.612 OFFCURVE",
"125.118 523.314 OFFCURVE",
"125.118 521.131 CURVE SMOOTH",
"125.118 508.686 OFFCURVE",
"134.388 500 OFFCURVE",
"148 500 CURVE SMOOTH"
);
}
);
userData = {
com.fontlab.hintData = {
hhints = (
{
position = 500;
width = 190;
}
);
vhints = (
{
position = 125;
width = 204;
}
);
};
};
width = 313;
},
{
background = {
paths = (
{
closed = 1;
nodes = (
"308 454 OFFCURVE",
"335 475 OFFCURVE",
"341 502 CURVE SMOOTH",
"367 624 LINE SMOOTH",
"367.754 627.268 OFFCURVE",
"368.113 630.473 OFFCURVE",
"368.113 633.578 CURVE SMOOTH",
"368.113 655.183 OFFCURVE",
"350.732 672 OFFCURVE",
"328 672 CURVE SMOOTH",
"301 672 OFFCURVE",
"276 650 OFFCURVE",
"270 624 CURVE SMOOTH",
"244 502 LINE SMOOTH",
"243.186 498.338 OFFCURVE",
"242.796 494.786 OFFCURVE",
"242.796 491.382 CURVE SMOOTH",
"242.796 469.69 OFFCURVE",
"258.662 454 OFFCURVE",
"282 454 CURVE SMOOTH"
);
},
{
closed = 1;
nodes = (
"160 454 OFFCURVE",
"186 475 OFFCURVE",
"192 502 CURVE SMOOTH",
"218 624 LINE SMOOTH",
"218.784 627.398 OFFCURVE",
"219.158 630.728 OFFCURVE",
"219.158 633.949 CURVE SMOOTH",
"219.158 655.375 OFFCURVE",
"202.602 672 OFFCURVE",
"180 672 CURVE SMOOTH",
"153 672 OFFCURVE",
"128 650 OFFCURVE",
"122 624 CURVE SMOOTH",
"96 502 LINE SMOOTH",
"95.186 498.338 OFFCURVE",
"94.796 494.786 OFFCURVE",
"94.796 491.382 CURVE SMOOTH",
"94.796 469.69 OFFCURVE",
"110.662 454 OFFCURVE",
"134 454 CURVE SMOOTH"
);
}
);
};
layerId = "140D7E2C-8008-49AA-8FE3-CF6E53AFBA7D";
paths = (
{
closed = 1;
nodes = (
"308 454 OFFCURVE",
"335 475 OFFCURVE",
"341 502 CURVE SMOOTH",
"367 624 LINE SMOOTH",
"367.754 627.268 OFFCURVE",
"368.113 630.473 OFFCURVE",
"368.113 633.578 CURVE SMOOTH",
"368.113 655.183 OFFCURVE",
"350.732 672 OFFCURVE",
"328 672 CURVE SMOOTH",
"301 672 OFFCURVE",
"276 650 OFFCURVE",
"270 624 CURVE SMOOTH",
"244 502 LINE SMOOTH",
"243.186 498.338 OFFCURVE",
"242.796 494.786 OFFCURVE",
"242.796 491.382 CURVE SMOOTH",
"242.796 469.69 OFFCURVE",
"258.662 454 OFFCURVE",
"282 454 CURVE SMOOTH"
);
},
{
closed = 1;
nodes = (
"160 454 OFFCURVE",
"186 475 OFFCURVE",
"192 502 CURVE SMOOTH",
"218 624 LINE SMOOTH",
"218.784 627.398 OFFCURVE",
"219.158 630.728 OFFCURVE",
"219.158 633.949 CURVE SMOOTH",
"219.158 655.375 OFFCURVE",
"202.602 672 OFFCURVE",
"180 672 CURVE SMOOTH",
"153 672 OFFCURVE",
"128 650 OFFCURVE",
"122 624 CURVE SMOOTH",
"96 502 LINE SMOOTH",
"95.186 498.338 OFFCURVE",
"94.796 494.786 OFFCURVE",
"94.796 491.382 CURVE SMOOTH",
"94.796 469.69 OFFCURVE",
"110.662 454 OFFCURVE",
"134 454 CURVE SMOOTH"
);
}
);
userData = {
com.fontlab.hintData = {
hhints = (
{
position = 454;
width = 218;
}
);
};
};
width = 339;
}
);
unicode = 0022;
},
{
color = 4;
glyphname = numbersign;
lastChange = "2020-01-15 21:15:02 +0000";
layers = (
{
background = {
paths = (
{
closed = 1;
nodes = (
"185 0 OFFCURVE",
"193 5 OFFCURVE",
"197 14 CURVE SMOOTH",
"300 219 LINE",
"482 219 LINE",
"388 34 LINE SMOOTH",
"384 27 OFFCURVE",
"382 22 OFFCURVE",
"382 19 CURVE",
"379 8 OFFCURVE",
"385 0 OFFCURVE",
"397 0 CURVE SMOOTH",
"405 0 OFFCURVE",
"412 5 OFFCURVE",
"416 14 CURVE SMOOTH",
"520 219 LINE",
"670 219 LINE SMOOTH",
"680 219 OFFCURVE",
"691 227 OFFCURVE",
"693 238 CURVE SMOOTH",
"695 248 OFFCURVE",
"688 256 OFFCURVE",
"678 256 CURVE SMOOTH",
"538 256 LINE",
"635 447 LINE",
"766 447 LINE SMOOTH",
"776 447 OFFCURVE",
"786 455 OFFCURVE",
"789 466 CURVE SMOOTH",
"791 476 OFFCURVE",
"784 485 OFFCURVE",
"774 485 CURVE SMOOTH",
"654 485 LINE",
"745 666 LINE SMOOTH",
"748 672 OFFCURVE",
"750 677 OFFCURVE",
"751 681 CURVE SMOOTH",
"753 688 OFFCURVE",
"748 697 OFFCURVE",
"736 697 CURVE SMOOTH",
"728 697 OFFCURVE",
"720 692 OFFCURVE",
"716 684 CURVE SMOOTH",
"616 485 LINE",
"434 485 LINE",
"525 665 LINE SMOOTH",
"528 671 OFFCURVE",
"530 675 OFFCURVE",
"531 679 CURVE SMOOTH",
"533 689 OFFCURVE",
"528 697 OFFCURVE",
"517 697 CURVE SMOOTH",
"508 697 OFFCURVE",
"500 692 OFFCURVE",
"496 684 CURVE SMOOTH",
"397 485 LINE",
"230 485 LINE SMOOTH",
"219 485 OFFCURVE",
"209 476 OFFCURVE",
"207 466 CURVE SMOOTH",
"204 455 OFFCURVE",
"211 447 OFFCURVE",
"222 447 CURVE SMOOTH",
"377 447 LINE",
"281 256 LINE",
"134 256 LINE SMOOTH",
"124 256 OFFCURVE",
"113 248 OFFCURVE",
"111 238 CURVE SMOOTH",
"109 227 OFFCURVE",
"116 219 OFFCURVE",
"126 219 CURVE SMOOTH",
"262 219 LINE",
"168 33 LINE SMOOTH",
"164 26 OFFCURVE",
"162 22 OFFCURVE",
"161 17 CURVE SMOOTH",
"159 8 OFFCURVE",
"165 0 OFFCURVE",
"177 0 CURVE SMOOTH"
);
},
{
closed = 1;
nodes = (
"416 447 LINE",
"597 447 LINE",
"501 256 LINE",
"318 256 LINE"
);
}
);
};
layerId = master01;
paths = (
{
closed = 1;
nodes = (
"185 0 OFFCURVE",
"193 5 OFFCURVE",
"197 14 CURVE SMOOTH",
"300 219 LINE",
"482 219 LINE",
"388 34 LINE SMOOTH",
"384 27 OFFCURVE",
"382 22 OFFCURVE",
"382 19 CURVE",
"379 8 OFFCURVE",
"385 0 OFFCURVE",
"397 0 CURVE SMOOTH",
"405 0 OFFCURVE",
"412 5 OFFCURVE",
"416 14 CURVE SMOOTH",
"520 219 LINE",
"670 219 LINE SMOOTH",
"680 219 OFFCURVE",
"691 227 OFFCURVE",
"693 238 CURVE SMOOTH",
"695 248 OFFCURVE",
"688 256 OFFCURVE",
"678 256 CURVE SMOOTH",
"538 256 LINE",
"635 447 LINE",
"766 447 LINE SMOOTH",
"776 447 OFFCURVE",
"786 455 OFFCURVE",
"789 466 CURVE SMOOTH",
"791 476 OFFCURVE",
"784 485 OFFCURVE",
"774 485 CURVE SMOOTH",
"654 485 LINE",
"745 666 LINE SMOOTH",
"748 672 OFFCURVE",
"750 677 OFFCURVE",
"751 681 CURVE SMOOTH",
"753 688 OFFCURVE",
"748 697 OFFCURVE",
"736 697 CURVE SMOOTH",
"728 697 OFFCURVE",
"720 692 OFFCURVE",
"716 684 CURVE SMOOTH",
"616 485 LINE",
"434 485 LINE",
"525 665 LINE SMOOTH",
"528 671 OFFCURVE",
"530 675 OFFCURVE",
"531 679 CURVE SMOOTH",
"533 689 OFFCURVE",
"528 697 OFFCURVE",
"517 697 CURVE SMOOTH",
"508 697 OFFCURVE",
"500 692 OFFCURVE",
"496 684 CURVE SMOOTH",
"397 485 LINE",
"230 485 LINE SMOOTH",
"219 485 OFFCURVE",
"209 476 OFFCURVE",
"207 466 CURVE SMOOTH",
"204 455 OFFCURVE",
"211 447 OFFCURVE",
"222 447 CURVE SMOOTH",
"377 447 LINE",
"281 256 LINE",
"134 256 LINE SMOOTH",
"124 256 OFFCURVE",
"113 248 OFFCURVE",
"111 238 CURVE SMOOTH",
"109 227 OFFCURVE",
"116 219 OFFCURVE",
"126 219 CURVE SMOOTH",
"262 219 LINE",
"168 33 LINE SMOOTH",
"164 26 OFFCURVE",
"162 22 OFFCURVE",
"161 17 CURVE SMOOTH",
"159 8 OFFCURVE",
"165 0 OFFCURVE",
"177 0 CURVE SMOOTH"
);
},
{
closed = 1;
nodes = (
"416 447 LINE",
"597 447 LINE",
"501 256 LINE",
"318 256 LINE"
);
}
);
userData = {
com.fontlab.hintData = {
hhints = (
{
position = 0;
width = 21;
},
{
position = 219;
width = 37;
},
{
position = 447;
width = 38;
}
);
vhints = (
{
position = 161;
width = 36;
},
{
position = 382;
width = 34;
},
{
position = 716;
width = 35;
}
);
};
};
width = 736;
},
{
background = {
paths = (
{
closed = 1;
nodes = (
"138 0 OFFCURVE",
"151 8 OFFCURVE",
"158 20 CURVE",
"253 210 LINE",
"406 210 LINE",
"323 46 LINE SMOOTH",
"318 37 OFFCURVE",
"316 31 OFFCURVE",
"315 28 CURVE SMOOTH",
"314.617 26.084 OFFCURVE",
"314.429 24.201 OFFCURVE",
"314.429 22.373 CURVE SMOOTH",
"314.429 9.891 OFFCURVE",
"323.171 0 OFFCURVE",
"338 0 CURVE SMOOTH",
"349 0 OFFCURVE",
"362 8 OFFCURVE",
"369 20 CURVE",
"464 210 LINE",
"600 210 LINE SMOOTH",
"615 210 OFFCURVE",
"631 222 OFFCURVE",
"634 238 CURVE SMOOTH",
"634.359 239.797 OFFCURVE",
"634.532 241.565 OFFCURVE",
"634.532 243.286 CURVE SMOOTH",
"634.532 255.928 OFFCURVE",
"625.203 266 OFFCURVE",
"612 266 CURVE SMOOTH",
"492 266 LINE",
"575 429 LINE",
"692 429 LINE SMOOTH",
"707 429 OFFCURVE",
"722 441 OFFCURVE",
"726 457 CURVE SMOOTH",
"726.359 458.797 OFFCURVE",
"726.532 460.565 OFFCURVE",
"726.532 462.286 CURVE SMOOTH",
"726.532 474.928 OFFCURVE",
"717.203 485 OFFCURVE",
"704 485 CURVE SMOOTH",
"603 485 LINE",
"684 646 LINE SMOOTH",
"687 653 OFFCURVE",
"689 658 OFFCURVE",
"690 661 CURVE SMOOTH",
"690.414 662.933 OFFCURVE",
"690.619 664.867 OFFCURVE",
"690.619 666.763 CURVE SMOOTH",
"690.619 678.6 OFFCURVE",
"682.652 689 OFFCURVE",
"668 689 CURVE SMOOTH",
"656 689 OFFCURVE",
"642 681 OFFCURVE",
"637 669 CURVE",
"545 485 LINE",
"392 485 LINE",
"473 645 LINE SMOOTH",
"476 651 OFFCURVE",
"478 656 OFFCURVE",
"479 662 CURVE SMOOTH",
"479.414 663.933 OFFCURVE",
"479.619 665.848 OFFCURVE",
"479.619 667.711 CURVE SMOOTH",
"479.619 679.343 OFFCURVE",
"471.652 689 OFFCURVE",
"457 689 CURVE SMOOTH",
"445 689 OFFCURVE",
"431 681 OFFCURVE",
"426 669 CURVE",
"334 485 LINE",
"182 485 LINE SMOOTH",
"166 485 OFFCURVE",
"151 472 OFFCURVE",
"148 457 CURVE SMOOTH",
"147.403 454.612 OFFCURVE",
"147.118 452.314 OFFCURVE",
"147.118 450.131 CURVE SMOOTH",
"147.118 437.686 OFFCURVE",
"156.388 429 OFFCURVE",
"170 429 CURVE SMOOTH",
"305 429 LINE",
"223 266 LINE",
"90 266 LINE SMOOTH",
"74 266 OFFCURVE",
"59 253 OFFCURVE",
"56 238 CURVE SMOOTH",
"55.615 235.945 OFFCURVE",
"55.427 233.956 OFFCURVE",
"55.427 232.05 CURVE SMOOTH",
"55.427 219.115 OFFCURVE",
"64.055 210 OFFCURVE",
"78 210 CURVE SMOOTH",
"195 210 LINE",
"112 45 LINE SMOOTH",
"107 36 OFFCURVE",
"105 31 OFFCURVE",
"104 26 CURVE SMOOTH",
"103.617 24.34 OFFCURVE",
"103.429 22.679 OFFCURVE",
"103.429 21.046 CURVE SMOOTH",
"103.429 9.891 OFFCURVE",
"112.171 0 OFFCURVE",
"127 0 CURVE SMOOTH"
);
},
{
closed = 1;
nodes = (
"364 429 LINE",
"516 429 LINE",
"434 266 LINE",
"281 266 LINE"
);
}
);
};
layerId = "ACFB53BD-70C1-480F-BE56-298851F5C10E";
paths = (
{
closed = 1;
nodes = (
"138 0 OFFCURVE",
"151 8 OFFCURVE",
"158 20 CURVE",
"253 210 LINE",
"406 210 LINE",
"323 46 LINE SMOOTH",
"318 37 OFFCURVE",
"316 31 OFFCURVE",
"315 28 CURVE SMOOTH",
"314.617 26.084 OFFCURVE",
"314.429 24.201 OFFCURVE",
"314.429 22.373 CURVE SMOOTH",
"314.429 9.891 OFFCURVE",
"323.171 0 OFFCURVE",
"338 0 CURVE SMOOTH",
"349 0 OFFCURVE",
"362 8 OFFCURVE",
"369 20 CURVE",
"464 210 LINE",
"600 210 LINE SMOOTH",
"615 210 OFFCURVE",
"631 222 OFFCURVE",
"634 238 CURVE SMOOTH",
"634.359 239.797 OFFCURVE",
"634.532 241.565 OFFCURVE",
"634.532 243.286 CURVE SMOOTH",
"634.532 255.928 OFFCURVE",
"625.203 266 OFFCURVE",
"612 266 CURVE SMOOTH",
"492 266 LINE",
"575 429 LINE",
"692 429 LINE SMOOTH",
"707 429 OFFCURVE",
"722 441 OFFCURVE",
"726 457 CURVE SMOOTH",
"726.359 458.797 OFFCURVE",
"726.532 460.565 OFFCURVE",
"726.532 462.286 CURVE SMOOTH",
"726.532 474.928 OFFCURVE",
"717.203 485 OFFCURVE",
"704 485 CURVE SMOOTH",
"603 485 LINE",
"684 646 LINE SMOOTH",
"687 653 OFFCURVE",
"689 658 OFFCURVE",
"690 661 CURVE SMOOTH",
"690.414 662.933 OFFCURVE",
"690.619 664.867 OFFCURVE",
"690.619 666.763 CURVE SMOOTH",
"690.619 678.6 OFFCURVE",
"682.652 689 OFFCURVE",
"668 689 CURVE SMOOTH",
"656 689 OFFCURVE",
"642 681 OFFCURVE",
"637 669 CURVE",
"545 485 LINE",
"392 485 LINE",
"473 645 LINE SMOOTH",
"476 651 OFFCURVE",
"478 656 OFFCURVE",
"479 662 CURVE SMOOTH",
"479.414 663.933 OFFCURVE",
"479.619 665.848 OFFCURVE",
"479.619 667.711 CURVE SMOOTH",
"479.619 679.343 OFFCURVE",
"471.652 689 OFFCURVE",
"457 689 CURVE SMOOTH",
"445 689 OFFCURVE",
"431 681 OFFCURVE",
"426 669 CURVE",
"334 485 LINE",
"182 485 LINE SMOOTH",
"166 485 OFFCURVE",
"151 472 OFFCURVE",
"148 457 CURVE SMOOTH",
"147.403 454.612 OFFCURVE",
"147.118 452.314 OFFCURVE",
"147.118 450.131 CURVE SMOOTH",
"147.118 437.686 OFFCURVE",
"156.388 429 OFFCURVE",
"170 429 CURVE SMOOTH",
"305 429 LINE",
"223 266 LINE",
"90 266 LINE SMOOTH",
"74 266 OFFCURVE",
"59 253 OFFCURVE",
"56 238 CURVE SMOOTH",
"55.615 235.945 OFFCURVE",
"55.427 233.956 OFFCURVE",
"55.427 232.05 CURVE SMOOTH",
"55.427 219.115 OFFCURVE",
"64.055 210 OFFCURVE",
"78 210 CURVE SMOOTH",
"195 210 LINE",
"112 45 LINE SMOOTH",
"107 36 OFFCURVE",
"105 31 OFFCURVE",
"104 26 CURVE SMOOTH",
"103.617 24.34 OFFCURVE",
"103.429 22.679 OFFCURVE",
"103.429 21.046 CURVE SMOOTH",
"103.429 9.891 OFFCURVE",
"112.171 0 OFFCURVE",
"127 0 CURVE SMOOTH"
);
},
{
closed = 1;
nodes = (
"364 429 LINE",
"516 429 LINE",
"434 266 LINE",
"281 266 LINE"
);
}
);
userData = {
com.fontlab.hintData = {
hhints = (
{
position = 0;
width = 21;
},
{
position = 210;
width = 56;
},
{
position = 429;
width = 56;
},
{
position = 669;
width = 20;
}
);
vhints = (
{
position = 103;
width = 55;
},
{
position = 314;
width = 55;
},
{
position = 426;
width = 54;
},
{
position = 637;
width = 54;
}
);
};
};
width = 746;
},
{
background = {
paths = (
{
closed = 1;
nodes = (
"159 0 OFFCURVE",
"182 11 OFFCURVE",
"194 34 CURVE SMOOTH",
"272 191 LINE",
"363 191 LINE",
"303 72 LINE SMOOTH",
"298 62 OFFCURVE",
"295 53 OFFCURVE",
"294 48 CURVE SMOOTH",
"293.121 44.339 OFFCURVE",
"292.693 40.721 OFFCURVE",
"292.693 37.212 CURVE SMOOTH",
"292.693 16.757 OFFCURVE",
"307.246 0 OFFCURVE",
"332 0 CURVE SMOOTH",
"351 0 OFFCURVE",
"373 10 OFFCURVE",
"385 34 CURVE SMOOTH",
"464 191 LINE",
"570 191 LINE SMOOTH",
"596 191 OFFCURVE",
"623 212 OFFCURVE",
"628 239 CURVE",
"628.816 242.402 OFFCURVE",
"629.207 245.766 OFFCURVE",
"629.207 249.041 CURVE SMOOTH",
"629.207 269.833 OFFCURVE",
"613.462 287 OFFCURVE",
"591 287 CURVE SMOOTH",
"513 287 LINE",
"563 390 LINE",
"653 390 LINE SMOOTH",
"678 390 OFFCURVE",
"706 411 OFFCURVE",
"712 438 CURVE SMOOTH",
"712.566 440.829 OFFCURVE",
"712.837 443.632 OFFCURVE",
"712.837 446.379 CURVE SMOOTH",
"712.837 467.91 OFFCURVE",
"696.171 486 OFFCURVE",
"674 486 CURVE SMOOTH",
"612 486 LINE",
"672 603 LINE SMOOTH",
"675 610 OFFCURVE",
"678 619 OFFCURVE",
"679 623 CURVE SMOOTH",
"679.667 626.203 OFFCURVE",
"679.996 629.406 OFFCURVE",
"679.996 632.552 CURVE SMOOTH",
"679.996 652.978 OFFCURVE",
"666.13 671 OFFCURVE",
"641 671 CURVE SMOOTH",
"621 671 OFFCURVE",
"598 658 OFFCURVE",
"588 637 CURVE SMOOTH",
"512 486 LINE",
"421 486 LINE",
"479 602 LINE SMOOTH",
"483 610 OFFCURVE",
"486 615 OFFCURVE",
"488 624 CURVE SMOOTH",
"488.667 627.336 OFFCURVE",
"488.996 630.619 OFFCURVE",
"488.996 633.804 CURVE SMOOTH",
"488.996 654.48 OFFCURVE",
"475.13 671 OFFCURVE",
"450 671 CURVE SMOOTH",
"430 671 OFFCURVE",
"406 658 OFFCURVE",
"396 637 CURVE SMOOTH",
"321 486 LINE",
"200 486 LINE SMOOTH",
"173 486 OFFCURVE",
"147 463 OFFCURVE",
"142 438 CURVE SMOOTH",
"141.152 434.183 OFFCURVE",
"140.743 430.486 OFFCURVE",
"140.743 426.952 CURVE SMOOTH",
"140.743 405.483 OFFCURVE",
"155.817 390 OFFCURVE",
"179 390 CURVE SMOOTH",
"271 390 LINE",
"250 345 OFFCURVE",
"239 327 OFFCURVE",
"220 287 CURVE",
"117 287 LINE SMOOTH",
"90 287 OFFCURVE",
"64 264 OFFCURVE",
"58 239 CURVE",
"57.387 235.689 OFFCURVE",
"57.09 232.468 OFFCURVE",
"57.09 229.365 CURVE SMOOTH",
"57.09 207.165 OFFCURVE",
"72.311 191 OFFCURVE",
"96 191 CURVE SMOOTH",
"171 191 LINE",
"112 71 LINE",
"106 61 OFFCURVE",
"103 55 OFFCURVE",
"101 46 CURVE SMOOTH",
"100.363 43.069 OFFCURVE",
"100.05 40.138 OFFCURVE",
"100.05 37.255 CURVE SMOOTH",
"100.05 17.512 OFFCURVE",
"114.696 0 OFFCURVE",
"140 0 CURVE SMOOTH"
);
},
{
closed = 1;
nodes = (
"371 390 LINE",
"463 390 LINE",
"412 287 LINE",
"321 287 LINE"
);
}
);
};
layerId = "140D7E2C-8008-49AA-8FE3-CF6E53AFBA7D";
paths = (
{
closed = 1;
nodes = (
"159 0 OFFCURVE",
"182 11 OFFCURVE",
"194 34 CURVE SMOOTH",
"272 191 LINE",
"363 191 LINE",
"303 72 LINE SMOOTH",
"298 62 OFFCURVE",
"295 53 OFFCURVE",
"294 48 CURVE SMOOTH",
"293.121 44.339 OFFCURVE",
"292.693 40.721 OFFCURVE",
"292.693 37.212 CURVE SMOOTH",
"292.693 16.757 OFFCURVE",
"307.246 0 OFFCURVE",
"332 0 CURVE SMOOTH",
"351 0 OFFCURVE",
"373 10 OFFCURVE",
"385 34 CURVE SMOOTH",
"464 191 LINE",
"570 191 LINE SMOOTH",
"596 191 OFFCURVE",
"623 212 OFFCURVE",
"628 239 CURVE",
"628.816 242.402 OFFCURVE",
"629.207 245.766 OFFCURVE",
"629.207 249.041 CURVE SMOOTH",
"629.207 269.833 OFFCURVE",
"613.462 287 OFFCURVE",
"591 287 CURVE SMOOTH",
"513 287 LINE",
"563 390 LINE",
"653 390 LINE SMOOTH",
"678 390 OFFCURVE",
"706 411 OFFCURVE",
"712 438 CURVE SMOOTH",
"712.566 440.829 OFFCURVE",
"712.837 443.632 OFFCURVE",
"712.837 446.379 CURVE SMOOTH",
"712.837 467.91 OFFCURVE",
"696.171 486 OFFCURVE",
"674 486 CURVE SMOOTH",
"612 486 LINE",
"672 603 LINE SMOOTH",
"675 610 OFFCURVE",
"678 619 OFFCURVE",
"679 623 CURVE SMOOTH",
"679.667 626.203 OFFCURVE",
"679.996 629.406 OFFCURVE",
"679.996 632.552 CURVE SMOOTH",
"679.996 652.978 OFFCURVE",
"666.13 671 OFFCURVE",
"641 671 CURVE SMOOTH",
"621 671 OFFCURVE",
"598 658 OFFCURVE",
"588 637 CURVE SMOOTH",
"512 486 LINE",
"421 486 LINE",
"479 602 LINE SMOOTH",
"483 610 OFFCURVE",
"486 615 OFFCURVE",
"488 624 CURVE SMOOTH",
"488.667 627.336 OFFCURVE",
"488.996 630.619 OFFCURVE",
"488.996 633.804 CURVE SMOOTH",
"488.996 654.48 OFFCURVE",
"475.13 671 OFFCURVE",
"450 671 CURVE SMOOTH",
"430 671 OFFCURVE",
"406 658 OFFCURVE",
"396 637 CURVE SMOOTH",
"321 486 LINE",
"200 486 LINE SMOOTH",
"173 486 OFFCURVE",
"147 463 OFFCURVE",
"142 438 CURVE SMOOTH",
"141.152 434.183 OFFCURVE",
"140.743 430.486 OFFCURVE",
"140.743 426.952 CURVE SMOOTH",
"140.743 405.483 OFFCURVE",
"155.817 390 OFFCURVE",
"179 390 CURVE SMOOTH",
"271 390 LINE",
"250 345 OFFCURVE",
"239 327 OFFCURVE",
"220 287 CURVE",
"117 287 LINE SMOOTH",
"90 287 OFFCURVE",
"64 264 OFFCURVE",
"58 239 CURVE",
"57.387 235.689 OFFCURVE",
"57.09 232.468 OFFCURVE",
"57.09 229.365 CURVE SMOOTH",
"57.09 207.165 OFFCURVE",
"72.311 191 OFFCURVE",
"96 191 CURVE SMOOTH",
"171 191 LINE",
"112 71 LINE",
"106 61 OFFCURVE",
"103 55 OFFCURVE",
"101 46 CURVE SMOOTH",
"100.363 43.069 OFFCURVE",
"100.05 40.138 OFFCURVE",
"100.05 37.255 CURVE SMOOTH",
"100.05 17.512 OFFCURVE",
"114.696 0 OFFCURVE",
"140 0 CURVE SMOOTH"
);
},
{
closed = 1;
nodes = (
"371 390 LINE",
"463 390 LINE",
"412 287 LINE",
"321 287 LINE"
);
}
);
userData = {
com.fontlab.hintData = {
hhints = (
{
position = 0;
width = 21;
},
{
position = 191;
width = 96;
},
{
position = 390;
width = 96;
}
);
};
};
width = 772;
}
);
unicode = 0023;
},
{
color = 4;
glyphname = dollar;
lastChange = "2020-01-22 18:14:14 +0000";
layers = (
{
background = {
paths = (
{
closed = 1;
nodes = (
"305 -77 OFFCURVE",
"315 -69 OFFCURVE",
"317 -58 CURVE SMOOTH",
"330 0 LINE",
"458 16 OFFCURVE",
"559 83 OFFCURVE",
"582 189 CURVE SMOOTH",
"584.067 198.876 OFFCURVE",
"585.092 208.489 OFFCURVE",
"585.092 217.827 CURVE SMOOTH",
"585.092 289.803 OFFCURVE",
"524.185 345.479 OFFCURVE",
"410 380 CURVE",
"469 658 LINE",
"519 658 OFFCURVE",
"623 637 OFFCURVE",
"620 554 CURVE SMOOTH",
"620 546 OFFCURVE",
"627 539 OFFCURVE",
"637 539 CURVE SMOOTH",
"647 539 OFFCURVE",
"656 546 OFFCURVE",
"657 554 CURVE",
"658.915 562.704 OFFCURVE",
"659.822 570.907 OFFCURVE",
"659.822 578.632 CURVE SMOOTH",
"659.822 659.661 OFFCURVE",
"559.993 688 OFFCURVE",
"476 688 CURVE",
"487 743 LINE",
"490 753 OFFCURVE",
"483 762 OFFCURVE",
"473 762 CURVE SMOOTH",
"463 762 OFFCURVE",
"454 753 OFFCURVE",
"451 743 CURVE",
"440 687 LINE",
"345 679 OFFCURVE",
"237 633 OFFCURVE",
"213 521 CURVE SMOOTH",
"211.197 512.46 OFFCURVE",
"210.34 504.261 OFFCURVE",
"210.34 496.392 CURVE SMOOTH",
"210.34 421.329 OFFCURVE",
"288.351 376.153 OFFCURVE",
"368 349 CURVE",
"301 34 LINE",
"225 43 OFFCURVE",
"153 80 OFFCURVE",
"142 154 CURVE SMOOTH",
"140 165 OFFCURVE",
"133 172 OFFCURVE",
"124 172 CURVE SMOOTH",
"110 172 OFFCURVE",
"100 160 OFFCURVE",
"98 154 CURVE SMOOTH",
"97 150 OFFCURVE",
"98 146 OFFCURVE",
"98 142 CURVE SMOOTH",
"110 61 OFFCURVE",
"187 7 OFFCURVE",
"293 -1 CURVE",
"281 -58 LINE SMOOTH",
"279 -69 OFFCURVE",
"285 -77 OFFCURVE",
"295 -77 CURVE SMOOTH"
);
},
{
closed = 1;
nodes = (
"402 339 LINE",
"520.402 298.451 OFFCURVE",
"541.468 249.353 OFFCURVE",
"541.468 215.706 CURVE SMOOTH",
"541.468 207.863 OFFCURVE",
"540.323 200.86 OFFCURVE",
"539 195 CURVE SMOOTH",
"515 83 OFFCURVE",
"416 41 OFFCURVE",
"337 34 CURVE"
);
},
{
closed = 1;
nodes = (
"296.716 421.329 OFFCURVE",
"256.219 458.025 OFFCURVE",
"256.219 501.796 CURVE SMOOTH",
"256.219 507.093 OFFCURVE",
"256.812 512.494 OFFCURVE",
"258 518 CURVE SMOOTH",
"269 573 OFFCURVE",
"308 638 OFFCURVE",
"433 655 CURVE",
"377 391 LINE"
);
}
);
};
layerId = master01;
paths = (
{
closed = 1;
nodes = (
"305 -77 OFFCURVE",
"315 -69 OFFCURVE",
"317 -58 CURVE SMOOTH",
"330 0 LINE",
"463 17 OFFCURVE",
"585 99 OFFCURVE",
"585.092 217.827 CURVE SMOOTH",
"585.092 289.803 OFFCURVE",
"524.185 345.479 OFFCURVE",
"410 380 CURVE",
"469 658 LINE",
"519 658 OFFCURVE",
"623 637 OFFCURVE",
"620 554 CURVE SMOOTH",
"620 546 OFFCURVE",
"627 539 OFFCURVE",
"637 539 CURVE SMOOTH",
"654 539 OFFCURVE",
"660 553 OFFCURVE",
"659.822 578.632 CURVE SMOOTH",
"659.822 659.661 OFFCURVE",
"559.993 688 OFFCURVE",
"476 688 CURVE",
"487 743 LINE SMOOTH",
"490 753 OFFCURVE",
"483 762 OFFCURVE",
"473 762 CURVE SMOOTH",
"463 762 OFFCURVE",
"454 753 OFFCURVE",
"451 743 CURVE SMOOTH",
"440 687 LINE",
"323 677 OFFCURVE",
"210 607 OFFCURVE",
"210.34 496.392 CURVE SMOOTH",
"210.34 421.329 OFFCURVE",
"288.351 376.153 OFFCURVE",
"368 349 CURVE",
"301 34 LINE",
"225 43 OFFCURVE",
"153 80 OFFCURVE",
"142 154 CURVE SMOOTH",
"140 165 OFFCURVE",
"133 172 OFFCURVE",
"124 172 CURVE SMOOTH",
"110 172 OFFCURVE",
"98 164 OFFCURVE",
"98 142 CURVE SMOOTH",
"110 61 OFFCURVE",
"187 7 OFFCURVE",
"293 -1 CURVE",
"281 -58 LINE SMOOTH",
"279 -69 OFFCURVE",
"285 -77 OFFCURVE",
"295 -77 CURVE SMOOTH"
);
},
{
closed = 1;
nodes = (
"402 339 LINE",
"520.402 298.451 OFFCURVE",
"541.468 249.353 OFFCURVE",
"541.468 215.706 CURVE SMOOTH",
"541 118 OFFCURVE",
"444 43 OFFCURVE",
"337 34 CURVE"
);
},
{
closed = 1;
nodes = (
"296.716 421.329 OFFCURVE",
"256.219 458.025 OFFCURVE",
"256.219 501.796 CURVE SMOOTH",
"256 581 OFFCURVE",
"330 641 OFFCURVE",
"433 655 CURVE",
"377 391 LINE"
);
}
);
userData = {
com.fontlab.hintData = {
hhints = (
{
position = -1;
width = 35;
},
{
position = 658;
width = 30;
}
);
vhints = (
{
position = 98;
width = 44;
},
{
position = 210;
width = 46;
},
{
position = 541;
width = 44;
},
{
position = 620;
width = 40;
}
);
};
};
width = 594;
},
{
background = {
paths = (
{
closed = 1;
nodes = (
"254 -74 OFFCURVE",
"270 -61 OFFCURVE",
"273 -46 CURVE SMOOTH",
"283 1 LINE",
"406 16 OFFCURVE",
"503 84 OFFCURVE",
"526 191 CURVE SMOOTH",
"528.5 202.579 OFFCURVE",
"529.754 213.726 OFFCURVE",
"529.754 224.444 CURVE SMOOTH",
"529.754 295.181 OFFCURVE",
"475.157 347.263 OFFCURVE",
"364 382 CURVE",
"417 631 LINE",
"433.439 629.066 OFFCURVE",
"543.392 623.391 OFFCURVE",
"543.392 548.867 CURVE SMOOTH",
"543.392 546.326 OFFCURVE",
"543.264 543.704 OFFCURVE",
"543 541 CURVE",
"543 527 OFFCURVE",
"551 517 OFFCURVE",
"567 517 CURVE SMOOTH",
"581 517 OFFCURVE",
"596 528 OFFCURVE",
"599 542 CURVE SMOOTH",
"600.994 551.425 OFFCURVE",
"601.936 560.274 OFFCURVE",
"601.936 568.576 CURVE SMOOTH",
"601.936 651.883 OFFCURVE",
"507.025 680 OFFCURVE",
"427 680 CURVE",
"436 723 LINE SMOOTH",
"436.359 724.797 OFFCURVE",
"436.532 726.565 OFFCURVE",
"436.532 728.286 CURVE SMOOTH",
"436.532 740.928 OFFCURVE",
"427.203 751 OFFCURVE",
"414 751 CURVE SMOOTH",
"399 751 OFFCURVE",
"384 738 OFFCURVE",
"381 723 CURVE SMOOTH",
"372 678 LINE",
"281 671 OFFCURVE",
"177 624 OFFCURVE",
"153 510 CURVE SMOOTH",
"150.935 500.499 OFFCURVE",
"149.957 491.425 OFFCURVE",
"149.957 482.759 CURVE SMOOTH",
"149.957 407.506 OFFCURVE",
"223.674 363.005 OFFCURVE",
"299 337 CURVE",
"239 54 LINE",
"174 61 OFFCURVE",
"113 95 OFFCURVE",
"104 162 CURVE SMOOTH",
"102 175 OFFCURVE",
"93 185 OFFCURVE",
"79 185 CURVE SMOOTH",
"60 185 OFFCURVE",
"44 168 OFFCURVE",
"42 158 CURVE SMOOTH",
"40 149 OFFCURVE",
"41 145 OFFCURVE",
"42 142 CURVE SMOOTH",
"55 62 OFFCURVE",
"127 8 OFFCURVE",
"228 0 CURVE",
"218 -46 LINE SMOOTH",
"217.612 -47.938 OFFCURVE",
"217.425 -49.842 OFFCURVE",
"217.425 -51.689 CURVE SMOOTH",
"217.425 -64.141 OFFCURVE",
"225.938 -74 OFFCURVE",
"239 -74 CURVE SMOOTH"
);
},
{
closed = 1;
nodes = (
"351 321 LINE",
"449.485 287.095 OFFCURVE",
"467.164 245.371 OFFCURVE",
"467.164 215.816 CURVE SMOOTH",
"467.164 208.76 OFFCURVE",
"466.156 202.397 OFFCURVE",
"465 197 CURVE SMOOTH",
"447 109 OFFCURVE",
"375 67 OFFCURVE",
"294 55 CURVE"
);
},
{
closed = 1;
nodes = (
"246.111 423.931 OFFCURVE",
"213.52 455.204 OFFCURVE",
"213.52 492.82 CURVE SMOOTH",
"213.52 497.45 OFFCURVE",
"214.014 502.177 OFFCURVE",
"215 507 CURVE SMOOTH",
"226 556 OFFCURVE",
"259 612 OFFCURVE",
"361 627 CURVE",
"312 399 LINE"
);
}
);
};
layerId = "ACFB53BD-70C1-480F-BE56-298851F5C10E";
paths = (
{
closed = 1;
nodes = (
"254 -74 OFFCURVE",
"270 -61 OFFCURVE",
"273 -46 CURVE SMOOTH",
"283 1 LINE",
"415 17 OFFCURVE",
"530 103 OFFCURVE",
"529.754 224.444 CURVE SMOOTH",
"529.754 295.181 OFFCURVE",
"475.157 347.263 OFFCURVE",
"364 382 CURVE",
"417 631 LINE",
"433.439 629.066 OFFCURVE",
"543.392 623.391 OFFCURVE",
"543.392 548.867 CURVE SMOOTH",
"543 530 OFFCURVE",
"547 517 OFFCURVE",
"567 517 CURVE SMOOTH",
"591 517 OFFCURVE",
"602 536 OFFCURVE",
"601.936 568.576 CURVE SMOOTH",
"601.936 651.883 OFFCURVE",
"507.025 680 OFFCURVE",
"427 680 CURVE",
"436 725 LINE SMOOTH",
"439 741 OFFCURVE",
"427.203 751 OFFCURVE",
"414 751 CURVE SMOOTH",
"399 751 OFFCURVE",
"384 738 OFFCURVE",
"381 723 CURVE SMOOTH",
"372 678 LINE",
"255 669 OFFCURVE",
"150 594 OFFCURVE",
"150 487 CURVE SMOOTH",
"149.957 407.506 OFFCURVE",
"223.674 363.005 OFFCURVE",
"299 337 CURVE",
"239 54 LINE",
"174 61 OFFCURVE",
"113 95 OFFCURVE",
"104 162 CURVE SMOOTH",
"102 175 OFFCURVE",
"93 185 OFFCURVE",
"79 185 CURVE SMOOTH",
"57 185 OFFCURVE",
"42 169 OFFCURVE",
"42 149 CURVE SMOOTH",
"42 72 OFFCURVE",
"127 8 OFFCURVE",
"228 0 CURVE",
"218 -48 LINE SMOOTH",
"215 -64 OFFCURVE",
"225.938 -74 OFFCURVE",
"239 -74 CURVE SMOOTH"
);
},
{
closed = 1;
nodes = (
"351 321 LINE",
"449.485 287.095 OFFCURVE",
"467.164 245.371 OFFCURVE",
"467.164 215.816 CURVE SMOOTH",
"467 132 OFFCURVE",
"390 69 OFFCURVE",
"294 55 CURVE"
);
},
{
closed = 1;
nodes = (
"246.111 423.931 OFFCURVE",
"213.52 455.204 OFFCURVE",
"214 497 CURVE SMOOTH",
"214 560 OFFCURVE",
"275 614 OFFCURVE",
"361 627 CURVE",
"312 399 LINE"
);
}
);
userData = {
com.fontlab.hintData = {
hhints = (
{
position = 0;
width = 54;
},
{
position = 631;
width = 49;
}
);
vhints = (
{
position = 42;
width = 62;
},
{
position = 150;
width = 64;
},
{
position = 467;
width = 63;
},
{
position = 543;
width = 59;
}
);
};
};
width = 604;
},
{
background = {
paths = (
{
closed = 1;
nodes = (
"264 -67 OFFCURVE",
"292 -45 OFFCURVE",
"297 -19 CURVE SMOOTH",
"302 4 LINE",
"417 24 OFFCURVE",
"505 92 OFFCURVE",
"527 196 CURVE SMOOTH",
"529.729 208.496 OFFCURVE",
"531.096 220.496 OFFCURVE",
"531.096 232.004 CURVE SMOOTH",
"531.096 300.623 OFFCURVE",
"482.483 351.745 OFFCURVE",
"384 386 CURVE",
"423 570 LINE",
"452.751 565.201 OFFCURVE",
"497.239 552.113 OFFCURVE",
"497.239 515.708 CURVE SMOOTH",
"497.239 512.855 OFFCURVE",
"496.822 509.714 OFFCURVE",
"496.822 506.803 CURVE SMOOTH",
"496.822 485.042 OFFCURVE",
"511.602 470 OFFCURVE",
"537 470 CURVE SMOOTH",
"561 470 OFFCURVE",
"588 490 OFFCURVE",
"593 515 CURVE SMOOTH",
"595.307 525.799 OFFCURVE",
"596.393 535.894 OFFCURVE",
"596.393 545.32 CURVE SMOOTH",
"596.393 625.804 OFFCURVE",
"517.193 657.524 OFFCURVE",
"442 662 CURVE",
"446 680 LINE SMOOTH",
"446.564 682.821 OFFCURVE",
"446.836 685.617 OFFCURVE",
"446.836 688.357 CURVE SMOOTH",
"446.836 709.898 OFFCURVE",
"430.066 728 OFFCURVE",
"407 728 CURVE SMOOTH",
"381 728 OFFCURVE",
"355 705 OFFCURVE",
"350 680 CURVE SMOOTH",
"346 659 LINE",
"257 648 OFFCURVE",
"167 599 OFFCURVE",
"143 486 CURVE SMOOTH",
"140.678 475.318 OFFCURVE",
"139.582 465.161 OFFCURVE",
"139.582 455.507 CURVE SMOOTH",
"139.582 382.016 OFFCURVE",
"203.057 337.633 OFFCURVE",
"272 312 CURVE",
"226 98 LINE",
"183 108 OFFCURVE",
"149 134 OFFCURVE",
"143 177 CURVE",
"141 198 OFFCURVE",
"126 213 OFFCURVE",
"103 213 CURVE SMOOTH",
"72 213 OFFCURVE",
"46 184 OFFCURVE",
"42 166 CURVE SMOOTH",
"39 152 OFFCURVE",
"41 148 OFFCURVE",
"41 144 CURVE",
"54 68 OFFCURVE",
"117 16 OFFCURVE",
"206 3 CURVE",
"201 -19 LINE SMOOTH",
"200.385 -22.198 OFFCURVE",
"200.088 -25.336 OFFCURVE",
"200.088 -28.38 CURVE SMOOTH",
"200.088 -50.08 OFFCURVE",
"215.198 -67 OFFCURVE",
"238 -67 CURVE SMOOTH"
);
},
{
closed = 1;
nodes = (
"361 282 LINE",
"416.611 257.016 OFFCURVE",
"427.402 231.382 OFFCURVE",
"427.402 213.474 CURVE SMOOTH",
"427.402 209.163 OFFCURVE",
"426.776 205.299 OFFCURVE",
"426 202 CURVE SMOOTH",
"414 145 OFFCURVE",
"373 114 OFFCURVE",
"323 101 CURVE"
);
},
{
closed = 1;
nodes = (
"261.329 435.835 OFFCURVE",
"244.146 455.026 OFFCURVE",
"244.146 475.181 CURVE SMOOTH",
"244.146 477.772 OFFCURVE",
"244.43 480.38 OFFCURVE",
"245 483 CURVE SMOOTH",
"252 513 OFFCURVE",
"269 549 OFFCURVE",
"325 564 CURVE",
"295 419 LINE"
);
}
);
};
layerId = "140D7E2C-8008-49AA-8FE3-CF6E53AFBA7D";
paths = (
{
closed = 1;
nodes = (
"264 -67 OFFCURVE",
"292 -45 OFFCURVE",
"297 -19 CURVE SMOOTH",
"302 4 LINE",
"429 26 OFFCURVE",
"531 114 OFFCURVE",
"531.096 232.004 CURVE SMOOTH",
"531.096 300.623 OFFCURVE",
"482.483 351.745 OFFCURVE",
"384 386 CURVE",
"423 570 LINE",
"467 563 OFFCURVE",
"497 550 OFFCURVE",
"496.822 506.803 CURVE SMOOTH",
"496.822 485.042 OFFCURVE",
"511.602 470 OFFCURVE",
"537 470 CURVE SMOOTH",
"572 470 OFFCURVE",
"596 500 OFFCURVE",
"596.393 545.32 CURVE SMOOTH",
"596.393 625.804 OFFCURVE",
"517.193 657.524 OFFCURVE",
"442 662 CURVE",
"446 683 LINE SMOOTH",
"451 710 OFFCURVE",
"430.066 728 OFFCURVE",
"407 728 CURVE SMOOTH",
"381 728 OFFCURVE",
"355 705 OFFCURVE",
"350 680 CURVE SMOOTH",
"346 659 LINE",
"232 645 OFFCURVE",
"140 565 OFFCURVE",
"139.582 455.507 CURVE SMOOTH",
"139.582 382.016 OFFCURVE",
"203.057 337.633 OFFCURVE",
"272 312 CURVE",
"226 98 LINE",
"183 108 OFFCURVE",
"149 134 OFFCURVE",
"143 177 CURVE SMOOTH",
"140 198 OFFCURVE",
"126 213 OFFCURVE",
"103 213 CURVE SMOOTH",
"74 213 OFFCURVE",
"41 187 OFFCURVE",
"41 150 CURVE SMOOTH",
"41 81 OFFCURVE",
"120 16 OFFCURVE",
"206 3 CURVE",
"201 -25 LINE SMOOTH",
"197 -51 OFFCURVE",
"215.198 -67 OFFCURVE",
"238 -67 CURVE SMOOTH"
);
},
{
closed = 1;
nodes = (
"361 282 LINE",
"416.611 257.016 OFFCURVE",
"427.402 231.382 OFFCURVE",
"427.402 213.474 CURVE SMOOTH",
"427 163 OFFCURVE",
"382 116 OFFCURVE",
"323 101 CURVE"
);
},
{
closed = 1;
nodes = (
"261.329 435.835 OFFCURVE",
"244.146 455.026 OFFCURVE",
"244.146 475.181 CURVE SMOOTH",
"244 512 OFFCURVE",
"276 551 OFFCURVE",
"325 564 CURVE",
"295 419 LINE"
);
}
);
userData = {
com.fontlab.hintData = {
vhints = (
{
position = 42;
width = 101;
},
{
position = 140;
width = 105;
},
{
position = 427;
width = 104;
},
{
position = 497;
width = 100;
}
);
};
};
width = 630;
}
);
unicode = 0024;
},
{
color = 4;
glyphname = percent;
lastChange = "2020-01-15 21:15:02 +0000";
layers = (
{
background = {
paths = (
{
closed = 1;
nodes = (
"186 0 OFFCURVE",
"192 3 OFFCURVE",
"196 8 CURVE SMOOTH",
"707 674 LINE SMOOTH",
"708 676 OFFCURVE",
"710 679 OFFCURVE",
"710 682 CURVE SMOOTH",
"712 691 OFFCURVE",
"706 698 OFFCURVE",
"697 698 CURVE SMOOTH",
"691 698 OFFCURVE",
"686 696 OFFCURVE",
"682 690 CURVE SMOOTH",
"174 27 LINE SMOOTH",
"170 22 OFFCURVE",
"168 17 OFFCURVE",
"168 15 CURVE SMOOTH",
"166 7 OFFCURVE",
"171 0 OFFCURVE",
"180 0 CURVE SMOOTH"
);
},
{
closed = 1;
nodes = (
"602 -8 OFFCURVE",
"674 51 OFFCURVE",
"690 123 CURVE SMOOTH",
"691.857 131.913 OFFCURVE",
"692.748 140.627 OFFCURVE",
"692.748 149.054 CURVE SMOOTH",
"692.748 208.703 OFFCURVE",
"648.087 254 OFFCURVE",
"585 254 CURVE SMOOTH",
"514 254 OFFCURVE",
"442 195 OFFCURVE",
"427 123 CURVE SMOOTH",
"424.913 113.608 OFFCURVE",
"423.915 104.436 OFFCURVE",
"423.915 95.588 CURVE SMOOTH",
"423.915 36.611 OFFCURVE",
"468.262 -8 OFFCURVE",
"530 -8 CURVE SMOOTH"
);
},
{
closed = 1;
nodes = (
"492.076 27 OFFCURVE",
"460.586 58.348 OFFCURVE",
"460.586 101.699 CURVE SMOOTH",
"460.586 108.527 OFFCURVE",
"461.367 115.652 OFFCURVE",
"463 123 CURVE SMOOTH",
"474 175 OFFCURVE",
"526 219 OFFCURVE",
"578 219 CURVE SMOOTH",
"624.276 219 OFFCURVE",
"656.067 185.457 OFFCURVE",
"656.067 142.332 CURVE SMOOTH",
"656.067 136.066 OFFCURVE",
"655.396 129.597 OFFCURVE",
"654 123 CURVE SMOOTH",
"642 69 OFFCURVE",
"590 27 OFFCURVE",
"537 27 CURVE SMOOTH"
);
},
{
closed = 1;
nodes = (
"358 440 OFFCURVE",
"430 499 OFFCURVE",
"445 571 CURVE SMOOTH",
"446.914 580.189 OFFCURVE",
"447.835 589.166 OFFCURVE",
"447.835 597.836 CURVE SMOOTH",
"447.835 657.099 OFFCURVE",
"404.811 702 OFFCURVE",
"342 702 CURVE SMOOTH",
"270 702 OFFCURVE",
"197 643 OFFCURVE",
"182 571 CURVE SMOOTH",
"180.115 561.951 OFFCURVE",
"179.209 553.107 OFFCURVE",
"179.209 544.56 CURVE SMOOTH",
"179.209 485.102 OFFCURVE",
"223.049 440 OFFCURVE",
"286 440 CURVE SMOOTH"
);
},
{
closed = 1;
nodes = (
"247.933 475 OFFCURVE",
"215.636 506.547 OFFCURVE",
"215.636 550.111 CURVE SMOOTH",
"215.636 556.813 OFFCURVE",
"216.4 563.8 OFFCURVE",
"218 571 CURVE SMOOTH",
"229 623 OFFCURVE",
"282 667 OFFCURVE",
"334 667 CURVE SMOOTH",
"379.529 667 OFFCURVE",
"412.025 633.27 OFFCURVE",
"412.025 589.973 CURVE SMOOTH",
"412.025 583.819 OFFCURVE",
"411.369 577.471 OFFCURVE",
"410 571 CURVE SMOOTH",
"398 517 OFFCURVE",
"345 475 OFFCURVE",
"293 475 CURVE SMOOTH"
);
}
);
};
layerId = master01;
paths = (
{
closed = 1;
nodes = (
"186 0 OFFCURVE",
"192 3 OFFCURVE",
"196 8 CURVE SMOOTH",
"707 674 LINE SMOOTH",
"708 676 OFFCURVE",
"710 679 OFFCURVE",
"710 682 CURVE SMOOTH",
"712 691 OFFCURVE",
"706 698 OFFCURVE",
"697 698 CURVE SMOOTH",
"691 698 OFFCURVE",
"686 696 OFFCURVE",
"682 690 CURVE SMOOTH",
"174 27 LINE SMOOTH",
"170 22 OFFCURVE",
"168 17 OFFCURVE",
"168 15 CURVE SMOOTH",
"166 7 OFFCURVE",
"171 0 OFFCURVE",
"180 0 CURVE SMOOTH"
);
},
{
closed = 1;
nodes = (
"602 -8 OFFCURVE",
"674 51 OFFCURVE",
"690 123 CURVE SMOOTH",
"691.857 131.913 OFFCURVE",
"692.748 140.627 OFFCURVE",
"692.748 149.054 CURVE SMOOTH",
"692.748 208.703 OFFCURVE",
"648.087 254 OFFCURVE",
"585 254 CURVE SMOOTH",
"514 254 OFFCURVE",
"442 195 OFFCURVE",
"427 123 CURVE SMOOTH",
"424.913 113.608 OFFCURVE",
"423.915 104.436 OFFCURVE",
"423.915 95.588 CURVE SMOOTH",
"423.915 36.611 OFFCURVE",
"468.262 -8 OFFCURVE",
"530 -8 CURVE SMOOTH"
);
},
{
closed = 1;
nodes = (
"492.076 27 OFFCURVE",
"460.586 58.348 OFFCURVE",
"460.586 101.699 CURVE SMOOTH",
"460.586 108.527 OFFCURVE",
"461.367 115.652 OFFCURVE",
"463 123 CURVE SMOOTH",
"474 175 OFFCURVE",
"526 219 OFFCURVE",
"578 219 CURVE SMOOTH",
"624.276 219 OFFCURVE",
"656.067 185.457 OFFCURVE",
"656.067 142.332 CURVE SMOOTH",
"656.067 136.066 OFFCURVE",
"655.396 129.597 OFFCURVE",
"654 123 CURVE SMOOTH",
"642 69 OFFCURVE",
"590 27 OFFCURVE",
"537 27 CURVE SMOOTH"
);
},
{
closed = 1;
nodes = (
"358 440 OFFCURVE",
"430 499 OFFCURVE",
"445 571 CURVE SMOOTH",
"446.914 580.189 OFFCURVE",
"447.835 589.166 OFFCURVE",
"447.835 597.836 CURVE SMOOTH",
"447.835 657.099 OFFCURVE",
"404.811 702 OFFCURVE",
"342 702 CURVE SMOOTH",
"270 702 OFFCURVE",
"197 643 OFFCURVE",
"182 571 CURVE SMOOTH",
"180.115 561.951 OFFCURVE",
"179.209 553.107 OFFCURVE",
"179.209 544.56 CURVE SMOOTH",
"179.209 485.102 OFFCURVE",
"223.049 440 OFFCURVE",
"286 440 CURVE SMOOTH"
);
},
{
closed = 1;
nodes = (
"247.933 475 OFFCURVE",
"215.636 506.547 OFFCURVE",
"215.636 550.111 CURVE SMOOTH",
"215.636 556.813 OFFCURVE",
"216.4 563.8 OFFCURVE",
"218 571 CURVE SMOOTH",
"229 623 OFFCURVE",
"282 667 OFFCURVE",
"334 667 CURVE SMOOTH",
"379.529 667 OFFCURVE",
"412.025 633.27 OFFCURVE",
"412.025 589.973 CURVE SMOOTH",
"412.025 583.819 OFFCURVE",
"411.369 577.471 OFFCURVE",
"410 571 CURVE SMOOTH",
"398 517 OFFCURVE",
"345 475 OFFCURVE",
"293 475 CURVE SMOOTH"
);
}
);
userData = {
com.fontlab.hintData = {
hhints = (
{
position = -8;
width = 35;
},
{
position = 0;
width = 21;
},
{
position = 219;
width = 35;
},
{
position = 440;
width = 35;
},
{
position = 667;
width = 35;
}
);
vhints = (
{
position = 179;
width = 36;
},
{
position = 412;
width = 36;
},
{
position = 424;
width = 37;
},
{
position = 656;
width = 37;
}
);
};
};
width = 718;
},
{
background = {
paths = (
{
closed = 1;
nodes = (
"139 0 OFFCURVE",
"148 4 OFFCURVE",
"155 13 CURVE SMOOTH",
"645 652 LINE SMOOTH",
"648.728 656.971 OFFCURVE",
"651.303 661.129 OFFCURVE",
"651.303 667.947 CURVE SMOOTH",
"651.303 679.506 OFFCURVE",
"643.477 690 OFFCURVE",
"630 690 CURVE SMOOTH",
"621 690 OFFCURVE",
"612 685 OFFCURVE",
"605 677 CURVE SMOOTH",
"118 41 LINE SMOOTH",
"113 34 OFFCURVE",
"110 28 OFFCURVE",
"110 24 CURVE",
"109.58 22.321 OFFCURVE",
"109.376 20.642 OFFCURVE",
"109.376 18.996 CURVE SMOOTH",
"109.376 8.877 OFFCURVE",
"117.099 0 OFFCURVE",
"130 0 CURVE SMOOTH"
);
},
{
closed = 1;
nodes = (
"541 -8 OFFCURVE",
"615 53 OFFCURVE",
"631 128 CURVE SMOOTH",
"633.078 137.741 OFFCURVE",
"634.076 147.245 OFFCURVE",
"634.076 156.411 CURVE SMOOTH",
"634.076 217.816 OFFCURVE",
"589.259 264 OFFCURVE",
"524 264 CURVE SMOOTH",
"449 264 OFFCURVE",
"375 203 OFFCURVE",
"359 128 CURVE SMOOTH",
"356.922 118.259 OFFCURVE",
"355.924 108.755 OFFCURVE",
"355.924 99.589 CURVE SMOOTH",
"355.924 38.184 OFFCURVE",
"400.741 -8 OFFCURVE",
"466 -8 CURVE SMOOTH"
);
},
{
closed = 1;
nodes = (
"438.006 46 OFFCURVE",
"411.025 73.032 OFFCURVE",
"411.025 110.179 CURVE SMOOTH",
"411.025 115.9 OFFCURVE",
"411.665 121.861 OFFCURVE",
"413 128 CURVE SMOOTH",
"422 173 OFFCURVE",
"467 210 OFFCURVE",
"512 210 CURVE SMOOTH",
"551.475 210 OFFCURVE",
"578.637 181.528 OFFCURVE",
"578.637 144.16 CURVE SMOOTH",
"578.637 138.93 OFFCURVE",
"578.105 133.525 OFFCURVE",
"577 128 CURVE SMOOTH",
"567 82 OFFCURVE",
"522 46 OFFCURVE",
"477 46 CURVE SMOOTH"
);
},
{
closed = 1;
nodes = (
"306 422 OFFCURVE",
"380 483 OFFCURVE",
"396 558 CURVE SMOOTH",
"398.078 567.741 OFFCURVE",
"399.076 577.245 OFFCURVE",
"399.076 586.411 CURVE SMOOTH",
"399.076 647.816 OFFCURVE",
"354.259 694 OFFCURVE",
"289 694 CURVE SMOOTH",
"214 694 OFFCURVE",
"140 633 OFFCURVE",
"124 558 CURVE SMOOTH",
"121.922 548.259 OFFCURVE",
"120.924 538.755 OFFCURVE",
"120.924 529.589 CURVE SMOOTH",
"120.924 468.184 OFFCURVE",
"165.741 422 OFFCURVE",
"231 422 CURVE SMOOTH"
);
},
{
closed = 1;
nodes = (
"203.864 476 OFFCURVE",
"176.073 503.229 OFFCURVE",
"176.073 540.585 CURVE SMOOTH",
"176.073 546.182 OFFCURVE",
"176.697 552.006 OFFCURVE",
"178 558 CURVE SMOOTH",
"188 603 OFFCURVE",
"233 640 OFFCURVE",
"278 640 CURVE SMOOTH",
"316.994 640 OFFCURVE",
"343.975 612.217 OFFCURVE",
"343.975 575.52 CURVE SMOOTH",
"343.975 569.869 OFFCURVE",
"343.335 564.006 OFFCURVE",
"342 558 CURVE SMOOTH",
"332 512 OFFCURVE",
"288 476 OFFCURVE",
"243 476 CURVE SMOOTH"
);
}
);
};
layerId = "ACFB53BD-70C1-480F-BE56-298851F5C10E";
paths = (
{
closed = 1;
nodes = (
"139 0 OFFCURVE",
"148 4 OFFCURVE",
"155 13 CURVE SMOOTH",
"645 652 LINE SMOOTH",
"648.728 656.971 OFFCURVE",
"651.303 661.129 OFFCURVE",
"651.303 667.947 CURVE SMOOTH",
"651.303 679.506 OFFCURVE",
"643.477 690 OFFCURVE",
"630 690 CURVE SMOOTH",
"621 690 OFFCURVE",
"612 685 OFFCURVE",
"605 677 CURVE SMOOTH",
"118 41 LINE SMOOTH",
"113 34 OFFCURVE",
"110 28 OFFCURVE",
"110 24 CURVE",
"109.58 22.321 OFFCURVE",
"109.376 20.642 OFFCURVE",
"109.376 18.996 CURVE SMOOTH",
"109.376 8.877 OFFCURVE",
"117.099 0 OFFCURVE",
"130 0 CURVE SMOOTH"
);
},
{
closed = 1;
nodes = (
"541 -8 OFFCURVE",
"615 53 OFFCURVE",
"631 128 CURVE SMOOTH",
"633.078 137.741 OFFCURVE",
"634.076 147.245 OFFCURVE",
"634.076 156.411 CURVE SMOOTH",
"634.076 217.816 OFFCURVE",
"589.259 264 OFFCURVE",
"524 264 CURVE SMOOTH",
"449 264 OFFCURVE",
"375 203 OFFCURVE",
"359 128 CURVE SMOOTH",
"356.922 118.259 OFFCURVE",
"355.924 108.755 OFFCURVE",
"355.924 99.589 CURVE SMOOTH",
"355.924 38.184 OFFCURVE",
"400.741 -8 OFFCURVE",
"466 -8 CURVE SMOOTH"
);
},
{
closed = 1;
nodes = (
"438.006 46 OFFCURVE",
"411.025 73.032 OFFCURVE",
"411.025 110.179 CURVE SMOOTH",
"411.025 115.9 OFFCURVE",
"411.665 121.861 OFFCURVE",
"413 128 CURVE SMOOTH",
"422 173 OFFCURVE",
"467 210 OFFCURVE",
"512 210 CURVE SMOOTH",
"551.475 210 OFFCURVE",
"578.637 181.528 OFFCURVE",
"578.637 144.16 CURVE SMOOTH",
"578.637 138.93 OFFCURVE",
"578.105 133.525 OFFCURVE",
"577 128 CURVE SMOOTH",
"567 82 OFFCURVE",
"522 46 OFFCURVE",
"477 46 CURVE SMOOTH"
);
},
{
closed = 1;
nodes = (
"306 422 OFFCURVE",
"380 483 OFFCURVE",
"396 558 CURVE SMOOTH",
"398.078 567.741 OFFCURVE",
"399.076 577.245 OFFCURVE",
"399.076 586.411 CURVE SMOOTH",
"399.076 647.816 OFFCURVE",
"354.259 694 OFFCURVE",
"289 694 CURVE SMOOTH",
"214 694 OFFCURVE",
"140 633 OFFCURVE",
"124 558 CURVE SMOOTH",
"121.922 548.259 OFFCURVE",
"120.924 538.755 OFFCURVE",
"120.924 529.589 CURVE SMOOTH",
"120.924 468.184 OFFCURVE",
"165.741 422 OFFCURVE",
"231 422 CURVE SMOOTH"
);
},
{
closed = 1;
nodes = (
"203.864 476 OFFCURVE",
"176.073 503.229 OFFCURVE",
"176.073 540.585 CURVE SMOOTH",
"176.073 546.182 OFFCURVE",
"176.697 552.006 OFFCURVE",
"178 558 CURVE SMOOTH",
"188 603 OFFCURVE",
"233 640 OFFCURVE",
"278 640 CURVE SMOOTH",
"316.994 640 OFFCURVE",
"343.975 612.217 OFFCURVE",
"343.975 575.52 CURVE SMOOTH",
"343.975 569.869 OFFCURVE",
"343.335 564.006 OFFCURVE",
"342 558 CURVE SMOOTH",
"332 512 OFFCURVE",
"288 476 OFFCURVE",
"243 476 CURVE SMOOTH"
);
}
);
userData = {
com.fontlab.hintData = {
hhints = (
{
position = -8;
width = 54;
},
{
position = 210;
width = 54;
},
{
position = 422;
width = 54;
},
{
position = 640;
width = 54;
},
{
position = 670;
width = 20;
}
);
vhints = (
{
position = 121;
width = 55;
},
{
position = 344;
width = 55;
},
{
position = 356;
width = 55;
},
{
position = 579;
width = 55;
}
);
};
};
width = 728;
},
{
background = {
paths = (
{
closed = 1;
nodes = (
"158 0 OFFCURVE",
"175 7 OFFCURVE",
"188 24 CURVE SMOOTH",
"633 604 LINE SMOOTH",
"638 611 OFFCURVE",
"641 619 OFFCURVE",
"643 626 CURVE",
"643.431 628.477 OFFCURVE",
"643.641 630.954 OFFCURVE",
"643.641 633.403 CURVE SMOOTH",
"643.641 653.688 OFFCURVE",
"629.2 672 OFFCURVE",
"606 672 CURVE SMOOTH",
"590 672 OFFCURVE",
"573 664 OFFCURVE",
"561 649 CURVE SMOOTH",
"119 71 LINE SMOOTH",
"111 61 OFFCURVE",
"107 51 OFFCURVE",
"106 45 CURVE SMOOTH",
"105.33 41.919 OFFCURVE",
"105.001 38.857 OFFCURVE",
"105.001 35.862 CURVE SMOOTH",
"105.001 16.501 OFFCURVE",
"118.75 0 OFFCURVE",
"143 0 CURVE SMOOTH"
);
},
{
closed = 1;
nodes = (
"528 -7 OFFCURVE",
"608 58 OFFCURVE",
"625 139 CURVE SMOOTH",
"627.177 149.373 OFFCURVE",
"628.222 159.483 OFFCURVE",
"628.222 169.229 CURVE SMOOTH",
"628.222 235.582 OFFCURVE",
"579.755 285 OFFCURVE",
"510 285 CURVE SMOOTH",
"429 285 OFFCURVE",
"349 220 OFFCURVE",
"332 139 CURVE SMOOTH",
"329.825 128.637 OFFCURVE",
"328.78 118.537 OFFCURVE",
"328.78 108.801 CURVE SMOOTH",
"328.78 42.433 OFFCURVE",
"377.363 -7 OFFCURVE",
"448 -7 CURVE SMOOTH"
);
},
{
closed = 1;
nodes = (
"442.757 87 OFFCURVE",
"425.848 104.427 OFFCURVE",
"425.848 128.069 CURVE SMOOTH",
"425.848 131.587 OFFCURVE",
"426.223 135.243 OFFCURVE",
"427 139 CURVE SMOOTH",
"433 167 OFFCURVE",
"461 191 OFFCURVE",
"490 191 CURVE SMOOTH",
"514.362 191 OFFCURVE",
"531.154 172.831 OFFCURVE",
"531.154 149.667 CURVE SMOOTH",
"531.154 146.208 OFFCURVE",
"530.78 142.638 OFFCURVE",
"530 139 CURVE SMOOTH",
"524 110 OFFCURVE",
"496 87 OFFCURVE",
"468 87 CURVE SMOOTH"
);
},
{
closed = 1;
nodes = (
"315 383 OFFCURVE",
"395 449 OFFCURVE",
"412 530 CURVE SMOOTH",
"414.175 540.235 OFFCURVE",
"415.22 550.24 OFFCURVE",
"415.22 559.907 CURVE SMOOTH",
"415.22 625.807 OFFCURVE",
"366.637 676 OFFCURVE",
"296 676 CURVE SMOOTH",
"216 676 OFFCURVE",
"136 610 OFFCURVE",
"119 530 CURVE SMOOTH",
"116.823 519.627 OFFCURVE",
"115.778 509.5 OFFCURVE",
"115.778 499.726 CURVE SMOOTH",
"115.778 433.178 OFFCURVE",
"164.245 383 OFFCURVE",
"234 383 CURVE SMOOTH"
);
},
{
closed = 1;
nodes = (
"229.638 478 OFFCURVE",
"212.846 495.412 OFFCURVE",
"212.846 519.038 CURVE SMOOTH",
"212.846 522.566 OFFCURVE",
"213.22 526.232 OFFCURVE",
"214 530 CURVE SMOOTH",
"220 558 OFFCURVE",
"248 581 OFFCURVE",
"276 581 CURVE SMOOTH",
"301.243 581 OFFCURVE",
"318.152 563.573 OFFCURVE",
"318.152 540.591 CURVE SMOOTH",
"318.152 537.171 OFFCURVE",
"317.777 533.627 OFFCURVE",
"317 530 CURVE SMOOTH",
"311 501 OFFCURVE",
"283 478 OFFCURVE",
"254 478 CURVE SMOOTH"
);
}
);
};
layerId = "140D7E2C-8008-49AA-8FE3-CF6E53AFBA7D";
paths = (
{
closed = 1;
nodes = (
"158 0 OFFCURVE",
"175 7 OFFCURVE",
"188 24 CURVE SMOOTH",
"633 604 LINE SMOOTH",
"638 611 OFFCURVE",
"641 619 OFFCURVE",
"643 626 CURVE",
"643.431 628.477 OFFCURVE",
"643.641 630.954 OFFCURVE",
"643.641 633.403 CURVE SMOOTH",
"643.641 653.688 OFFCURVE",
"629.2 672 OFFCURVE",
"606 672 CURVE SMOOTH",
"590 672 OFFCURVE",
"573 664 OFFCURVE",
"561 649 CURVE SMOOTH",
"119 71 LINE SMOOTH",
"111 61 OFFCURVE",
"107 51 OFFCURVE",
"106 45 CURVE SMOOTH",
"105.33 41.919 OFFCURVE",
"105.001 38.857 OFFCURVE",
"105.001 35.862 CURVE SMOOTH",
"105.001 16.501 OFFCURVE",
"118.75 0 OFFCURVE",
"143 0 CURVE SMOOTH"
);
},
{
closed = 1;
nodes = (
"528 -7 OFFCURVE",
"608 58 OFFCURVE",
"625 139 CURVE SMOOTH",
"627.177 149.373 OFFCURVE",
"628.222 159.483 OFFCURVE",
"628.222 169.229 CURVE SMOOTH",
"628.222 235.582 OFFCURVE",
"579.755 285 OFFCURVE",
"510 285 CURVE SMOOTH",
"429 285 OFFCURVE",
"349 220 OFFCURVE",
"332 139 CURVE SMOOTH",
"329.825 128.637 OFFCURVE",
"328.78 118.537 OFFCURVE",
"328.78 108.801 CURVE SMOOTH",
"328.78 42.433 OFFCURVE",
"377.363 -7 OFFCURVE",
"448 -7 CURVE SMOOTH"
);
},
{
closed = 1;
nodes = (
"442.757 87 OFFCURVE",
"425.848 104.427 OFFCURVE",
"425.848 128.069 CURVE SMOOTH",
"425.848 131.587 OFFCURVE",
"426.223 135.243 OFFCURVE",
"427 139 CURVE SMOOTH",
"433 167 OFFCURVE",
"461 191 OFFCURVE",
"490 191 CURVE SMOOTH",
"514.362 191 OFFCURVE",
"531.154 172.831 OFFCURVE",
"531.154 149.667 CURVE SMOOTH",
"531.154 146.208 OFFCURVE",
"530.78 142.638 OFFCURVE",
"530 139 CURVE SMOOTH",
"524 110 OFFCURVE",
"496 87 OFFCURVE",
"468 87 CURVE SMOOTH"
);
},
{
closed = 1;
nodes = (
"315 383 OFFCURVE",
"395 449 OFFCURVE",
"412 530 CURVE SMOOTH",
"414.175 540.235 OFFCURVE",
"415.22 550.24 OFFCURVE",
"415.22 559.907 CURVE SMOOTH",
"415.22 625.807 OFFCURVE",
"366.637 676 OFFCURVE",
"296 676 CURVE SMOOTH",
"216 676 OFFCURVE",
"136 610 OFFCURVE",
"119 530 CURVE SMOOTH",
"116.823 519.627 OFFCURVE",
"115.778 509.5 OFFCURVE",
"115.778 499.726 CURVE SMOOTH",
"115.778 433.178 OFFCURVE",
"164.245 383 OFFCURVE",
"234 383 CURVE SMOOTH"
);
},
{
closed = 1;
nodes = (
"229.638 478 OFFCURVE",
"212.846 495.412 OFFCURVE",
"212.846 519.038 CURVE SMOOTH",
"212.846 522.566 OFFCURVE",
"213.22 526.232 OFFCURVE",
"214 530 CURVE SMOOTH",
"220 558 OFFCURVE",
"248 581 OFFCURVE",
"276 581 CURVE SMOOTH",
"301.243 581 OFFCURVE",
"318.152 563.573 OFFCURVE",
"318.152 540.591 CURVE SMOOTH",
"318.152 537.171 OFFCURVE",
"317.777 533.627 OFFCURVE",
"317 530 CURVE SMOOTH",
"311 501 OFFCURVE",
"283 478 OFFCURVE",
"254 478 CURVE SMOOTH"
);
}
);
userData = {
com.fontlab.hintData = {
hhints = (
{
position = -7;
width = 94;
},
{
position = 0;
width = 21;
},
{
position = 191;
width = 94;
},
{
position = 383;
width = 95;
},
{
position = 581;
width = 95;
}
);
vhints = (
{
position = 116;
width = 97;
},
{
position = 318;
width = 97;
},
{
position = 329;
width = 97;
},
{
position = 531;
width = 97;
}
);
};
};
width = 754;
}
);
unicode = 0025;
},
{
color = 4;
glyphname = ampersand;
lastChange = "2020-01-15 21:15:02 +0000";
layers = (
{
background = {
paths = (
{
closed = 1;
nodes = (
"287 -4 OFFCURVE",
"384 3 OFFCURVE",
"493 121 CURVE",
"566 6 LINE SMOOTH",
"569 2 OFFCURVE",
"574 0 OFFCURVE",
"579 0 CURVE SMOOTH",
"588 0 OFFCURVE",
"598 8 OFFCURVE",
"600 18 CURVE SMOOTH",
"601 22 OFFCURVE",
"600 25 OFFCURVE",
"598 29 CURVE SMOOTH",
"520 154 LINE",
"544 185 OFFCURVE",
"567 223 OFFCURVE",
"586 262 CURVE SMOOTH",
"592 273 OFFCURVE",
"594 278 OFFCURVE",
"594 279 CURVE SMOOTH",
"596 289 OFFCURVE",
"590 296 OFFCURVE",
"581 296 CURVE SMOOTH",
"568 296 OFFCURVE",
"564 290 OFFCURVE",
"554 270 CURVE SMOOTH",
"539 243 OFFCURVE",
"528 219 OFFCURVE",
"501 183 CURVE",
"375 385 LINE",
"485 438 OFFCURVE",
"541 485 OFFCURVE",
"557 564 CURVE SMOOTH",
"558.699 571.814 OFFCURVE",
"559.513 579.577 OFFCURVE",
"559.513 587.2 CURVE SMOOTH",
"559.513 646.889 OFFCURVE",
"509.62 698 OFFCURVE",
"444 698 CURVE SMOOTH",
"370 698 OFFCURVE",
"287 634 OFFCURVE",
"272 561 CURVE SMOOTH",
"269.923 551.652 OFFCURVE",
"268.99 542.217 OFFCURVE",
"268.99 532.801 CURVE SMOOTH",
"268.99 478.756 OFFCURVE",
"299.709 425.362 OFFCURVE",
"321 393 CURVE",
"223 345 OFFCURVE",
"124 292 OFFCURVE",
"99 178 CURVE",
"96.534 165.992 OFFCURVE",
"95.367 154.467 OFFCURVE",
"95.367 143.46 CURVE SMOOTH",
"95.367 51.795 OFFCURVE",
"176.292 -4 OFFCURVE",
"262 -4 CURVE SMOOTH"
);
},
{
closed = 1;
nodes = (
"209.713 31 OFFCURVE",
"131.866 68.119 OFFCURVE",
"131.866 148.88 CURVE SMOOTH",
"131.866 158.024 OFFCURVE",
"132.864 167.727 OFFCURVE",
"135 178 CURVE",
"157 278 OFFCURVE",
"237 319 OFFCURVE",
"341 368 CURVE",
"476 150 LINE",
"380 39 OFFCURVE",
"292 31 OFFCURVE",
"269 31 CURVE SMOOTH"
);
},
{
closed = 1;
nodes = (
"335.467 439.733 OFFCURVE",
"304.671 490.751 OFFCURVE",
"304.671 539.015 CURVE SMOOTH",
"304.671 546.44 OFFCURVE",
"305.4 553.8 OFFCURVE",
"307 561 CURVE SMOOTH",
"319 619 OFFCURVE",
"386 663 OFFCURVE",
"436 663 CURVE SMOOTH",
"485.157 663 OFFCURVE",
"524.728 622.261 OFFCURVE",
"524.728 577.908 CURVE SMOOTH",
"524.728 572.635 OFFCURVE",
"524.169 567.312 OFFCURVE",
"523 562 CURVE SMOOTH",
"514 522 OFFCURVE",
"504 477 OFFCURVE",
"358 412 CURVE"
);
}
);
};
layerId = master01;
paths = (
{
closed = 1;
nodes = (
"287 -4 OFFCURVE",
"384 3 OFFCURVE",
"493 121 CURVE",
"566 6 LINE SMOOTH",
"569 2 OFFCURVE",
"574 0 OFFCURVE",
"579 0 CURVE SMOOTH",
"588 0 OFFCURVE",
"598 8 OFFCURVE",
"600 18 CURVE SMOOTH",
"601 22 OFFCURVE",
"600 25 OFFCURVE",
"598 29 CURVE SMOOTH",
"520 154 LINE",
"544 185 OFFCURVE",
"567 223 OFFCURVE",
"586 262 CURVE SMOOTH",
"592 273 OFFCURVE",
"594 278 OFFCURVE",
"594 279 CURVE SMOOTH",
"596 289 OFFCURVE",
"590 296 OFFCURVE",
"581 296 CURVE SMOOTH",
"568 296 OFFCURVE",
"564 290 OFFCURVE",
"554 270 CURVE SMOOTH",
"539 243 OFFCURVE",
"528 219 OFFCURVE",
"501 183 CURVE",
"375 385 LINE",
"485 438 OFFCURVE",
"541 485 OFFCURVE",
"557 564 CURVE SMOOTH",
"558.699 571.814 OFFCURVE",
"559.513 579.577 OFFCURVE",
"559.513 587.2 CURVE SMOOTH",
"559.513 646.889 OFFCURVE",
"509.62 698 OFFCURVE",
"444 698 CURVE SMOOTH",
"370 698 OFFCURVE",
"287 634 OFFCURVE",
"272 561 CURVE SMOOTH",
"269.923 551.652 OFFCURVE",
"268.99 542.217 OFFCURVE",
"268.99 532.801 CURVE SMOOTH",
"268.99 478.756 OFFCURVE",
"299.709 425.362 OFFCURVE",
"321 393 CURVE",
"223 345 OFFCURVE",
"124 292 OFFCURVE",
"99 178 CURVE",
"96.534 165.992 OFFCURVE",
"95.367 154.467 OFFCURVE",
"95.367 143.46 CURVE SMOOTH",
"95.367 51.795 OFFCURVE",
"176.292 -4 OFFCURVE",
"262 -4 CURVE SMOOTH"
);
},
{
closed = 1;
nodes = (
"209.713 31 OFFCURVE",
"131.866 68.119 OFFCURVE",
"131.866 148.88 CURVE SMOOTH",
"131.866 158.024 OFFCURVE",
"132.864 167.727 OFFCURVE",
"135 178 CURVE",
"157 278 OFFCURVE",
"237 319 OFFCURVE",
"341 368 CURVE",
"476 150 LINE",
"380 39 OFFCURVE",
"292 31 OFFCURVE",
"269 31 CURVE SMOOTH"
);
},
{
closed = 1;
nodes = (
"335.467 439.733 OFFCURVE",
"304.671 490.751 OFFCURVE",
"304.671 539.015 CURVE SMOOTH",
"304.671 546.44 OFFCURVE",
"305.4 553.8 OFFCURVE",
"307 561 CURVE SMOOTH",
"319 619 OFFCURVE",
"386 663 OFFCURVE",
"436 663 CURVE SMOOTH",
"485.157 663 OFFCURVE",
"524.728 622.261 OFFCURVE",
"524.728 577.908 CURVE SMOOTH",
"524.728 572.635 OFFCURVE",
"524.169 567.312 OFFCURVE",
"523 562 CURVE SMOOTH",
"514 522 OFFCURVE",
"504 477 OFFCURVE",
"358 412 CURVE"
);
}
);
userData = {
com.fontlab.hintData = {
hhints = (
{
position = -4;
width = 35;
},
{
position = 0;
width = 21;
},
{
position = 663;
width = 35;
}
);
vhints = (
{
position = 95;
width = 36;
},
{
position = 269;
width = 36;
},
{
position = 525;
width = 35;
}
);
};
};
width = 650;
},
{
background = {
paths = (
{
closed = 1;
nodes = (
"233 -4 OFFCURVE",
"330 3 OFFCURVE",
"430 110 CURVE",
"493 10 LINE SMOOTH",
"496 4 OFFCURVE",
"504 0 OFFCURVE",
"512 0 CURVE SMOOTH",
"527 0 OFFCURVE",
"541 12 OFFCURVE",
"544 27 CURVE SMOOTH",
"546 33 OFFCURVE",
"544 40 OFFCURVE",
"542 44 CURVE SMOOTH",
"470 159 LINE",
"491 187 OFFCURVE",
"511 220 OFFCURVE",
"530 258 CURVE SMOOTH",
"537 272 OFFCURVE",
"538 276 OFFCURVE",
"539 278 CURVE SMOOTH",
"539.388 279.938 OFFCURVE",
"539.575 281.808 OFFCURVE",
"539.575 283.597 CURVE SMOOTH",
"539.575 295.658 OFFCURVE",
"531.062 304 OFFCURVE",
"518 304 CURVE SMOOTH",
"501 304 OFFCURVE",
"494 296 OFFCURVE",
"481 272 CURVE SMOOTH",
"468 246 OFFCURVE",
"456 223 OFFCURVE",
"442 204 CURVE",
"334 376 LINE",
"435 424 OFFCURVE",
"486 470 OFFCURVE",
"504 551 CURVE SMOOTH",
"505.627 558.703 OFFCURVE",
"506.407 566.372 OFFCURVE",
"506.407 573.921 CURVE SMOOTH",
"506.407 635.955 OFFCURVE",
"453.754 690 OFFCURVE",
"386 690 CURVE SMOOTH",
"310 690 OFFCURVE",
"225 623 OFFCURVE",
"209 548 CURVE SMOOTH",
"206.966 538.142 OFFCURVE",
"206.058 528.333 OFFCURVE",
"206.058 518.669 CURVE SMOOTH",
"206.058 466.571 OFFCURVE",
"232.442 418.68 OFFCURVE",
"251 390 CURVE",
"160 346 OFFCURVE",
"69 297 OFFCURVE",
"44 181 CURVE SMOOTH",
"41.358 168.45 OFFCURVE",
"40.109 156.42 OFFCURVE",
"40.109 144.949 CURVE SMOOTH",
"40.109 52.227 OFFCURVE",
"121.679 -4 OFFCURVE",
"208 -4 CURVE SMOOTH"
);
},
{
closed = 1;
nodes = (
"165.135 50 OFFCURVE",
"95.15 83.045 OFFCURVE",
"95.15 154.923 CURVE SMOOTH",
"95.15 163.109 OFFCURVE",
"96.057 171.798 OFFCURVE",
"98 181 CURVE SMOOTH",
"117 270 OFFCURVE",
"190 306 OFFCURVE",
"281 350 CURVE",
"403 153 LINE",
"319 56 OFFCURVE",
"240 50 OFFCURVE",
"219 50 CURVE SMOOTH"
);
},
{
closed = 1;
nodes = (
"286.919 441.285 OFFCURVE",
"261.068 485.88 OFFCURVE",
"261.068 528.603 CURVE SMOOTH",
"261.068 535.139 OFFCURVE",
"261.673 541.631 OFFCURVE",
"263 548 CURVE SMOOTH",
"274 598 OFFCURVE",
"332 636 OFFCURVE",
"375 636 CURVE SMOOTH",
"418.01 636 OFFCURVE",
"451.385 600.673 OFFCURVE",
"451.385 562.393 CURVE SMOOTH",
"451.385 557.952 OFFCURVE",
"450.936 553.47 OFFCURVE",
"450 549 CURVE SMOOTH",
"443 514 OFFCURVE",
"433 474 OFFCURVE",
"306 417 CURVE"
);
}
);
};
layerId = "ACFB53BD-70C1-480F-BE56-298851F5C10E";
paths = (
{
closed = 1;
nodes = (
"233 -4 OFFCURVE",
"330 3 OFFCURVE",
"430 110 CURVE",
"493 10 LINE SMOOTH",
"496 4 OFFCURVE",
"504 0 OFFCURVE",
"512 0 CURVE SMOOTH",
"527 0 OFFCURVE",
"541 12 OFFCURVE",
"544 27 CURVE SMOOTH",
"546 33 OFFCURVE",
"544 40 OFFCURVE",
"542 44 CURVE SMOOTH",
"470 159 LINE",
"491 187 OFFCURVE",
"511 220 OFFCURVE",
"530 258 CURVE SMOOTH",
"537 272 OFFCURVE",
"538 276 OFFCURVE",
"539 278 CURVE SMOOTH",
"539.388 279.938 OFFCURVE",
"539.575 281.808 OFFCURVE",
"539.575 283.597 CURVE SMOOTH",
"539.575 295.658 OFFCURVE",
"531.062 304 OFFCURVE",
"518 304 CURVE SMOOTH",
"501 304 OFFCURVE",
"494 296 OFFCURVE",
"481 272 CURVE SMOOTH",
"468 246 OFFCURVE",
"456 223 OFFCURVE",
"442 204 CURVE",
"334 376 LINE",
"435 424 OFFCURVE",
"486 470 OFFCURVE",
"504 551 CURVE SMOOTH",
"505.627 558.703 OFFCURVE",
"506.407 566.372 OFFCURVE",
"506.407 573.921 CURVE SMOOTH",
"506.407 635.955 OFFCURVE",
"453.754 690 OFFCURVE",
"386 690 CURVE SMOOTH",
"310 690 OFFCURVE",
"225 623 OFFCURVE",
"209 548 CURVE SMOOTH",
"206.966 538.142 OFFCURVE",
"206.058 528.333 OFFCURVE",
"206.058 518.669 CURVE SMOOTH",
"206.058 466.571 OFFCURVE",
"232.442 418.68 OFFCURVE",
"251 390 CURVE",
"160 346 OFFCURVE",
"69 297 OFFCURVE",
"44 181 CURVE SMOOTH",
"41.358 168.45 OFFCURVE",
"40.109 156.42 OFFCURVE",
"40.109 144.949 CURVE SMOOTH",
"40.109 52.227 OFFCURVE",
"121.679 -4 OFFCURVE",
"208 -4 CURVE SMOOTH"
);
},
{
closed = 1;
nodes = (
"165.135 50 OFFCURVE",
"95.15 83.045 OFFCURVE",
"95.15 154.923 CURVE SMOOTH",
"95.15 163.109 OFFCURVE",
"96.057 171.798 OFFCURVE",
"98 181 CURVE SMOOTH",
"117 270 OFFCURVE",
"190 306 OFFCURVE",
"281 350 CURVE",
"403 153 LINE",
"319 56 OFFCURVE",
"240 50 OFFCURVE",
"219 50 CURVE SMOOTH"
);
},
{
closed = 1;
nodes = (
"286.919 441.285 OFFCURVE",
"261.068 485.88 OFFCURVE",
"261.068 528.603 CURVE SMOOTH",
"261.068 535.139 OFFCURVE",
"261.673 541.631 OFFCURVE",
"263 548 CURVE SMOOTH",
"274 598 OFFCURVE",
"332 636 OFFCURVE",
"375 636 CURVE SMOOTH",
"418.01 636 OFFCURVE",
"451.385 600.673 OFFCURVE",
"451.385 562.393 CURVE SMOOTH",
"451.385 557.952 OFFCURVE",
"450.936 553.47 OFFCURVE",
"450 549 CURVE SMOOTH",
"443 514 OFFCURVE",
"433 474 OFFCURVE",
"306 417 CURVE"
);
}
);
userData = {
com.fontlab.hintData = {
hhints = (
{
position = -4;
width = 54;
},
{
position = 0;
width = 21;
},
{
position = 636;
width = 54;
}
);
vhints = (
{
position = 40;
width = 55;
},
{
position = 206;
width = 55;
},
{
position = 451;
width = 55;
}
);
};
};
width = 660;
},
{
background = {
paths = (
{
closed = 1;
nodes = (
"287 -4 OFFCURVE",
"357 34 OFFCURVE",
"412 87 CURVE",
"455 17 LINE SMOOTH",
"462 6 OFFCURVE",
"474 0 OFFCURVE",
"488 0 CURVE SMOOTH",
"514 0 OFFCURVE",
"539 21 OFFCURVE",
"544 47 CURVE",
"547 57 OFFCURVE",
"544 69 OFFCURVE",
"540 76 CURVE SMOOTH",
"483 170 LINE",
"504 201 OFFCURVE",
"535 250 OFFCURVE",
"540 275 CURVE SMOOTH",
"540.848 278.817 OFFCURVE",
"541.257 282.494 OFFCURVE",
"541.257 285.994 CURVE SMOOTH",
"541.257 307.255 OFFCURVE",
"526.183 322 OFFCURVE",
"503 322 CURVE SMOOTH",
"473 322 OFFCURVE",
"462 310 OFFCURVE",
"444 276 CURVE SMOOTH",
"431 251 LINE",
"366 358 LINE",
"446 401 OFFCURVE",
"492 448 OFFCURVE",
"508 523 CURVE SMOOTH",
"509.754 531.44 OFFCURVE",
"510.594 539.82 OFFCURVE",
"510.594 548.052 CURVE SMOOTH",
"510.594 614.919 OFFCURVE",
"455.122 672 OFFCURVE",
"383 672 CURVE SMOOTH",
"302 672 OFFCURVE",
"212 600 OFFCURVE",
"195 521 CURVE SMOOTH",
"192.677 509.385 OFFCURVE",
"191.647 498.126 OFFCURVE",
"191.647 487.262 CURVE SMOOTH",
"191.647 446.684 OFFCURVE",
"206.013 411.608 OFFCURVE",
"221 384 CURVE",
"144 344 OFFCURVE",
"67 291 OFFCURVE",
"45 187 CURVE SMOOTH",
"42.203 173.911 OFFCURVE",
"40.883 161.36 OFFCURVE",
"40.883 149.391 CURVE SMOOTH",
"40.883 54.369 OFFCURVE",
"124.075 -4 OFFCURVE",
"212 -4 CURVE SMOOTH"
);
},
{
closed = 1;
nodes = (
"190.565 91 OFFCURVE",
"136.96 115.341 OFFCURVE",
"136.96 168.408 CURVE SMOOTH",
"136.96 174.255 OFFCURVE",
"137.611 180.45 OFFCURVE",
"139 187 CURVE SMOOTH",
"152 247 OFFCURVE",
"207 280 OFFCURVE",
"272 312 CURVE",
"366 161 LINE",
"329 122 OFFCURVE",
"282 91 OFFCURVE",
"232 91 CURVE SMOOTH"
);
},
{
closed = 1;
nodes = (
"303.158 450.764 OFFCURVE",
"287.818 481.258 OFFCURVE",
"287.818 508.531 CURVE SMOOTH",
"287.818 512.782 OFFCURVE",
"288.191 516.955 OFFCURVE",
"289 521 CURVE SMOOTH",
"296 553 OFFCURVE",
"335 578 OFFCURVE",
"363 578 CURVE SMOOTH",
"391.778 578 OFFCURVE",
"414.894 555.355 OFFCURVE",
"414.894 529.703 CURVE SMOOTH",
"414.894 526.83 OFFCURVE",
"414.604 523.92 OFFCURVE",
"414 521 CURVE SMOOTH",
"409 498 OFFCURVE",
"402 471 OFFCURVE",
"317 430 CURVE"
);
}
);
};
layerId = "140D7E2C-8008-49AA-8FE3-CF6E53AFBA7D";
paths = (
{
closed = 1;
nodes = (
"287 -4 OFFCURVE",
"357 34 OFFCURVE",
"412 87 CURVE",
"455 17 LINE SMOOTH",
"462 6 OFFCURVE",
"474 0 OFFCURVE",
"488 0 CURVE SMOOTH",
"514 0 OFFCURVE",
"539 21 OFFCURVE",
"544 47 CURVE",
"547 57 OFFCURVE",
"544 69 OFFCURVE",
"540 76 CURVE SMOOTH",
"483 170 LINE",
"504 201 OFFCURVE",
"535 250 OFFCURVE",
"540 275 CURVE SMOOTH",
"540.848 278.817 OFFCURVE",
"541.257 282.494 OFFCURVE",
"541.257 285.994 CURVE SMOOTH",
"541.257 307.255 OFFCURVE",
"526.183 322 OFFCURVE",
"503 322 CURVE SMOOTH",
"473 322 OFFCURVE",
"462 310 OFFCURVE",
"444 276 CURVE SMOOTH",
"431 251 LINE",
"366 358 LINE",
"446 401 OFFCURVE",
"492 448 OFFCURVE",
"508 523 CURVE SMOOTH",
"509.754 531.44 OFFCURVE",
"510.594 539.82 OFFCURVE",
"510.594 548.052 CURVE SMOOTH",
"510.594 614.919 OFFCURVE",
"455.122 672 OFFCURVE",
"383 672 CURVE SMOOTH",
"302 672 OFFCURVE",
"212 600 OFFCURVE",
"195 521 CURVE SMOOTH",
"192.677 509.385 OFFCURVE",
"191.647 498.126 OFFCURVE",
"191.647 487.262 CURVE SMOOTH",
"191.647 446.684 OFFCURVE",
"206.013 411.608 OFFCURVE",
"221 384 CURVE",
"144 344 OFFCURVE",
"67 291 OFFCURVE",
"45 187 CURVE SMOOTH",
"42.203 173.911 OFFCURVE",
"40.883 161.36 OFFCURVE",
"40.883 149.391 CURVE SMOOTH",
"40.883 54.369 OFFCURVE",
"124.075 -4 OFFCURVE",
"212 -4 CURVE SMOOTH"
);
},
{
closed = 1;
nodes = (
"190.565 91 OFFCURVE",
"136.96 115.341 OFFCURVE",
"136.96 168.408 CURVE SMOOTH",
"136.96 174.255 OFFCURVE",
"137.611 180.45 OFFCURVE",
"139 187 CURVE SMOOTH",
"152 247 OFFCURVE",
"207 280 OFFCURVE",
"272 312 CURVE",
"366 161 LINE",
"329 122 OFFCURVE",
"282 91 OFFCURVE",
"232 91 CURVE SMOOTH"
);
},
{
closed = 1;
nodes = (
"303.158 450.764 OFFCURVE",
"287.818 481.258 OFFCURVE",
"287.818 508.531 CURVE SMOOTH",
"287.818 512.782 OFFCURVE",
"288.191 516.955 OFFCURVE",
"289 521 CURVE SMOOTH",
"296 553 OFFCURVE",
"335 578 OFFCURVE",
"363 578 CURVE SMOOTH",
"391.778 578 OFFCURVE",
"414.894 555.355 OFFCURVE",
"414.894 529.703 CURVE SMOOTH",
"414.894 526.83 OFFCURVE",
"414.604 523.92 OFFCURVE",
"414 521 CURVE SMOOTH",
"409 498 OFFCURVE",
"402 471 OFFCURVE",
"317 430 CURVE"
);
}
);
userData = {
com.fontlab.hintData = {
hhints = (
{
position = -4;
width = 95;
},
{
position = 0;
width = 21;
},
{
position = 578;
width = 94;
}
);
vhints = (
{
position = 41;
width = 96;
},
{
position = 192;
width = 96;
},
{
position = 415;
width = 96;
}
);
};
};
width = 686;
}
);
unicode = 0026;
},
{
color = 4;
glyphname = quotesingle;
lastChange = "2020-01-15 21:15:02 +0000";
layers = (
{
background = {
paths = (
{
closed = 1;
nodes = (
"213 521 OFFCURVE",
"224 529 OFFCURVE",
"226 540 CURVE SMOOTH",
"256 679 LINE SMOOTH",
"258 690 OFFCURVE",
"251 698 OFFCURVE",
"241 698 CURVE SMOOTH",
"231 698 OFFCURVE",
"220 690 OFFCURVE",
"218 679 CURVE SMOOTH",
"188 540 LINE SMOOTH",
"186 529 OFFCURVE",
"193 521 OFFCURVE",
"203 521 CURVE SMOOTH"
);
}
);
};
layerId = master01;
paths = (
{
closed = 1;
nodes = (
"213 521 OFFCURVE",
"224 529 OFFCURVE",
"226 540 CURVE SMOOTH",
"256 679 LINE SMOOTH",
"258 690 OFFCURVE",
"251 698 OFFCURVE",
"241 698 CURVE SMOOTH",
"231 698 OFFCURVE",
"220 690 OFFCURVE",
"218 679 CURVE SMOOTH",
"188 540 LINE SMOOTH",
"186 529 OFFCURVE",
"193 521 OFFCURVE",
"203 521 CURVE SMOOTH"
);
}
);
userData = {
com.fontlab.hintData = {
hhints = (
{
position = 521;
width = 177;
}
);
vhints = (
{
position = 188;
width = 68;
}
);
};
};
width = 179;
},
{
background = {
paths = (
{
closed = 1;
nodes = (
"163 500 OFFCURVE",
"178 512 OFFCURVE",
"182 528 CURVE SMOOTH",
"210 662 LINE SMOOTH",
"210.359 663.797 OFFCURVE",
"210.532 665.565 OFFCURVE",
"210.532 667.286 CURVE SMOOTH",
"210.532 679.928 OFFCURVE",
"201.203 690 OFFCURVE",
"188 690 CURVE SMOOTH",
"172 690 OFFCURVE",
"157 677 OFFCURVE",
"154 662 CURVE SMOOTH",
"126 528 LINE SMOOTH",
"125.403 525.612 OFFCURVE",
"125.118 523.314 OFFCURVE",
"125.118 521.131 CURVE SMOOTH",
"125.118 508.686 OFFCURVE",
"134.388 500 OFFCURVE",
"148 500 CURVE SMOOTH"
);
}
);
};
layerId = "ACFB53BD-70C1-480F-BE56-298851F5C10E";
paths = (
{
closed = 1;
nodes = (
"163 500 OFFCURVE",
"178 512 OFFCURVE",
"182 528 CURVE SMOOTH",
"210 662 LINE SMOOTH",
"210.359 663.797 OFFCURVE",
"210.532 665.565 OFFCURVE",
"210.532 667.286 CURVE SMOOTH",
"210.532 679.928 OFFCURVE",
"201.203 690 OFFCURVE",
"188 690 CURVE SMOOTH",
"172 690 OFFCURVE",
"157 677 OFFCURVE",
"154 662 CURVE SMOOTH",
"126 528 LINE SMOOTH",
"125.403 525.612 OFFCURVE",
"125.118 523.314 OFFCURVE",
"125.118 521.131 CURVE SMOOTH",
"125.118 508.686 OFFCURVE",
"134.388 500 OFFCURVE",
"148 500 CURVE SMOOTH"
);
}
);
userData = {
com.fontlab.hintData = {
hhints = (
{
position = 500;
width = 190;
}
);
vhints = (
{
position = 125;
width = 85;
}
);
};
};
width = 194;
},
{
background = {
paths = (
{
closed = 1;
nodes = (
"174 454 OFFCURVE",
"201 475 OFFCURVE",
"207 502 CURVE SMOOTH",
"233 624 LINE SMOOTH",
"233.756 627.277 OFFCURVE",
"234.115 630.49 OFFCURVE",
"234.115 633.604 CURVE SMOOTH",
"234.115 655.196 OFFCURVE",
"216.849 672 OFFCURVE",
"195 672 CURVE SMOOTH",
"168 672 OFFCURVE",
"143 650 OFFCURVE",
"137 624 CURVE SMOOTH",
"111 502 LINE SMOOTH",
"110.186 498.338 OFFCURVE",
"109.796 494.786 OFFCURVE",
"109.796 491.382 CURVE SMOOTH",
"109.796 469.69 OFFCURVE",
"125.662 454 OFFCURVE",
"149 454 CURVE SMOOTH"
);
}
);
};
layerId = "140D7E2C-8008-49AA-8FE3-CF6E53AFBA7D";
paths = (
{
closed = 1;
nodes = (
"174 454 OFFCURVE",
"201 475 OFFCURVE",
"207 502 CURVE SMOOTH",
"233 624 LINE SMOOTH",
"233.756 627.277 OFFCURVE",
"234.115 630.49 OFFCURVE",
"234.115 633.604 CURVE SMOOTH",
"234.115 655.196 OFFCURVE",
"216.849 672 OFFCURVE",
"195 672 CURVE SMOOTH",
"168 672 OFFCURVE",
"143 650 OFFCURVE",
"137 624 CURVE SMOOTH",
"111 502 LINE SMOOTH",
"110.186 498.338 OFFCURVE",
"109.796 494.786 OFFCURVE",
"109.796 491.382 CURVE SMOOTH",
"109.796 469.69 OFFCURVE",
"125.662 454 OFFCURVE",
"149 454 CURVE SMOOTH"
);
}
);
userData = {
com.fontlab.hintData = {
hhints = (
{
position = 454;
width = 218;
}
);
};
};
width = 230;
}
);
unicode = 0027;
},
{
color = 4;
glyphname = parenleft;
lastChange = "2020-01-15 21:15:02 +0000";
layers = (
{
background = {
paths = (
{
closed = 1;
nodes = (
"197 -113 OFFCURVE",
"208 -104 OFFCURVE",
"210 -95 CURVE SMOOTH",
"211 -90 OFFCURVE",
"211 -84 OFFCURVE",
"207 -80 CURVE SMOOTH",
"205 -78 OFFCURVE",
"116 42 OFFCURVE",
"116 228 CURVE SMOOTH",
"116 268 OFFCURVE",
"120 310 OFFCURVE",
"130 355 CURVE SMOOTH",
"185 612 OFFCURVE",
"398 771 OFFCURVE",
"403 775 CURVE SMOOTH",
"408 779 OFFCURVE",
"411 784 OFFCURVE",
"412 789 CURVE SMOOTH",
"414 799 OFFCURVE",
"408 808 OFFCURVE",
"398 808 CURVE SMOOTH",
"392 808 OFFCURVE",
"384 802 OFFCURVE",
"379 798 CURVE SMOOTH",
"245 687 OFFCURVE",
"127 522 OFFCURVE",
"92 355 CURVE SMOOTH",
"82 308 OFFCURVE",
"78 263 OFFCURVE",
"78 222 CURVE SMOOTH",
"78 48 OFFCURVE",
"151 -70 OFFCURVE",
"172 -104 CURVE",
"176 -108 OFFCURVE",
"181 -113 OFFCURVE",
"188 -113 CURVE SMOOTH"
);
}
);
};
layerId = master01;
paths = (
{
closed = 1;
nodes = (
"197 -113 OFFCURVE",
"208 -104 OFFCURVE",
"210 -95 CURVE SMOOTH",
"211 -90 OFFCURVE",
"211 -84 OFFCURVE",
"207 -80 CURVE SMOOTH",
"205 -78 OFFCURVE",
"116 42 OFFCURVE",
"116 228 CURVE SMOOTH",
"116 268 OFFCURVE",
"120 310 OFFCURVE",
"130 355 CURVE SMOOTH",
"185 612 OFFCURVE",
"398 771 OFFCURVE",
"403 775 CURVE SMOOTH",
"408 779 OFFCURVE",
"411 784 OFFCURVE",
"412 789 CURVE SMOOTH",
"414 799 OFFCURVE",
"408 808 OFFCURVE",
"398 808 CURVE SMOOTH",
"392 808 OFFCURVE",
"384 802 OFFCURVE",
"379 798 CURVE SMOOTH",
"245 687 OFFCURVE",
"127 522 OFFCURVE",
"92 355 CURVE SMOOTH",
"82 308 OFFCURVE",
"78 263 OFFCURVE",
"78 222 CURVE SMOOTH",
"78 48 OFFCURVE",
"151 -70 OFFCURVE",
"172 -104 CURVE",
"176 -108 OFFCURVE",
"181 -113 OFFCURVE",
"188 -113 CURVE SMOOTH"
);
}
);
userData = {
com.fontlab.hintData = {
vhints = (
{
position = 130;
width = 39;
}
);
};
};
width = 333;
},
{
background = {
paths = (
{
closed = 1;
nodes = (
"198 -108 OFFCURVE",
"214 -96 OFFCURVE",
"217 -81 CURVE SMOOTH",
"219 -73 OFFCURVE",
"217 -66 OFFCURVE",
"213 -60 CURVE SMOOTH",
"210.526 -57.526 OFFCURVE",
"127.116 54.45 OFFCURVE",
"127.116 230.493 CURVE SMOOTH",
"127.116 267.913 OFFCURVE",
"130.885 308.227 OFFCURVE",
"140 351 CURVE SMOOTH",
"191 592 OFFCURVE",
"392 743 OFFCURVE",
"397 746 CURVE SMOOTH",
"404.873 752.749 OFFCURVE",
"412.495 760.316 OFFCURVE",
"412.495 771.932 CURVE SMOOTH",
"412.495 784.739 OFFCURVE",
"402.326 795 OFFCURVE",
"389 795 CURVE SMOOTH",
"383 795 OFFCURVE",
"376 792 OFFCURVE",
"364 783 CURVE SMOOTH",
"230 678 OFFCURVE",
"120 522 OFFCURVE",
"84 351 CURVE SMOOTH",
"73.906 303.285 OFFCURVE",
"69.74 258.77 OFFCURVE",
"69.74 217.751 CURVE SMOOTH",
"69.74 35.255 OFFCURVE",
"152.202 -78.037 OFFCURVE",
"162 -96 CURVE SMOOTH",
"166 -102 OFFCURVE",
"173 -108 OFFCURVE",
"185 -108 CURVE SMOOTH"
);
}
);
};
layerId = "ACFB53BD-70C1-480F-BE56-298851F5C10E";
paths = (
{
closed = 1;
nodes = (
"198 -108 OFFCURVE",
"214 -96 OFFCURVE",
"217 -81 CURVE SMOOTH",
"219 -73 OFFCURVE",
"217 -66 OFFCURVE",
"213 -60 CURVE SMOOTH",
"210.526 -57.526 OFFCURVE",
"127.116 54.45 OFFCURVE",
"127.116 230.493 CURVE SMOOTH",
"127.116 267.913 OFFCURVE",
"130.885 308.227 OFFCURVE",
"140 351 CURVE SMOOTH",
"191 592 OFFCURVE",
"392 743 OFFCURVE",
"397 746 CURVE SMOOTH",
"404.873 752.749 OFFCURVE",
"412.495 760.316 OFFCURVE",
"412.495 771.932 CURVE SMOOTH",
"412.495 784.739 OFFCURVE",
"402.326 795 OFFCURVE",
"389 795 CURVE SMOOTH",
"383 795 OFFCURVE",
"376 792 OFFCURVE",
"364 783 CURVE SMOOTH",
"230 678 OFFCURVE",
"120 522 OFFCURVE",
"84 351 CURVE SMOOTH",
"73.906 303.285 OFFCURVE",
"69.74 258.77 OFFCURVE",
"69.74 217.751 CURVE SMOOTH",
"69.74 35.255 OFFCURVE",
"152.202 -78.037 OFFCURVE",
"162 -96 CURVE SMOOTH",
"166 -102 OFFCURVE",
"173 -108 OFFCURVE",
"185 -108 CURVE SMOOTH"
);
}
);
userData = {
com.fontlab.hintData = {
vhints = (
{
position = 70;
width = 57;
}
);
};
};
width = 369;
},
{
background = {
paths = (
{
closed = 1;
nodes = (
"207 -98 OFFCURVE",
"236 -77 OFFCURVE",
"242 -51 CURVE SMOOTH",
"242.766 -47.424 OFFCURVE",
"243.141 -43.978 OFFCURVE",
"243.141 -40.663 CURVE SMOOTH",
"243.141 -31 OFFCURVE",
"239.957 -22.446 OFFCURVE",
"234 -15 CURVE SMOOTH",
"195.661 37.141 OFFCURVE",
"160.262 129.85 OFFCURVE",
"160.262 238.783 CURVE SMOOTH",
"160.262 271.916 OFFCURVE",
"163.537 306.55 OFFCURVE",
"171 342 CURVE SMOOTH",
"200 477 OFFCURVE",
"294 615 OFFCURVE",
"391 682 CURVE",
"407 692 OFFCURVE",
"414 705 OFFCURVE",
"417 719 CURVE SMOOTH",
"417.816 722.538 OFFCURVE",
"418.207 726.02 OFFCURVE",
"418.207 729.396 CURVE SMOOTH",
"418.207 750.833 OFFCURVE",
"402.462 768 OFFCURVE",
"380 768 CURVE SMOOTH",
"370 768 OFFCURVE",
"357 763 OFFCURVE",
"340 750 CURVE SMOOTH",
"213 650 OFFCURVE",
"109 503 OFFCURVE",
"75 342 CURVE SMOOTH",
"65.627 297.871 OFFCURVE",
"61.745 256.449 OFFCURVE",
"61.745 218.068 CURVE SMOOTH",
"61.745 59.892 OFFCURVE",
"127.686 -46.615 OFFCURVE",
"147 -78 CURVE SMOOTH",
"154 -88 OFFCURVE",
"164 -98 OFFCURVE",
"184 -98 CURVE SMOOTH"
);
}
);
};
layerId = "140D7E2C-8008-49AA-8FE3-CF6E53AFBA7D";
paths = (
{
closed = 1;
nodes = (
"207 -98 OFFCURVE",
"236 -77 OFFCURVE",
"242 -51 CURVE SMOOTH",
"242.766 -47.424 OFFCURVE",
"243.141 -43.978 OFFCURVE",
"243.141 -40.663 CURVE SMOOTH",
"243.141 -31 OFFCURVE",
"239.957 -22.446 OFFCURVE",
"234 -15 CURVE SMOOTH",
"195.661 37.141 OFFCURVE",
"160.262 129.85 OFFCURVE",
"160.262 238.783 CURVE SMOOTH",
"160.262 271.916 OFFCURVE",
"163.537 306.55 OFFCURVE",
"171 342 CURVE SMOOTH",
"200 477 OFFCURVE",
"294 615 OFFCURVE",
"391 682 CURVE",
"407 692 OFFCURVE",
"414 705 OFFCURVE",
"417 719 CURVE SMOOTH",
"417.816 722.538 OFFCURVE",
"418.207 726.02 OFFCURVE",
"418.207 729.396 CURVE SMOOTH",
"418.207 750.833 OFFCURVE",
"402.462 768 OFFCURVE",
"380 768 CURVE SMOOTH",
"370 768 OFFCURVE",
"357 763 OFFCURVE",
"340 750 CURVE SMOOTH",
"213 650 OFFCURVE",
"109 503 OFFCURVE",
"75 342 CURVE SMOOTH",
"65.627 297.871 OFFCURVE",
"61.745 256.449 OFFCURVE",
"61.745 218.068 CURVE SMOOTH",
"61.745 59.892 OFFCURVE",
"127.686 -46.615 OFFCURVE",
"147 -78 CURVE SMOOTH",
"154 -88 OFFCURVE",
"164 -98 OFFCURVE",
"184 -98 CURVE SMOOTH"
);
}
);
userData = {
com.fontlab.hintData = {
vhints = (
{
position = 62;
width = 99;
}
);
};
};
width = 395;
}
);
unicode = 0028;
},
{
color = 4;
glyphname = parenright;
lastChange = "2020-01-15 21:15:02 +0000";
layers = (
{
background = {
paths = (
{
closed = 1;
nodes = (
"-4 -113 OFFCURVE",
"5 -108 OFFCURVE",
"9 -104 CURVE SMOOTH",
"53 -62 OFFCURVE",
"233 109 OFFCURVE",
"285 355 CURVE SMOOTH",
"293 393 OFFCURVE",
"297 431 OFFCURVE",
"297 469 CURVE SMOOTH",
"297 595 OFFCURVE",
"254 712 OFFCURVE",
"186 798 CURVE SMOOTH",
"183 802 OFFCURVE",
"177 808 OFFCURVE",
"171 808 CURVE SMOOTH",
"161 808 OFFCURVE",
"151 799 OFFCURVE",
"149 789 CURVE SMOOTH",
"148 784 OFFCURVE",
"149 779 OFFCURVE",
"152 775 CURVE SMOOTH",
"155 772 OFFCURVE",
"259 658 OFFCURVE",
"259 469 CURVE SMOOTH",
"259 433 OFFCURVE",
"256 395 OFFCURVE",
"247 355 CURVE SMOOTH",
"192 97 OFFCURVE",
"-12 -77 OFFCURVE",
"-16 -80 CURVE SMOOTH",
"-20 -84 OFFCURVE",
"-24 -90 OFFCURVE",
"-25 -95 CURVE SMOOTH",
"-27 -104 OFFCURVE",
"-20 -113 OFFCURVE",
"-11 -113 CURVE SMOOTH"
);
}
);
};
layerId = master01;
paths = (
{
closed = 1;
nodes = (
"-4 -113 OFFCURVE",
"5 -108 OFFCURVE",
"9 -104 CURVE SMOOTH",
"53 -62 OFFCURVE",
"233 109 OFFCURVE",
"285 355 CURVE SMOOTH",
"293 393 OFFCURVE",
"297 431 OFFCURVE",
"297 469 CURVE SMOOTH",
"297 595 OFFCURVE",
"254 712 OFFCURVE",
"186 798 CURVE SMOOTH",
"183 802 OFFCURVE",
"177 808 OFFCURVE",
"171 808 CURVE SMOOTH",
"161 808 OFFCURVE",
"151 799 OFFCURVE",
"149 789 CURVE SMOOTH",
"148 784 OFFCURVE",
"149 779 OFFCURVE",
"152 775 CURVE SMOOTH",
"155 772 OFFCURVE",
"259 658 OFFCURVE",
"259 469 CURVE SMOOTH",
"259 433 OFFCURVE",
"256 395 OFFCURVE",
"247 355 CURVE SMOOTH",
"192 97 OFFCURVE",
"-12 -77 OFFCURVE",
"-16 -80 CURVE SMOOTH",
"-20 -84 OFFCURVE",
"-24 -90 OFFCURVE",
"-25 -95 CURVE SMOOTH",
"-27 -104 OFFCURVE",
"-20 -113 OFFCURVE",
"-11 -113 CURVE SMOOTH"
);
}
);
userData = {
com.fontlab.hintData = {
vhints = (
{
position = 346;
width = 37;
}
);
};
};
width = 333;
},
{
background = {
paths = (
{
closed = 1;
nodes = (
"39 -108 OFFCURVE",
"48 -102 OFFCURVE",
"54 -96 CURVE SMOOTH",
"76 -74 OFFCURVE",
"267 91 OFFCURVE",
"322 351 CURVE SMOOTH",
"330.713 392.388 OFFCURVE",
"334.857 432.897 OFFCURVE",
"334.857 472.017 CURVE SMOOTH",
"334.857 594.527 OFFCURVE",
"294.217 703.414 OFFCURVE",
"226 783 CURVE SMOOTH",
"218 792 OFFCURVE",
"211 795 OFFCURVE",
"205 795 CURVE SMOOTH",
"190 795 OFFCURVE",
"175 782 OFFCURVE",
"172 767 CURVE SMOOTH",
"170 759 OFFCURVE",
"172 752 OFFCURVE",
"177 746 CURVE SMOOTH",
"179.53 743.47 OFFCURVE",
"277.365 635.678 OFFCURVE",
"277.365 457.412 CURVE SMOOTH",
"277.365 424.299 OFFCURVE",
"273.989 388.754 OFFCURVE",
"266 351 CURVE SMOOTH",
"214 107 OFFCURVE",
"22 -57 OFFCURVE",
"19 -60 CURVE SMOOTH",
"10.443 -66.418 OFFCURVE",
"4.535 -74.587 OFFCURVE",
"4.535 -85.622 CURVE SMOOTH",
"4.535 -98.391 OFFCURVE",
"15.367 -108 OFFCURVE",
"27 -108 CURVE SMOOTH"
);
}
);
};
layerId = "ACFB53BD-70C1-480F-BE56-298851F5C10E";
paths = (
{
closed = 1;
nodes = (
"39 -108 OFFCURVE",
"48 -102 OFFCURVE",
"54 -96 CURVE SMOOTH",
"76 -74 OFFCURVE",
"267 91 OFFCURVE",
"322 351 CURVE SMOOTH",
"330.713 392.388 OFFCURVE",
"334.857 432.897 OFFCURVE",
"334.857 472.017 CURVE SMOOTH",
"334.857 594.527 OFFCURVE",
"294.217 703.414 OFFCURVE",
"226 783 CURVE SMOOTH",
"218 792 OFFCURVE",
"211 795 OFFCURVE",
"205 795 CURVE SMOOTH",
"190 795 OFFCURVE",
"175 782 OFFCURVE",
"172 767 CURVE SMOOTH",
"170 759 OFFCURVE",
"172 752 OFFCURVE",
"177 746 CURVE SMOOTH",
"179.53 743.47 OFFCURVE",
"277.365 635.678 OFFCURVE",
"277.365 457.412 CURVE SMOOTH",
"277.365 424.299 OFFCURVE",
"273.989 388.754 OFFCURVE",
"266 351 CURVE SMOOTH",
"214 107 OFFCURVE",
"22 -57 OFFCURVE",
"19 -60 CURVE SMOOTH",
"10.443 -66.418 OFFCURVE",
"4.535 -74.587 OFFCURVE",
"4.535 -85.622 CURVE SMOOTH",
"4.535 -98.391 OFFCURVE",
"15.367 -108 OFFCURVE",
"27 -108 CURVE SMOOTH"
);
}
);
userData = {
com.fontlab.hintData = {
vhints = (
{
position = 277;
width = 57;
}
);
};
};
width = 369;
},
{
background = {
paths = (
{
closed = 1;
nodes = (
"62 -98 OFFCURVE",
"76 -88 OFFCURVE",
"87 -78 CURVE SMOOTH",
"127 -39 OFFCURVE",
"289 116 OFFCURVE",
"337 342 CURVE SMOOTH",
"345.198 380.821 OFFCURVE",
"349.094 418.827 OFFCURVE",
"349.094 455.557 CURVE SMOOTH",
"349.094 571.157 OFFCURVE",
"310.505 674.112 OFFCURVE",
"246 750 CURVE SMOOTH",
"235 763 OFFCURVE",
"224 768 OFFCURVE",
"214 768 CURVE SMOOTH",
"188 768 OFFCURVE",
"161 745 OFFCURVE",
"155 719 CURVE SMOOTH",
"154.265 715.57 OFFCURVE",
"153.89 712.2 OFFCURVE",
"153.89 708.92 CURVE SMOOTH",
"153.89 698.81 OFFCURVE",
"157.45 689.55 OFFCURVE",
"165 682 CURVE SMOOTH",
"217.655 630.872 OFFCURVE",
"251.092 538.397 OFFCURVE",
"251.092 437.462 CURVE SMOOTH",
"251.092 406.129 OFFCURVE",
"247.87 373.98 OFFCURVE",
"241 342 CURVE SMOOTH",
"209 190 OFFCURVE",
"106 53 OFFCURVE",
"26 -15 CURVE SMOOTH",
"14 -25 OFFCURVE",
"7 -37 OFFCURVE",
"4 -51 CURVE SMOOTH",
"3.295 -54.055 OFFCURVE",
"2.963 -57.041 OFFCURVE",
"2.963 -59.932 CURVE SMOOTH",
"2.963 -81.645 OFFCURVE",
"21.703 -98 OFFCURVE",
"42 -98 CURVE SMOOTH"
);
}
);
};
layerId = "140D7E2C-8008-49AA-8FE3-CF6E53AFBA7D";
paths = (
{
closed = 1;
nodes = (
"62 -98 OFFCURVE",
"76 -88 OFFCURVE",
"87 -78 CURVE SMOOTH",
"127 -39 OFFCURVE",
"289 116 OFFCURVE",
"337 342 CURVE SMOOTH",
"345.198 380.821 OFFCURVE",
"349.094 418.827 OFFCURVE",
"349.094 455.557 CURVE SMOOTH",
"349.094 571.157 OFFCURVE",
"310.505 674.112 OFFCURVE",
"246 750 CURVE SMOOTH",
"235 763 OFFCURVE",
"224 768 OFFCURVE",
"214 768 CURVE SMOOTH",
"188 768 OFFCURVE",
"161 745 OFFCURVE",
"155 719 CURVE SMOOTH",
"154.265 715.57 OFFCURVE",
"153.89 712.2 OFFCURVE",
"153.89 708.92 CURVE SMOOTH",
"153.89 698.81 OFFCURVE",
"157.45 689.55 OFFCURVE",
"165 682 CURVE SMOOTH",
"217.655 630.872 OFFCURVE",
"251.092 538.397 OFFCURVE",
"251.092 437.462 CURVE SMOOTH",
"251.092 406.129 OFFCURVE",
"247.87 373.98 OFFCURVE",
"241 342 CURVE SMOOTH",
"209 190 OFFCURVE",
"106 53 OFFCURVE",
"26 -15 CURVE SMOOTH",
"14 -25 OFFCURVE",
"7 -37 OFFCURVE",
"4 -51 CURVE SMOOTH",
"3.295 -54.055 OFFCURVE",
"2.963 -57.041 OFFCURVE",
"2.963 -59.932 CURVE SMOOTH",
"2.963 -81.645 OFFCURVE",
"21.703 -98 OFFCURVE",
"42 -98 CURVE SMOOTH"
);
}
);
userData = {
com.fontlab.hintData = {
vhints = (
{
position = 251;
width = 98;
}
);
};
};
width = 395;
}
);
unicode = 0029;
},
{
color = 4;
glyphname = asterisk;
lastChange = "2020-01-15 21:15:02 +0000";
layers = (
{
background = {
paths = (
{
closed = 1;
nodes = (
"146 457 OFFCURVE",
"150 460 OFFCURVE",
"154 463 CURVE SMOOTH",
"200 503 LINE SMOOTH",
"212 513 OFFCURVE",
"250 564 OFFCURVE",
"250 564 CURVE",
"250 564 OFFCURVE",
"266 513 OFFCURVE",
"273 503 CURVE SMOOTH",
"301 463 LINE SMOOTH",
"303 460 OFFCURVE",
"307 457 OFFCURVE",
"313 457 CURVE SMOOTH",
"321 457 OFFCURVE",
"330 465 OFFCURVE",
"332 475 CURVE",
"334 480 OFFCURVE",
"334 485 OFFCURVE",
"331 489 CURVE SMOOTH",
"305 525 LINE SMOOTH",
"292 543 OFFCURVE",
"260 569 OFFCURVE",
"258 570 CURVE",
"263 570 OFFCURVE",
"319 580 OFFCURVE",
"332 588 CURVE",
"372 605 LINE",
"371 605 LINE",
"378 609 OFFCURVE",
"382 615 OFFCURVE",
"383 621 CURVE SMOOTH",
"385 628 OFFCURVE",
"380 638 OFFCURVE",
"370 638 CURVE SMOOTH",
"365 638 OFFCURVE",
"363 637 OFFCURVE",
"360 636 CURVE SMOOTH",
"327 621 LINE",
"328 621 LINE",
"310 612 OFFCURVE",
"257 577 OFFCURVE",
"257 577 CURVE",
"257 577 OFFCURVE",
"283 638 OFFCURVE",
"286 652 CURVE SMOOTH",
"292 680 LINE SMOOTH",
"294 690 OFFCURVE",
"288 698 OFFCURVE",
"278 698 CURVE SMOOTH",
"269 698 OFFCURVE",
"258 690 OFFCURVE",
"256 680 CURVE SMOOTH",
"250 652 LINE SMOOTH",
"247 638 OFFCURVE",
"247 577 OFFCURVE",
"247 577 CURVE",
"247 577 OFFCURVE",
"210 612 OFFCURVE",
"194 621 CURVE",
"195 621 LINE",
"170 636 LINE SMOOTH",
"167 637 OFFCURVE",
"164 638 OFFCURVE",
"160 638 CURVE SMOOTH",
"151 638 OFFCURVE",
"141 628 OFFCURVE",
"139 621 CURVE SMOOTH",
"138 615 OFFCURVE",
"140 609 OFFCURVE",
"146 605 CURVE",
"145 605 LINE",
"155 600 OFFCURVE",
"165 593 OFFCURVE",
"175 588 CURVE",
"185 581 OFFCURVE",
"240 570 OFFCURVE",
"243 570 CURVE",
"239 567 OFFCURVE",
"193 541 OFFCURVE",
"177 525 CURVE",
"135 489 LINE",
"132 485 OFFCURVE",
"130 480 OFFCURVE",
"128 475 CURVE",
"126 465 OFFCURVE",
"133 457 OFFCURVE",
"142 457 CURVE SMOOTH"
);
}
);
};
layerId = master01;
paths = (
{
closed = 1;
nodes = (
"152 456 OFFCURVE",
"164 460 OFFCURVE",
"172 468 CURVE SMOOTH",
"192 490 LINE SMOOTH",
"211 511 OFFCURVE",
"227 532 OFFCURVE",
"246 565 CURVE",
"252 533 OFFCURVE",
"259 511 OFFCURVE",
"269 490 CURVE SMOOTH",
"279 469 LINE SMOOTH",
"284 459 OFFCURVE",
"294 457 OFFCURVE",
"304 463 CURVE SMOOTH",
"314 469 OFFCURVE",
"318 480 OFFCURVE",
"312 490 CURVE SMOOTH",
"300 510 LINE SMOOTH",
"288 530 OFFCURVE",
"275 547 OFFCURVE",
"253 569 CURVE",
"288 571 OFFCURVE",
"314 576 OFFCURVE",
"341 583 CURVE SMOOTH",
"367 590 LINE SMOOTH",
"379 593 OFFCURVE",
"386 604 OFFCURVE",
"386 614 CURVE SMOOTH",
"386 623 OFFCURVE",
"376 629 OFFCURVE",
"363 625 CURVE SMOOTH",
"337 616 LINE SMOOTH",
"312 607 OFFCURVE",
"286 596 OFFCURVE",
"253 577 CURVE",
"269 611 OFFCURVE",
"278 636 OFFCURVE",
"284 661 CURVE SMOOTH",
"290 687 LINE SMOOTH",
"293 699 OFFCURVE",
"286 707 OFFCURVE",
"276 707 CURVE SMOOTH",
"266 707 OFFCURVE",
"256 699 OFFCURVE",
"254 687 CURVE SMOOTH",
"250 661 LINE SMOOTH",
"246 636 OFFCURVE",
"242 611 OFFCURVE",
"244 577 CURVE",
"218 596 OFFCURVE",
"199 607 OFFCURVE",
"178 615 CURVE SMOOTH",
"155 624 LINE SMOOTH",
"145 628 OFFCURVE",
"133 623 OFFCURVE",
"128 613 CURVE SMOOTH",
"123 604 OFFCURVE",
"126 593 OFFCURVE",
"136 590 CURVE SMOOTH",
"160 583 LINE SMOOTH",
"182 577 OFFCURVE",
"205 571 OFFCURVE",
"240 569 CURVE",
"208 547 OFFCURVE",
"188 531 OFFCURVE",
"168 510 CURVE SMOOTH",
"148 489 LINE SMOOTH",
"139 480 OFFCURVE",
"139 469 OFFCURVE",
"145 463 CURVE SMOOTH"
);
}
);
userData = {
com.fontlab.hintData = {
hhints = (
{
position = 457;
width = 241;
}
);
vhints = (
{
position = 316;
width = 36;
}
);
};
};
width = 359;
},
{
background = {
paths = (
{
closed = 1;
nodes = (
"160 439 OFFCURVE",
"167 442 OFFCURVE",
"174 448 CURVE SMOOTH",
"217 486 LINE SMOOTH",
"230 498 OFFCURVE",
"254 527 OFFCURVE",
"254 527 CURVE",
"254 527 OFFCURVE",
"264 498 OFFCURVE",
"273 486 CURVE SMOOTH",
"300 448 LINE",
"303 442 OFFCURVE",
"310 439 OFFCURVE",
"317 439 CURVE SMOOTH",
"330 439 OFFCURVE",
"345 450 OFFCURVE",
"349 466 CURVE SMOOTH",
"350 473 OFFCURVE",
"350 480 OFFCURVE",
"346 486 CURVE SMOOTH",
"321 521 LINE SMOOTH",
"311 536 OFFCURVE",
"292 551 OFFCURVE",
"292 551 CURVE",
"292 551 OFFCURVE",
"325 557 OFFCURVE",
"342 565 CURVE SMOOTH",
"378 582 LINE SMOOTH",
"388 587 OFFCURVE",
"395 596 OFFCURVE",
"397 606 CURVE SMOOTH",
"397.42 607.679 OFFCURVE",
"397.624 609.397 OFFCURVE",
"397.624 611.111 CURVE SMOOTH",
"397.624 621.644 OFFCURVE",
"389.901 632 OFFCURVE",
"377 632 CURVE SMOOTH",
"371 632 OFFCURVE",
"367 631 OFFCURVE",
"362 629 CURVE SMOOTH",
"331 615 LINE SMOOTH",
"315 607 OFFCURVE",
"289 589 OFFCURVE",
"289 589 CURVE",
"289 589 OFFCURVE",
"300 618 OFFCURVE",
"304 636 CURVE SMOOTH",
"309 663 LINE",
"309.6 665.251 OFFCURVE",
"309.885 667.435 OFFCURVE",
"309.885 669.521 CURVE SMOOTH",
"309.885 681.332 OFFCURVE",
"300.749 690 OFFCURVE",
"288 690 CURVE SMOOTH",
"273 690 OFFCURVE",
"259 678 OFFCURVE",
"255 663 CURVE",
"250 636 LINE SMOOTH",
"246 618 OFFCURVE",
"245 589 OFFCURVE",
"245 589 CURVE",
"245 589 OFFCURVE",
"227 607 OFFCURVE",
"213 615 CURVE SMOOTH",
"188 629 LINE SMOOTH",
"185 631 OFFCURVE",
"181 632 OFFCURVE",
"175 632 CURVE SMOOTH",
"160 632 OFFCURVE",
"146 618 OFFCURVE",
"143 606 CURVE SMOOTH",
"141 596 OFFCURVE",
"144 587 OFFCURVE",
"152 582 CURVE SMOOTH",
"182 565 LINE SMOOTH",
"195 557 OFFCURVE",
"226 551 OFFCURVE",
"226 551 CURVE",
"226 551 OFFCURVE",
"199 536 OFFCURVE",
"183 521 CURVE SMOOTH",
"144 486 LINE SMOOTH",
"138 480 OFFCURVE",
"134 473 OFFCURVE",
"133 466 CURVE SMOOTH",
"132.432 463.727 OFFCURVE",
"132.166 461.554 OFFCURVE",
"132.166 459.5 CURVE SMOOTH",
"132.166 447.096 OFFCURVE",
"141.847 439 OFFCURVE",
"153 439 CURVE SMOOTH"
);
}
);
};
layerId = "ACFB53BD-70C1-480F-BE56-298851F5C10E";
paths = (
{
closed = 1;
nodes = (
"160 439 OFFCURVE",
"167 442 OFFCURVE",
"174 448 CURVE SMOOTH",
"217 486 LINE SMOOTH",
"230 498 OFFCURVE",
"254 527 OFFCURVE",
"254 527 CURVE",
"254 527 OFFCURVE",
"264 498 OFFCURVE",
"273 486 CURVE SMOOTH",
"300 448 LINE",
"303 442 OFFCURVE",
"310 439 OFFCURVE",
"317 439 CURVE SMOOTH",
"330 439 OFFCURVE",
"345 450 OFFCURVE",
"349 466 CURVE SMOOTH",
"350 473 OFFCURVE",
"350 480 OFFCURVE",
"346 486 CURVE SMOOTH",
"321 521 LINE SMOOTH",
"311 536 OFFCURVE",
"292 551 OFFCURVE",
"292 551 CURVE",
"292 551 OFFCURVE",
"325 557 OFFCURVE",
"342 565 CURVE SMOOTH",
"378 582 LINE SMOOTH",
"388 587 OFFCURVE",
"395 596 OFFCURVE",
"397 606 CURVE SMOOTH",
"397.42 607.679 OFFCURVE",
"397.624 609.397 OFFCURVE",
"397.624 611.111 CURVE SMOOTH",
"397.624 621.644 OFFCURVE",
"389.901 632 OFFCURVE",
"377 632 CURVE SMOOTH",
"371 632 OFFCURVE",
"367 631 OFFCURVE",
"362 629 CURVE SMOOTH",
"331 615 LINE SMOOTH",
"315 607 OFFCURVE",
"289 589 OFFCURVE",
"289 589 CURVE",
"289 589 OFFCURVE",
"300 618 OFFCURVE",
"304 636 CURVE SMOOTH",
"309 663 LINE",
"309.6 665.251 OFFCURVE",
"309.885 667.435 OFFCURVE",
"309.885 669.521 CURVE SMOOTH",
"309.885 681.332 OFFCURVE",
"300.749 690 OFFCURVE",
"288 690 CURVE SMOOTH",
"273 690 OFFCURVE",
"259 678 OFFCURVE",
"255 663 CURVE",
"250 636 LINE SMOOTH",
"246 618 OFFCURVE",
"245 589 OFFCURVE",
"245 589 CURVE",
"245 589 OFFCURVE",
"227 607 OFFCURVE",
"213 615 CURVE SMOOTH",
"188 629 LINE SMOOTH",
"185 631 OFFCURVE",
"181 632 OFFCURVE",
"175 632 CURVE SMOOTH",
"160 632 OFFCURVE",
"146 618 OFFCURVE",
"143 606 CURVE SMOOTH",
"141 596 OFFCURVE",
"144 587 OFFCURVE",
"152 582 CURVE SMOOTH",
"182 565 LINE SMOOTH",
"195 557 OFFCURVE",
"226 551 OFFCURVE",
"226 551 CURVE",
"226 551 OFFCURVE",
"199 536 OFFCURVE",
"183 521 CURVE SMOOTH",
"144 486 LINE SMOOTH",
"138 480 OFFCURVE",
"134 473 OFFCURVE",
"133 466 CURVE SMOOTH",
"132.432 463.727 OFFCURVE",
"132.166 461.554 OFFCURVE",
"132.166 459.5 CURVE SMOOTH",
"132.166 447.096 OFFCURVE",
"141.847 439 OFFCURVE",
"153 439 CURVE SMOOTH"
);
}
);
userData = {
com.fontlab.hintData = {
hhints = (
{
position = 582;
width = 50;
},
{
position = 670;
width = 20;
}
);
vhints = (
{
position = 132;
width = 265;
}
);
};
};
width = 397;
},
{
background = {
paths = (
{
closed = 1;
nodes = (
"199 421 OFFCURVE",
"214 427 OFFCURVE",
"226 440 CURVE SMOOTH",
"243 458 LINE",
"253 441 LINE SMOOTH",
"261 429 OFFCURVE",
"270 421 OFFCURVE",
"286 421 CURVE SMOOTH",
"312 421 OFFCURVE",
"338 444 OFFCURVE",
"343 468 CURVE SMOOTH",
"345 478 OFFCURVE",
"344 487 OFFCURVE",
"340 496 CURVE SMOOTH",
"332 514 LINE",
"354 521 LINE SMOOTH",
"375 527 OFFCURVE",
"392 546 OFFCURVE",
"396 566 CURVE SMOOTH",
"396.758 569.539 OFFCURVE",
"397.117 572.918 OFFCURVE",
"397.117 576.121 CURVE SMOOTH",
"397.117 598.262 OFFCURVE",
"379.967 612 OFFCURVE",
"359 612 CURVE SMOOTH",
"355 612 OFFCURVE",
"352 612 OFFCURVE",
"344 610 CURVE SMOOTH",
"321 603 LINE",
"325 625 LINE SMOOTH",
"325.816 628.538 OFFCURVE",
"326.207 631.983 OFFCURVE",
"326.207 635.295 CURVE SMOOTH",
"326.207 656.326 OFFCURVE",
"310.462 672 OFFCURVE",
"288 672 CURVE SMOOTH",
"262 672 OFFCURVE",
"237 651 OFFCURVE",
"231 625 CURVE SMOOTH",
"227 603 LINE",
"207 609 LINE SMOOTH",
"200 611 OFFCURVE",
"197 611 OFFCURVE",
"192 611 CURVE SMOOTH",
"169 611 OFFCURVE",
"143 593 OFFCURVE",
"137 565 CURVE SMOOTH",
"136.024 561.095 OFFCURVE",
"135.543 557.229 OFFCURVE",
"135.543 553.489 CURVE SMOOTH",
"135.543 538.076 OFFCURVE",
"143.71 524.829 OFFCURVE",
"159 520 CURVE SMOOTH",
"179 513 LINE",
"162 496 LINE SMOOTH",
"154 488 OFFCURVE",
"149 478 OFFCURVE",
"147 469 CURVE SMOOTH",
"146.387 465.934 OFFCURVE",
"146.09 462.899 OFFCURVE",
"146.09 459.932 CURVE SMOOTH",
"146.09 438.705 OFFCURVE",
"161.311 421 OFFCURVE",
"185 421 CURVE SMOOTH"
);
}
);
};
layerId = "140D7E2C-8008-49AA-8FE3-CF6E53AFBA7D";
paths = (
{
closed = 1;
nodes = (
"199 421 OFFCURVE",
"214 427 OFFCURVE",
"226 440 CURVE SMOOTH",
"243 458 LINE",
"253 441 LINE SMOOTH",
"261 429 OFFCURVE",
"270 421 OFFCURVE",
"286 421 CURVE SMOOTH",
"312 421 OFFCURVE",
"338 444 OFFCURVE",
"343 468 CURVE SMOOTH",
"345 478 OFFCURVE",
"344 487 OFFCURVE",
"340 496 CURVE SMOOTH",
"332 514 LINE",
"354 521 LINE SMOOTH",
"375 527 OFFCURVE",
"392 546 OFFCURVE",
"396 566 CURVE SMOOTH",
"396.758 569.539 OFFCURVE",
"397.117 572.918 OFFCURVE",
"397.117 576.121 CURVE SMOOTH",
"397.117 598.262 OFFCURVE",
"379.967 612 OFFCURVE",
"359 612 CURVE SMOOTH",
"355 612 OFFCURVE",
"352 612 OFFCURVE",
"344 610 CURVE SMOOTH",
"321 603 LINE",
"325 625 LINE SMOOTH",
"325.816 628.538 OFFCURVE",
"326.207 631.983 OFFCURVE",
"326.207 635.295 CURVE SMOOTH",
"326.207 656.326 OFFCURVE",
"310.462 672 OFFCURVE",
"288 672 CURVE SMOOTH",
"262 672 OFFCURVE",
"237 651 OFFCURVE",
"231 625 CURVE SMOOTH",
"227 603 LINE",
"207 609 LINE SMOOTH",
"200 611 OFFCURVE",
"197 611 OFFCURVE",
"192 611 CURVE SMOOTH",
"169 611 OFFCURVE",
"143 593 OFFCURVE",
"137 565 CURVE SMOOTH",
"136.024 561.095 OFFCURVE",
"135.543 557.229 OFFCURVE",
"135.543 553.489 CURVE SMOOTH",
"135.543 538.076 OFFCURVE",
"143.71 524.829 OFFCURVE",
"159 520 CURVE SMOOTH",
"179 513 LINE",
"162 496 LINE SMOOTH",
"154 488 OFFCURVE",
"149 478 OFFCURVE",
"147 469 CURVE SMOOTH",
"146.387 465.934 OFFCURVE",
"146.09 462.899 OFFCURVE",
"146.09 459.932 CURVE SMOOTH",
"146.09 438.705 OFFCURVE",
"161.311 421 OFFCURVE",
"185 421 CURVE SMOOTH"
);
}
);
userData = {
com.fontlab.hintData = {
hhints = (
{
position = 421;
width = 251;
}
);
};
};
width = 423;
}
);
unicode = 002A;
},
{
color = 4;
glyphname = plus;
lastChange = "2020-01-15 21:15:02 +0000";
layers = (
{
background = {
paths = (
{
closed = 1;
nodes = (
"193 89 OFFCURVE",
"203 97 OFFCURVE",
"205 106 CURVE SMOOTH",
"232 233 LINE",
"362 233 LINE SMOOTH",
"371 233 OFFCURVE",
"381 242 OFFCURVE",
"383 251 CURVE SMOOTH",
"385 261 OFFCURVE",
"379 269 OFFCURVE",
"370 269 CURVE SMOOTH",
"240 269 LINE",
"265 386 LINE",
"266 395 OFFCURVE",
"260 403 OFFCURVE",
"251 403 CURVE SMOOTH",
"241 403 OFFCURVE",
"231 395 OFFCURVE",
"230 386 CURVE",
"205 269 LINE",
"77 269 LINE SMOOTH",
"67 269 OFFCURVE",
"57 261 OFFCURVE",
"55 251 CURVE SMOOTH",
"53 242 OFFCURVE",
"59 233 OFFCURVE",
"69 233 CURVE SMOOTH",
"197 233 LINE",
"170 106 LINE SMOOTH",
"168 97 OFFCURVE",
"174 89 OFFCURVE",
"184 89 CURVE SMOOTH"
);
}
);
};
layerId = master01;
paths = (
{
closed = 1;
nodes = (
"193 89 OFFCURVE",
"203 97 OFFCURVE",
"205 106 CURVE SMOOTH",
"232 233 LINE",
"362 233 LINE SMOOTH",
"371 233 OFFCURVE",
"381 242 OFFCURVE",
"383 251 CURVE SMOOTH",
"385 261 OFFCURVE",
"379 269 OFFCURVE",
"370 269 CURVE SMOOTH",
"240 269 LINE",
"265 386 LINE",
"266 395 OFFCURVE",
"260 403 OFFCURVE",
"251 403 CURVE SMOOTH",
"241 403 OFFCURVE",
"231 395 OFFCURVE",
"230 386 CURVE",
"205 269 LINE",
"77 269 LINE SMOOTH",
"67 269 OFFCURVE",
"57 261 OFFCURVE",
"55 251 CURVE SMOOTH",
"53 242 OFFCURVE",
"59 233 OFFCURVE",
"69 233 CURVE SMOOTH",
"197 233 LINE",
"170 106 LINE SMOOTH",
"168 97 OFFCURVE",
"174 89 OFFCURVE",
"184 89 CURVE SMOOTH"
);
}
);
userData = {
com.fontlab.hintData = {
hhints = (
{
position = 233;
width = 36;
}
);
vhints = (
{
position = 110;
width = 328;
}
);
};
};
width = 438;
},
{
background = {
paths = (
{
closed = 1;
nodes = (
"199 85 OFFCURVE",
"213 97 OFFCURVE",
"216 112 CURVE SMOOTH",
"240 224 LINE",
"354 224 LINE SMOOTH",
"369 224 OFFCURVE",
"384 236 OFFCURVE",
"387 251 CURVE SMOOTH",
"387.388 252.938 OFFCURVE",
"387.575 254.825 OFFCURVE",
"387.575 256.643 CURVE SMOOTH",
"387.575 268.9 OFFCURVE",
"379.062 278 OFFCURVE",
"366 278 CURVE SMOOTH",
"252 278 LINE",
"273 380 LINE SMOOTH",
"273.388 381.938 OFFCURVE",
"273.575 383.825 OFFCURVE",
"273.575 385.643 CURVE SMOOTH",
"273.575 397.9 OFFCURVE",
"265.062 407 OFFCURVE",
"252 407 CURVE SMOOTH",
"237 407 OFFCURVE",
"222 395 OFFCURVE",
"219 380 CURVE SMOOTH",
"198 278 LINE",
"85 278 LINE SMOOTH",
"70 278 OFFCURVE",
"55 266 OFFCURVE",
"52 251 CURVE SMOOTH",
"51.612 249.062 OFFCURVE",
"51.425 247.175 OFFCURVE",
"51.425 245.357 CURVE SMOOTH",
"51.425 233.1 OFFCURVE",
"59.938 224 OFFCURVE",
"73 224 CURVE SMOOTH",
"186 224 LINE",
"162 112 LINE SMOOTH",
"161.641 110.203 OFFCURVE",
"161.468 108.449 OFFCURVE",
"161.468 106.754 CURVE SMOOTH",
"161.468 94.297 OFFCURVE",
"170.797 85 OFFCURVE",
"184 85 CURVE SMOOTH"
);
}
);
};
layerId = "ACFB53BD-70C1-480F-BE56-298851F5C10E";
paths = (
{
closed = 1;
nodes = (
"199 85 OFFCURVE",
"213 97 OFFCURVE",
"216 112 CURVE SMOOTH",
"240 224 LINE",
"354 224 LINE SMOOTH",
"369 224 OFFCURVE",
"384 236 OFFCURVE",
"387 251 CURVE SMOOTH",
"387.388 252.938 OFFCURVE",
"387.575 254.825 OFFCURVE",
"387.575 256.643 CURVE SMOOTH",
"387.575 268.9 OFFCURVE",
"379.062 278 OFFCURVE",
"366 278 CURVE SMOOTH",
"252 278 LINE",
"273 380 LINE SMOOTH",
"273.388 381.938 OFFCURVE",
"273.575 383.825 OFFCURVE",
"273.575 385.643 CURVE SMOOTH",
"273.575 397.9 OFFCURVE",
"265.062 407 OFFCURVE",
"252 407 CURVE SMOOTH",
"237 407 OFFCURVE",
"222 395 OFFCURVE",
"219 380 CURVE SMOOTH",
"198 278 LINE",
"85 278 LINE SMOOTH",
"70 278 OFFCURVE",
"55 266 OFFCURVE",
"52 251 CURVE SMOOTH",
"51.612 249.062 OFFCURVE",
"51.425 247.175 OFFCURVE",
"51.425 245.357 CURVE SMOOTH",
"51.425 233.1 OFFCURVE",
"59.938 224 OFFCURVE",
"73 224 CURVE SMOOTH",
"186 224 LINE",
"162 112 LINE SMOOTH",
"161.641 110.203 OFFCURVE",
"161.468 108.449 OFFCURVE",
"161.468 106.754 CURVE SMOOTH",
"161.468 94.297 OFFCURVE",
"170.797 85 OFFCURVE",
"184 85 CURVE SMOOTH"
);
}
);
userData = {
com.fontlab.hintData = {
hhints = (
{
position = 224;
width = 54;
}
);
};
};
width = 443;
},
{
background = {
paths = (
{
closed = 1;
nodes = (
"211 77 OFFCURVE",
"236 98 OFFCURVE",
"242 124 CURVE SMOOTH",
"259 203 LINE",
"340 203 LINE SMOOTH",
"366 203 OFFCURVE",
"391 224 OFFCURVE",
"397 251 CURVE SMOOTH",
"397.615 254.198 OFFCURVE",
"397.912 257.321 OFFCURVE",
"397.912 260.338 CURVE SMOOTH",
"397.912 281.849 OFFCURVE",
"382.802 298 OFFCURVE",
"360 298 CURVE SMOOTH",
"279 298 LINE",
"294 368 LINE SMOOTH",
"294.615 371.198 OFFCURVE",
"294.912 374.321 OFFCURVE",
"294.912 377.338 CURVE SMOOTH",
"294.912 398.849 OFFCURVE",
"279.802 415 OFFCURVE",
"257 415 CURVE SMOOTH",
"231 415 OFFCURVE",
"205 394 OFFCURVE",
"200 368 CURVE SMOOTH",
"185 298 LINE",
"105 298 LINE SMOOTH",
"78 298 OFFCURVE",
"52 277 OFFCURVE",
"47 251 CURVE SMOOTH",
"46.186 247.338 OFFCURVE",
"45.795 243.786 OFFCURVE",
"45.795 240.382 CURVE SMOOTH",
"45.795 218.69 OFFCURVE",
"61.662 203 OFFCURVE",
"85 203 CURVE SMOOTH",
"165 203 LINE",
"148 124 LINE SMOOTH",
"147.184 120.462 OFFCURVE",
"146.793 117.017 OFFCURVE",
"146.793 113.705 CURVE SMOOTH",
"146.793 92.674 OFFCURVE",
"162.538 77 OFFCURVE",
"185 77 CURVE SMOOTH"
);
}
);
};
layerId = "140D7E2C-8008-49AA-8FE3-CF6E53AFBA7D";
paths = (
{
closed = 1;
nodes = (
"211 77 OFFCURVE",
"236 98 OFFCURVE",
"242 124 CURVE SMOOTH",
"259 203 LINE",
"340 203 LINE SMOOTH",
"366 203 OFFCURVE",
"391 224 OFFCURVE",
"397 251 CURVE SMOOTH",
"397.615 254.198 OFFCURVE",
"397.912 257.321 OFFCURVE",
"397.912 260.338 CURVE SMOOTH",
"397.912 281.849 OFFCURVE",
"382.802 298 OFFCURVE",
"360 298 CURVE SMOOTH",
"279 298 LINE",
"294 368 LINE SMOOTH",
"294.615 371.198 OFFCURVE",
"294.912 374.321 OFFCURVE",
"294.912 377.338 CURVE SMOOTH",
"294.912 398.849 OFFCURVE",
"279.802 415 OFFCURVE",
"257 415 CURVE SMOOTH",
"231 415 OFFCURVE",
"205 394 OFFCURVE",
"200 368 CURVE SMOOTH",
"185 298 LINE",
"105 298 LINE SMOOTH",
"78 298 OFFCURVE",
"52 277 OFFCURVE",
"47 251 CURVE SMOOTH",
"46.186 247.338 OFFCURVE",
"45.795 243.786 OFFCURVE",
"45.795 240.382 CURVE SMOOTH",
"45.795 218.69 OFFCURVE",
"61.662 203 OFFCURVE",
"85 203 CURVE SMOOTH",
"165 203 LINE",
"148 124 LINE SMOOTH",
"147.184 120.462 OFFCURVE",
"146.793 117.017 OFFCURVE",
"146.793 113.705 CURVE SMOOTH",
"146.793 92.674 OFFCURVE",
"162.538 77 OFFCURVE",
"185 77 CURVE SMOOTH"
);
}
);
userData = {
com.fontlab.hintData = {
hhints = (
{
position = 203;
width = 95;
}
);
};
};
width = 469;
}
);
unicode = 002B;
},
{
color = 4;
glyphname = comma;
lastChange = "2020-01-23 18:36:23 +0000";
layers = (
{
background = {
paths = (
{
closed = 1;
nodes = (
"5 -96 OFFCURVE",
"22 -67 OFFCURVE",
"47 -27 CURVE SMOOTH",
"70 11 OFFCURVE",
"78 19 OFFCURVE",
"78 40 CURVE SMOOTH",
"78 50 OFFCURVE",
"72 59 OFFCURVE",
"60 59 CURVE SMOOTH",
"44 59 OFFCURVE",
"26 43 OFFCURVE",
"21 23 CURVE SMOOTH",
"19 14 OFFCURVE",
"22 3 OFFCURVE",
"29 -5 CURVE",
"-13 -76 LINE SMOOTH",
"-16 -81 OFFCURVE",
"-16 -83 OFFCURVE",
"-17 -86 CURVE SMOOTH",
"-18 -91 OFFCURVE",
"-13 -96 OFFCURVE",
"-6 -96 CURVE SMOOTH"
);
}
);
};
layerId = master01;
paths = (
{
closed = 1;
nodes = (
"5 -96 OFFCURVE",
"22 -67 OFFCURVE",
"47 -27 CURVE SMOOTH",
"70 11 OFFCURVE",
"78 19 OFFCURVE",
"78 40 CURVE SMOOTH",
"78 50 OFFCURVE",
"72 59 OFFCURVE",
"60 59 CURVE SMOOTH",
"44 59 OFFCURVE",
"26 43 OFFCURVE",
"21 23 CURVE SMOOTH",
"19 14 OFFCURVE",
"22 3 OFFCURVE",
"29 -5 CURVE",
"-13 -76 LINE SMOOTH",
"-16 -81 OFFCURVE",
"-16 -83 OFFCURVE",
"-17 -86 CURVE SMOOTH",
"-18 -91 OFFCURVE",
"-13 -96 OFFCURVE",
"-6 -96 CURVE SMOOTH"
);
}
);
userData = {
com.fontlab.hintData = {
hhints = (
{
position = -96;
width = 155;
}
);
vhints = (
{
position = 115;
width = 57;
}
);
};
};
width = 184;
},
{
background = {
paths = (
{
closed = 1;
nodes = (
"57 -93 OFFCURVE",
"61 -77 OFFCURVE",
"97 -19 CURVE SMOOTH",
"120 17 OFFCURVE",
"126 26 OFFCURVE",
"130 45 CURVE SMOOTH",
"130.354 46.771 OFFCURVE",
"130.527 48.57 OFFCURVE",
"130.527 50.365 CURVE SMOOTH",
"130.527 63.777 OFFCURVE",
"120.875 77 OFFCURVE",
"105 77 CURVE SMOOTH",
"84 77 OFFCURVE",
"60 56 OFFCURVE",
"55 32 CURVE SMOOTH",
"54.5 29 OFFCURVE",
"54.25 26.062 OFFCURVE",
"54.25 23.234 CURVE SMOOTH",
"54.25 14.75 OFFCURVE",
"56.5 7.25 OFFCURVE",
"61 2 CURVE",
"23 -62 LINE SMOOTH",
"21.606 -66.181 OFFCURVE",
"18.695 -69.077 OFFCURVE",
"18.695 -74.623 CURVE SMOOTH",
"18.695 -84.947 OFFCURVE",
"26.334 -93 OFFCURVE",
"38 -93 CURVE SMOOTH"
);
}
);
};
layerId = "ACFB53BD-70C1-480F-BE56-298851F5C10E";
paths = (
{
closed = 1;
nodes = (
"57 -93 OFFCURVE",
"61 -77 OFFCURVE",
"97 -19 CURVE SMOOTH",
"120 17 OFFCURVE",
"126 26 OFFCURVE",
"130 45 CURVE SMOOTH",
"130.354 46.771 OFFCURVE",
"130.527 48.57 OFFCURVE",
"130.527 50.365 CURVE SMOOTH",
"130.527 63.777 OFFCURVE",
"120.875 77 OFFCURVE",
"105 77 CURVE SMOOTH",
"84 77 OFFCURVE",
"60 56 OFFCURVE",
"55 32 CURVE SMOOTH",
"54.5 29 OFFCURVE",
"54.25 26.062 OFFCURVE",
"54.25 23.234 CURVE SMOOTH",
"54.25 14.75 OFFCURVE",
"56.5 7.25 OFFCURVE",
"61 2 CURVE",
"23 -62 LINE SMOOTH",
"21.606 -66.181 OFFCURVE",
"18.695 -69.077 OFFCURVE",
"18.695 -74.623 CURVE SMOOTH",
"18.695 -84.947 OFFCURVE",
"26.334 -93 OFFCURVE",
"38 -93 CURVE SMOOTH"
);
}
);
userData = {
com.fontlab.hintData = {
hhints = (
{
position = -93;
width = 170;
}
);
vhints = (
{
position = 54;
width = 76;
}
);
};
};
width = 261;
},
{
background = {
paths = (
{
closed = 1;
nodes = (
"75 -84 OFFCURVE",
"89 -66 OFFCURVE",
"103 -45 CURVE SMOOTH",
"127 -7 OFFCURVE",
"156 43 OFFCURVE",
"160 64 CURVE SMOOTH",
"160.777 67.627 OFFCURVE",
"161.152 71.171 OFFCURVE",
"161.152 74.591 CURVE SMOOTH",
"161.152 97.573 OFFCURVE",
"144.243 115 OFFCURVE",
"119 115 CURVE SMOOTH",
"88 115 OFFCURVE",
"54 85 OFFCURVE",
"47 52 CURVE SMOOTH",
"45.743 46.974 OFFCURVE",
"45.189 42.298 OFFCURVE",
"45.189 37.9 CURVE SMOOTH",
"45.189 31.798 OFFCURVE",
"46.257 26.23 OFFCURVE",
"48 21 CURVE",
"20 -26 LINE SMOOTH",
"17 -31 OFFCURVE",
"15 -35 OFFCURVE",
"14 -42 CURVE SMOOTH",
"13.354 -44.971 OFFCURVE",
"13.042 -47.875 OFFCURVE",
"13.042 -50.68 CURVE SMOOTH",
"13.042 -69.591 OFFCURVE",
"27.229 -84 OFFCURVE",
"49 -84 CURVE SMOOTH"
);
}
);
};
layerId = "140D7E2C-8008-49AA-8FE3-CF6E53AFBA7D";
paths = (
{
closed = 1;
nodes = (
"75 -84 OFFCURVE",
"89 -66 OFFCURVE",
"103 -45 CURVE SMOOTH",
"127 -7 OFFCURVE",
"156 43 OFFCURVE",
"160 64 CURVE SMOOTH",
"160.777 67.627 OFFCURVE",
"161.152 71.171 OFFCURVE",
"161.152 74.591 CURVE SMOOTH",
"161.152 97.573 OFFCURVE",
"144.243 115 OFFCURVE",
"119 115 CURVE SMOOTH",
"88 115 OFFCURVE",
"54 85 OFFCURVE",
"47 52 CURVE SMOOTH",
"45.743 46.974 OFFCURVE",
"45.189 42.298 OFFCURVE",
"45.189 37.9 CURVE SMOOTH",
"45.189 31.798 OFFCURVE",
"46.257 26.23 OFFCURVE",
"48 21 CURVE",
"20 -26 LINE SMOOTH",
"17 -31 OFFCURVE",
"15 -35 OFFCURVE",
"14 -42 CURVE SMOOTH",
"13.354 -44.971 OFFCURVE",
"13.042 -47.875 OFFCURVE",
"13.042 -50.68 CURVE SMOOTH",
"13.042 -69.591 OFFCURVE",
"27.229 -84 OFFCURVE",
"49 -84 CURVE SMOOTH"
);
}
);
userData = {
com.fontlab.hintData = {
hhints = (
{
position = -84;
width = 199;
}
);
vhints = (
{
position = 45;
width = 116;
}
);
};
};
width = 287;
}
);
leftKerningGroup = comma;
rightKerningGroup = comma;
unicode = 002C;
},
{
color = 4;
glyphname = hyphen;
lastChange = "2020-01-23 18:40:43 +0000";
layers = (
{
background = {
paths = (
{
closed = 1;
nodes = (
"326 232 LINE SMOOTH",
"335 232 OFFCURVE",
"346 241 OFFCURVE",
"348 250 CURVE SMOOTH",
"350 259 OFFCURVE",
"342 268 OFFCURVE",
"333 268 CURVE SMOOTH",
"75 268 LINE SMOOTH",
"66 268 OFFCURVE",
"57 259 OFFCURVE",
"55 250 CURVE SMOOTH",
"53 241 OFFCURVE",
"59 232 OFFCURVE",
"68 232 CURVE SMOOTH"
);
}
);
};
layerId = master01;
paths = (
{
closed = 1;
nodes = (
"326 232 LINE SMOOTH",
"335 232 OFFCURVE",
"346 241 OFFCURVE",
"348 250 CURVE SMOOTH",
"350 259 OFFCURVE",
"342 268 OFFCURVE",
"333 268 CURVE SMOOTH",
"75 268 LINE SMOOTH",
"66 268 OFFCURVE",
"57 259 OFFCURVE",
"55 250 CURVE SMOOTH",
"53 241 OFFCURVE",
"59 232 OFFCURVE",
"68 232 CURVE SMOOTH"
);
}
);
userData = {
com.fontlab.hintData = {
hhints = (
{
position = 232;
width = 36;
}
);
vhints = (
{
position = 128;
width = 293;
}
);
};
};
width = 403;
},
{
background = {
paths = (
{
closed = 1;
nodes = (
"337 223 LINE SMOOTH",
"352 223 OFFCURVE",
"367 236 OFFCURVE",
"370 250 CURVE SMOOTH",
"370.359 251.797 OFFCURVE",
"370.532 253.551 OFFCURVE",
"370.532 255.246 CURVE SMOOTH",
"370.532 267.703 OFFCURVE",
"361.203 277 OFFCURVE",
"348 277 CURVE SMOOTH",
"101 277 LINE SMOOTH",
"87 277 OFFCURVE",
"72 265 OFFCURVE",
"69 250 CURVE SMOOTH",
"68.639 248.314 OFFCURVE",
"68.466 246.643 OFFCURVE",
"68.466 245.008 CURVE SMOOTH",
"68.466 233.058 OFFCURVE",
"77.686 223 OFFCURVE",
"90 223 CURVE SMOOTH"
);
}
);
};
layerId = "ACFB53BD-70C1-480F-BE56-298851F5C10E";
paths = (
{
closed = 1;
nodes = (
"337 223 LINE SMOOTH",
"352 223 OFFCURVE",
"367 236 OFFCURVE",
"370 250 CURVE SMOOTH",
"370.359 251.797 OFFCURVE",
"370.532 253.551 OFFCURVE",
"370.532 255.246 CURVE SMOOTH",
"370.532 267.703 OFFCURVE",
"361.203 277 OFFCURVE",
"348 277 CURVE SMOOTH",
"101 277 LINE SMOOTH",
"87 277 OFFCURVE",
"72 265 OFFCURVE",
"69 250 CURVE SMOOTH",
"68.639 248.314 OFFCURVE",
"68.466 246.643 OFFCURVE",
"68.466 245.008 CURVE SMOOTH",
"68.466 233.058 OFFCURVE",
"77.686 223 OFFCURVE",
"90 223 CURVE SMOOTH"
);
}
);
userData = {
com.fontlab.hintData = {
hhints = (
{
position = 223;
width = 54;
}
);
vhints = (
{
position = 68;
width = 302;
}
);
};
};
width = 441;
},
{
background = {
paths = (
{
closed = 1;
nodes = (
"307 203 LINE SMOOTH",
"333 203 OFFCURVE",
"358 225 OFFCURVE",
"364 250 CURVE",
"365 253 OFFCURVE",
"365 256 OFFCURVE",
"365 259 CURVE SMOOTH",
"365 281 OFFCURVE",
"350 297 OFFCURVE",
"327 297 CURVE SMOOTH",
"102 297 LINE SMOOTH",
"78 297 OFFCURVE",
"50 276 OFFCURVE",
"45 250 CURVE",
"44 247 OFFCURVE",
"44 244 OFFCURVE",
"44 241 CURVE SMOOTH",
"44 220 OFFCURVE",
"61 203 OFFCURVE",
"82 203 CURVE SMOOTH"
);
}
);
};
layerId = "140D7E2C-8008-49AA-8FE3-CF6E53AFBA7D";
paths = (
{
closed = 1;
nodes = (
"307 203 LINE SMOOTH",
"333 203 OFFCURVE",
"358 225 OFFCURVE",
"364 250 CURVE",
"365 253 OFFCURVE",
"365 256 OFFCURVE",
"365 259 CURVE SMOOTH",
"365 281 OFFCURVE",
"350 297 OFFCURVE",
"327 297 CURVE SMOOTH",
"102 297 LINE SMOOTH",
"78 297 OFFCURVE",
"50 276 OFFCURVE",
"45 250 CURVE",
"44 247 OFFCURVE",
"44 244 OFFCURVE",
"44 241 CURVE SMOOTH",
"44 220 OFFCURVE",
"61 203 OFFCURVE",
"82 203 CURVE SMOOTH"
);
}
);
userData = {
com.fontlab.hintData = {
hhints = (
{
position = 203;
width = 94;
}
);
vhints = (
{
position = 62;
width = 321;
}
);
};
};
width = 409;
}
);
leftKerningGroup = hyphen;
rightKerningGroup = hyphen;
unicode = 002D;
},
{
color = 4;
glyphname = period;
lastChange = "2020-01-23 18:35:44 +0000";
layers = (
{
background = {
paths = (
{
closed = 1;
nodes = (
"47 0 OFFCURVE",
"64 18 OFFCURVE",
"69 39 CURVE SMOOTH",
"69 41 OFFCURVE",
"70 43 OFFCURVE",
"70 45 CURVE SMOOTH",
"70 57 OFFCURVE",
"63 66 OFFCURVE",
"52 66 CURVE SMOOTH",
"36 66 OFFCURVE",
"17 48 OFFCURVE",
"13 29 CURVE SMOOTH",
"12 26 OFFCURVE",
"12 24 OFFCURVE",
"12 21 CURVE SMOOTH",
"12 10 OFFCURVE",
"19 0 OFFCURVE",
"30 0 CURVE SMOOTH"
);
}
);
};
layerId = master01;
paths = (
{
closed = 1;
nodes = (
"47 0 OFFCURVE",
"64 18 OFFCURVE",
"69 39 CURVE SMOOTH",
"69 41 OFFCURVE",
"70 43 OFFCURVE",
"70 45 CURVE SMOOTH",
"70 57 OFFCURVE",
"63 66 OFFCURVE",
"52 66 CURVE SMOOTH",
"36 66 OFFCURVE",
"17 48 OFFCURVE",
"13 29 CURVE SMOOTH",
"12 26 OFFCURVE",
"12 24 OFFCURVE",
"12 21 CURVE SMOOTH",
"12 10 OFFCURVE",
"19 0 OFFCURVE",
"30 0 CURVE SMOOTH"
);
}
);
userData = {
com.fontlab.hintData = {
hhints = (
{
position = 0;
width = 66;
}
);
vhints = (
{
position = 81;
width = 58;
}
);
};
};
width = 174;
},
{
background = {
paths = (
{
closed = 1;
nodes = (
"68 0 OFFCURVE",
"91 21 OFFCURVE",
"96 47 CURVE",
"96.819 50.276 OFFCURVE",
"97.209 53.444 OFFCURVE",
"97.209 56.453 CURVE SMOOTH",
"97.209 71.812 OFFCURVE",
"87.052 83 OFFCURVE",
"72 83 CURVE SMOOTH",
"51 83 OFFCURVE",
"27 61 OFFCURVE",
"23 38 CURVE",
"22.137 34.375 OFFCURVE",
"21.721 30.869 OFFCURVE",
"21.721 27.549 CURVE SMOOTH",
"21.721 11.637 OFFCURVE",
"31.28 0 OFFCURVE",
"47 0 CURVE SMOOTH"
);
}
);
};
layerId = "ACFB53BD-70C1-480F-BE56-298851F5C10E";
paths = (
{
closed = 1;
nodes = (
"68 0 OFFCURVE",
"91 21 OFFCURVE",
"96 47 CURVE",
"96.819 50.276 OFFCURVE",
"97.209 53.444 OFFCURVE",
"97.209 56.453 CURVE SMOOTH",
"97.209 71.812 OFFCURVE",
"87.052 83 OFFCURVE",
"72 83 CURVE SMOOTH",
"51 83 OFFCURVE",
"27 61 OFFCURVE",
"23 38 CURVE",
"22.137 34.375 OFFCURVE",
"21.721 30.869 OFFCURVE",
"21.721 27.549 CURVE SMOOTH",
"21.721 11.637 OFFCURVE",
"31.28 0 OFFCURVE",
"47 0 CURVE SMOOTH"
);
}
);
userData = {
com.fontlab.hintData = {
hhints = (
{
position = 0;
width = 83;
}
);
vhints = (
{
position = 22;
width = 75;
}
);
};
};
width = 214;
},
{
background = {
paths = (
{
closed = 1;
nodes = (
"86 0 OFFCURVE",
"121 29 OFFCURVE",
"128 65 CURVE SMOOTH",
"129.022 69.525 OFFCURVE",
"129.511 73.922 OFFCURVE",
"129.511 78.132 CURVE SMOOTH",
"129.511 102.766 OFFCURVE",
"112.767 121 OFFCURVE",
"88 121 CURVE SMOOTH",
"57 121 OFFCURVE",
"23 90 OFFCURVE",
"16 57 CURVE SMOOTH",
"14.905 51.994 OFFCURVE",
"14.373 47.16 OFFCURVE",
"14.373 42.566 CURVE SMOOTH",
"14.373 17.79 OFFCURVE",
"29.849 0 OFFCURVE",
"56 0 CURVE SMOOTH"
);
}
);
};
layerId = "140D7E2C-8008-49AA-8FE3-CF6E53AFBA7D";
paths = (
{
closed = 1;
nodes = (
"86 0 OFFCURVE",
"121 29 OFFCURVE",
"128 65 CURVE SMOOTH",
"129.022 69.525 OFFCURVE",
"129.511 73.922 OFFCURVE",
"129.511 78.132 CURVE SMOOTH",
"129.511 102.766 OFFCURVE",
"112.767 121 OFFCURVE",
"88 121 CURVE SMOOTH",
"57 121 OFFCURVE",
"23 90 OFFCURVE",
"16 57 CURVE SMOOTH",
"14.905 51.994 OFFCURVE",
"14.373 47.16 OFFCURVE",
"14.373 42.566 CURVE SMOOTH",
"14.373 17.79 OFFCURVE",
"29.849 0 OFFCURVE",
"56 0 CURVE SMOOTH"
);
}
);
userData = {
com.fontlab.hintData = {
hhints = (
{
position = 0;
width = 121;
}
);
vhints = (
{
position = 14;
width = 115;
}
);
};
};
width = 240;
}
);
leftKerningGroup = period;
rightKerningGroup = period;
unicode = 002E;
},
{
color = 4;
glyphname = slash;
lastChange = "2020-01-15 21:15:02 +0000";
layers = (
{
background = {
paths = (
{
closed = 1;
nodes = (
"-1 -2 OFFCURVE",
"4 -1 OFFCURVE",
"10 6 CURVE SMOOTH",
"520 672 LINE SMOOTH",
"522 674 OFFCURVE",
"523 677 OFFCURVE",
"524 680 CURVE SMOOTH",
"527 692 OFFCURVE",
"521 700 OFFCURVE",
"509 700 CURVE SMOOTH",
"503 700 OFFCURVE",
"497 698 OFFCURVE",
"493 692 CURVE SMOOTH",
"-15 29 LINE SMOOTH",
"-19 24 OFFCURVE",
"-21 19 OFFCURVE",
"-22 17 CURVE SMOOTH",
"-24 6 OFFCURVE",
"-16 -2 OFFCURVE",
"-7 -2 CURVE SMOOTH"
);
}
);
};
layerId = master01;
paths = (
{
closed = 1;
nodes = (
"-1 -2 OFFCURVE",
"4 -1 OFFCURVE",
"10 6 CURVE SMOOTH",
"520 672 LINE SMOOTH",
"522 674 OFFCURVE",
"523 677 OFFCURVE",
"524 680 CURVE SMOOTH",
"527 692 OFFCURVE",
"521 700 OFFCURVE",
"509 700 CURVE SMOOTH",
"503 700 OFFCURVE",
"497 698 OFFCURVE",
"493 692 CURVE SMOOTH",
"-15 29 LINE SMOOTH",
"-19 24 OFFCURVE",
"-21 19 OFFCURVE",
"-22 17 CURVE SMOOTH",
"-24 6 OFFCURVE",
"-16 -2 OFFCURVE",
"-7 -2 CURVE SMOOTH"
);
}
);
userData = {
com.fontlab.hintData = {
hhints = (
{
position = -2;
width = 21;
}
);
};
};
width = 453;
},
{
background = {
paths = (
{
closed = 1;
nodes = (
"51 -1 OFFCURVE",
"61 4 OFFCURVE",
"68 13 CURVE SMOOTH",
"550 641 LINE SMOOTH",
"555 648 OFFCURVE",
"562 657 OFFCURVE",
"564 666 CURVE SMOOTH",
"564.385 667.67 OFFCURVE",
"564.573 669.339 OFFCURVE",
"564.573 670.981 CURVE SMOOTH",
"564.573 682.125 OFFCURVE",
"555.945 692 OFFCURVE",
"542 692 CURVE SMOOTH",
"532 692 OFFCURVE",
"521 688 OFFCURVE",
"514 678 CURVE SMOOTH",
"25 41 LINE SMOOTH",
"22 37 OFFCURVE",
"20 32 OFFCURVE",
"19 27 CURVE SMOOTH",
"18.586 24.928 OFFCURVE",
"18.381 22.895 OFFCURVE",
"18.381 20.929 CURVE SMOOTH",
"18.381 8.657 OFFCURVE",
"26.348 -1 OFFCURVE",
"41 -1 CURVE SMOOTH"
);
}
);
};
layerId = "ACFB53BD-70C1-480F-BE56-298851F5C10E";
paths = (
{
closed = 1;
nodes = (
"51 -1 OFFCURVE",
"61 4 OFFCURVE",
"68 13 CURVE SMOOTH",
"550 641 LINE SMOOTH",
"555 648 OFFCURVE",
"562 657 OFFCURVE",
"564 666 CURVE SMOOTH",
"564.385 667.67 OFFCURVE",
"564.573 669.339 OFFCURVE",
"564.573 670.981 CURVE SMOOTH",
"564.573 682.125 OFFCURVE",
"555.945 692 OFFCURVE",
"542 692 CURVE SMOOTH",
"532 692 OFFCURVE",
"521 688 OFFCURVE",
"514 678 CURVE SMOOTH",
"25 41 LINE SMOOTH",
"22 37 OFFCURVE",
"20 32 OFFCURVE",
"19 27 CURVE SMOOTH",
"18.586 24.928 OFFCURVE",
"18.381 22.895 OFFCURVE",
"18.381 20.929 CURVE SMOOTH",
"18.381 8.657 OFFCURVE",
"26.348 -1 OFFCURVE",
"41 -1 CURVE SMOOTH"
);
}
);
userData = {
com.fontlab.hintData = {
hhints = (
{
position = -1;
width = 21;
}
);
};
};
width = 545;
},
{
background = {
paths = (
{
closed = 1;
nodes = (
"75 -1 OFFCURVE",
"92 8 OFFCURVE",
"105 24 CURVE SMOOTH",
"543 594 LINE",
"548 602 OFFCURVE",
"557 615 OFFCURVE",
"560 628 CURVE SMOOTH",
"560.639 630.813 OFFCURVE",
"560.952 633.659 OFFCURVE",
"560.952 636.483 CURVE SMOOTH",
"560.952 655.745 OFFCURVE",
"546.42 674 OFFCURVE",
"522 674 CURVE SMOOTH",
"506 674 OFFCURVE",
"488 668 OFFCURVE",
"475 650 CURVE SMOOTH",
"30 70 LINE SMOOTH",
"25 63 OFFCURVE",
"21 55 OFFCURVE",
"19 47 CURVE SMOOTH",
"18.363 43.814 OFFCURVE",
"18.05 40.661 OFFCURVE",
"18.05 37.583 CURVE SMOOTH",
"18.05 16.512 OFFCURVE",
"32.696 -1 OFFCURVE",
"58 -1 CURVE SMOOTH"
);
}
);
};
layerId = "140D7E2C-8008-49AA-8FE3-CF6E53AFBA7D";
paths = (
{
closed = 1;
nodes = (
"75 -1 OFFCURVE",
"92 8 OFFCURVE",
"105 24 CURVE SMOOTH",
"543 594 LINE",
"548 602 OFFCURVE",
"557 615 OFFCURVE",
"560 628 CURVE SMOOTH",
"560.639 630.813 OFFCURVE",
"560.952 633.659 OFFCURVE",
"560.952 636.483 CURVE SMOOTH",
"560.952 655.745 OFFCURVE",
"546.42 674 OFFCURVE",
"522 674 CURVE SMOOTH",
"506 674 OFFCURVE",
"488 668 OFFCURVE",
"475 650 CURVE SMOOTH",
"30 70 LINE SMOOTH",
"25 63 OFFCURVE",
"21 55 OFFCURVE",
"19 47 CURVE SMOOTH",
"18.363 43.814 OFFCURVE",
"18.05 40.661 OFFCURVE",
"18.05 37.583 CURVE SMOOTH",
"18.05 16.512 OFFCURVE",
"32.696 -1 OFFCURVE",
"58 -1 CURVE SMOOTH"
);
}
);
width = 571;
}
);
unicode = 002F;
},
{
glyphname = zero;
lastChange = "2020-01-15 20:22:08 +0000";
layers = (
{
background = {
paths = (
{
closed = 1;
nodes = (
"368 -3 OFFCURVE",
"517 166 OFFCURVE",
"559 363 CURVE SMOOTH",
"566 398 OFFCURVE",
"570 431 OFFCURVE",
"570 463 CURVE SMOOTH",
"570 595 OFFCURVE",
"510 694 OFFCURVE",
"404 694 CURVE SMOOTH",
"264 694 OFFCURVE",
"117 521 OFFCURVE",
"76 327 CURVE SMOOTH",
"69 293 OFFCURVE",
"65 260 OFFCURVE",
"65 229 CURVE SMOOTH",
"65 97 OFFCURVE",
"126 -3 OFFCURVE",
"232 -3 CURVE SMOOTH"
);
},
{
closed = 1;
nodes = (
"150 33 OFFCURVE",
"101 123 OFFCURVE",
"101 237 CURVE SMOOTH",
"101 267 OFFCURVE",
"104 298 OFFCURVE",
"111 329 CURVE",
"150 509 OFFCURVE",
"281 658 OFFCURVE",
"396 658 CURVE SMOOTH",
"483 658 OFFCURVE",
"534 568 OFFCURVE",
"534 452 CURVE SMOOTH",
"534 423 OFFCURVE",
"531 392 OFFCURVE",
"524 361 CURVE SMOOTH",
"486 182 OFFCURVE",
"354 33 OFFCURVE",
"240 33 CURVE SMOOTH"
);
}
);
};
layerId = master01;
paths = (
{
closed = 1;
nodes = (
"368 -3 OFFCURVE",
"517 166 OFFCURVE",
"559 363 CURVE SMOOTH",
"566 398 OFFCURVE",
"570 431 OFFCURVE",
"570 463 CURVE SMOOTH",
"570 595 OFFCURVE",
"510 694 OFFCURVE",
"404 694 CURVE SMOOTH",
"264 694 OFFCURVE",
"117 521 OFFCURVE",
"76 327 CURVE SMOOTH",
"69 293 OFFCURVE",
"65 260 OFFCURVE",
"65 229 CURVE SMOOTH",
"65 97 OFFCURVE",
"126 -3 OFFCURVE",
"232 -3 CURVE SMOOTH"
);
},
{
closed = 1;
nodes = (
"150 33 OFFCURVE",
"101 123 OFFCURVE",
"101 237 CURVE SMOOTH",
"101 267 OFFCURVE",
"104 298 OFFCURVE",
"111 329 CURVE",
"150 509 OFFCURVE",
"281 658 OFFCURVE",
"396 658 CURVE SMOOTH",
"483 658 OFFCURVE",
"534 568 OFFCURVE",
"534 452 CURVE SMOOTH",
"534 423 OFFCURVE",
"531 392 OFFCURVE",
"524 361 CURVE SMOOTH",
"486 182 OFFCURVE",
"354 33 OFFCURVE",
"240 33 CURVE SMOOTH"
);
}
);
userData = {
com.fontlab.hintData = {
hhints = (
{
position = -3;
width = 36;
},
{
position = 658;
width = 36;
}
);
vhints = (
{
position = 129;
width = 36;
},
{
position = 598;
width = 36;
}
);
};
};
width = 595;
},
{
background = {
paths = (
{
closed = 1;
nodes = (
"377 -3 OFFCURVE",
"524 164 OFFCURVE",
"566 358 CURVE SMOOTH",
"573.115 391.842 OFFCURVE",
"576.569 424.797 OFFCURVE",
"576.569 455.954 CURVE SMOOTH",
"576.569 586.834 OFFCURVE",
"515.619 686 OFFCURVE",
"409 686 CURVE SMOOTH",
"269 686 OFFCURVE",
"123 515 OFFCURVE",
"82 324 CURVE SMOOTH",
"74.947 290.83 OFFCURVE",
"71.527 258.423 OFFCURVE",
"71.527 227.694 CURVE SMOOTH",
"71.527 97.227 OFFCURVE",
"133.164 -3 OFFCURVE",
"240 -3 CURVE SMOOTH"
);
},
{
closed = 1;
nodes = (
"171.598 52 OFFCURVE",
"127.234 133.396 OFFCURVE",
"127.234 237.904 CURVE SMOOTH",
"127.234 265.978 OFFCURVE",
"130.436 295.72 OFFCURVE",
"137 326 CURVE SMOOTH",
"172 493 OFFCURVE",
"293 631 OFFCURVE",
"398 631 CURVE SMOOTH",
"476.404 631 OFFCURVE",
"521.566 549.465 OFFCURVE",
"521.566 443.516 CURVE SMOOTH",
"521.566 415.684 OFFCURVE",
"518.449 386.166 OFFCURVE",
"512 356 CURVE SMOOTH",
"477 190 OFFCURVE",
"356 52 OFFCURVE",
"252 52 CURVE SMOOTH"
);
}
);
};
layerId = "ACFB53BD-70C1-480F-BE56-298851F5C10E";
paths = (
{
closed = 1;
nodes = (
"377 -3 OFFCURVE",
"524 164 OFFCURVE",
"566 358 CURVE SMOOTH",
"573.115 391.842 OFFCURVE",
"576.569 424.797 OFFCURVE",
"576.569 455.954 CURVE SMOOTH",
"576.569 586.834 OFFCURVE",
"515.619 686 OFFCURVE",
"409 686 CURVE SMOOTH",
"269 686 OFFCURVE",
"123 515 OFFCURVE",
"82 324 CURVE SMOOTH",
"74.947 290.83 OFFCURVE",
"71.527 258.423 OFFCURVE",
"71.527 227.694 CURVE SMOOTH",
"71.527 97.227 OFFCURVE",
"133.164 -3 OFFCURVE",
"240 -3 CURVE SMOOTH"
);
},
{
closed = 1;
nodes = (
"171.598 52 OFFCURVE",
"127.234 133.396 OFFCURVE",
"127.234 237.904 CURVE SMOOTH",
"127.234 265.978 OFFCURVE",
"130.436 295.72 OFFCURVE",
"137 326 CURVE SMOOTH",
"172 493 OFFCURVE",
"293 631 OFFCURVE",
"398 631 CURVE SMOOTH",
"476.404 631 OFFCURVE",
"521.566 549.465 OFFCURVE",
"521.566 443.516 CURVE SMOOTH",
"521.566 415.684 OFFCURVE",
"518.449 386.166 OFFCURVE",
"512 356 CURVE SMOOTH",
"477 190 OFFCURVE",
"356 52 OFFCURVE",
"252 52 CURVE SMOOTH"
);
}
);
userData = {
com.fontlab.hintData = {
hhints = (
{
position = -3;
width = 55;
},
{
position = 631;
width = 55;
}
);
vhints = (
{
position = 72;
width = 56;
},
{
position = 522;
width = 55;
}
);
};
};
width = 614;
},
{
background = {
paths = (
{
closed = 1;
nodes = (
"377 -3 OFFCURVE",
"524 160 OFFCURVE",
"563 348 CURVE",
"570.046 380.756 OFFCURVE",
"573.466 412.677 OFFCURVE",
"573.466 442.894 CURVE SMOOTH",
"573.466 571.347 OFFCURVE",
"511.671 669 OFFCURVE",
"404 669 CURVE SMOOTH",
"264 669 OFFCURVE",
"118 502 OFFCURVE",
"79 317 CURVE SMOOTH",
"72.277 285.252 OFFCURVE",
"69.007 254.202 OFFCURVE",
"69.007 224.697 CURVE SMOOTH",
"69.007 96.206 OFFCURVE",
"131.025 -3 OFFCURVE",
"240 -3 CURVE SMOOTH"
);
},
{
closed = 1;
nodes = (
"198.671 93 OFFCURVE",
"165.668 158.087 OFFCURVE",
"165.668 242.413 CURVE SMOOTH",
"165.668 266.71 OFFCURVE",
"168.408 292.605 OFFCURVE",
"174 319 CURVE SMOOTH",
"204 458 OFFCURVE",
"299 573 OFFCURVE",
"383 573 CURVE SMOOTH",
"443.006 573 OFFCURVE",
"477.505 508.018 OFFCURVE",
"477.505 422.542 CURVE SMOOTH",
"477.505 398.335 OFFCURVE",
"474.738 372.484 OFFCURVE",
"469 346 CURVE SMOOTH",
"440 208 OFFCURVE",
"343 93 OFFCURVE",
"260 93 CURVE SMOOTH"
);
}
);
};
layerId = "140D7E2C-8008-49AA-8FE3-CF6E53AFBA7D";
paths = (
{
closed = 1;
nodes = (
"377 -3 OFFCURVE",
"524 160 OFFCURVE",
"563 348 CURVE",
"570.046 380.756 OFFCURVE",
"573.466 412.677 OFFCURVE",
"573.466 442.894 CURVE SMOOTH",
"573.466 571.347 OFFCURVE",
"511.671 669 OFFCURVE",
"404 669 CURVE SMOOTH",
"264 669 OFFCURVE",
"118 502 OFFCURVE",
"79 317 CURVE SMOOTH",
"72.277 285.252 OFFCURVE",
"69.007 254.202 OFFCURVE",
"69.007 224.697 CURVE SMOOTH",
"69.007 96.206 OFFCURVE",
"131.025 -3 OFFCURVE",
"240 -3 CURVE SMOOTH"
);
},
{
closed = 1;
nodes = (
"198.671 93 OFFCURVE",
"165.668 158.087 OFFCURVE",
"165.668 242.413 CURVE SMOOTH",
"165.668 266.71 OFFCURVE",
"168.408 292.605 OFFCURVE",
"174 319 CURVE SMOOTH",
"204 458 OFFCURVE",
"299 573 OFFCURVE",
"383 573 CURVE SMOOTH",
"443.006 573 OFFCURVE",
"477.505 508.018 OFFCURVE",
"477.505 422.542 CURVE SMOOTH",
"477.505 398.335 OFFCURVE",
"474.738 372.484 OFFCURVE",
"469 346 CURVE SMOOTH",
"440 208 OFFCURVE",
"343 93 OFFCURVE",
"260 93 CURVE SMOOTH"
);
}
);
userData = {
com.fontlab.hintData = {
hhints = (
{
position = -3;
width = 96;
},
{
position = 573;
width = 96;
}
);
vhints = (
{
position = 69;
width = 97;
},
{
position = 478;
width = 96;
}
);
};
};
width = 640;
}
);
unicode = 0030;
},
{
color = 4;
glyphname = one;
lastChange = "2020-01-22 18:09:53 +0000";
layers = (
{
background = {
paths = (
{
closed = 1;
nodes = (
"266 0 LINE SMOOTH",
"276 0 OFFCURVE",
"286 8 OFFCURVE",
"289 19 CURVE SMOOTH",
"291 29 OFFCURVE",
"285 38 OFFCURVE",
"272 38 CURVE SMOOTH",
"187 38 LINE",
"331 669 LINE",
"332 677 OFFCURVE",
"326 688 OFFCURVE",
"315 688 CURVE SMOOTH",
"311 688 OFFCURVE",
"304 686 OFFCURVE",
"299 681 CURVE SMOOTH",
"136 537 LINE SMOOTH",
"132 534 OFFCURVE",
"129 528 OFFCURVE",
"128 524 CURVE SMOOTH",
"126 514 OFFCURVE",
"132 505 OFFCURVE",
"143 505 CURVE SMOOTH",
"148 505 OFFCURVE",
"153 507 OFFCURVE",
"158 512 CURVE SMOOTH",
"281 620 LINE",
"150 38 LINE",
"47 38 LINE SMOOTH",
"36 38 OFFCURVE",
"26 29 OFFCURVE",
"24 19 CURVE SMOOTH",
"21 8 OFFCURVE",
"28 0 OFFCURVE",
"39 0 CURVE SMOOTH"
);
}
);
};
layerId = master01;
paths = (
{
closed = 1;
nodes = (
"266 0 LINE SMOOTH",
"276 0 OFFCURVE",
"286 8 OFFCURVE",
"289 19 CURVE SMOOTH",
"291 29 OFFCURVE",
"285 38 OFFCURVE",
"272 38 CURVE SMOOTH",
"187 38 LINE",
"331 669 LINE",
"332 677 OFFCURVE",
"326 688 OFFCURVE",
"315 688 CURVE SMOOTH",
"311 688 OFFCURVE",
"304 686 OFFCURVE",
"299 681 CURVE SMOOTH",
"136 537 LINE SMOOTH",
"132 534 OFFCURVE",
"129 528 OFFCURVE",
"128 524 CURVE SMOOTH",
"126 514 OFFCURVE",
"132 505 OFFCURVE",
"143 505 CURVE SMOOTH",
"148 505 OFFCURVE",
"153 507 OFFCURVE",
"158 512 CURVE SMOOTH",
"281 620 LINE",
"150 38 LINE",
"47 38 LINE SMOOTH",
"36 38 OFFCURVE",
"26 29 OFFCURVE",
"24 19 CURVE SMOOTH",
"21 8 OFFCURVE",
"28 0 OFFCURVE",
"39 0 CURVE SMOOTH"
);
}
);
userData = {
com.fontlab.hintData = {
hhints = (
{
position = 0;
width = 38;
},
{
position = 668;
width = 20;
}
);
vhints = (
{
position = 72;
width = 307;
}
);
};
};
width = 388;
},
{
background = {
paths = (
{
closed = 1;
nodes = (
"255 0 LINE SMOOTH",
"270 0 OFFCURVE",
"285 12 OFFCURVE",
"288 28 CURVE",
"288.627 30.35 OFFCURVE",
"288.934 32.651 OFFCURVE",
"288.934 34.861 CURVE SMOOTH",
"288.934 46.755 OFFCURVE",
"280.023 56 OFFCURVE",
"264 56 CURVE SMOOTH",
"193 56 LINE",
"329 652 LINE SMOOTH",
"329.412 653.921 OFFCURVE",
"329.616 655.842 OFFCURVE",
"329.616 657.727 CURVE SMOOTH",
"329.616 669.579 OFFCURVE",
"321.53 680 OFFCURVE",
"306 680 CURVE SMOOTH",
"299 680 OFFCURVE",
"290 677 OFFCURVE",
"284 671 CURVE SMOOTH",
"127 532 LINE SMOOTH",
"121 527 OFFCURVE",
"116 520 OFFCURVE",
"115 513 CURVE SMOOTH",
"114.403 510.762 OFFCURVE",
"114.118 508.568 OFFCURVE",
"114.118 506.455 CURVE SMOOTH",
"114.118 494.41 OFFCURVE",
"123.388 485 OFFCURVE",
"137 485 CURVE SMOOTH",
"144 485 OFFCURVE",
"152 488 OFFCURVE",
"160 494 CURVE",
"257 579 LINE",
"137 56 LINE",
"48 56 LINE SMOOTH",
"32 56 OFFCURVE",
"18 43 OFFCURVE",
"14 28 CURVE",
"13.642 26.093 OFFCURVE",
"13.47 24.242 OFFCURVE",
"13.47 22.462 CURVE SMOOTH",
"13.47 9.309 OFFCURVE",
"22.907 0 OFFCURVE",
"37 0 CURVE SMOOTH"
);
}
);
};
layerId = "ACFB53BD-70C1-480F-BE56-298851F5C10E";
paths = (
{
closed = 1;
nodes = (
"255 0 LINE SMOOTH",
"273 0 OFFCURVE",
"289 17 OFFCURVE",
"288.934 34.861 CURVE SMOOTH",
"288.934 46.755 OFFCURVE",
"280.023 56 OFFCURVE",
"264 56 CURVE SMOOTH",
"193 56 LINE",
"329.616 657.727 LINE SMOOTH",
"329.616 669.579 OFFCURVE",
"321.53 680 OFFCURVE",
"306 680 CURVE SMOOTH",
"299 680 OFFCURVE",
"290 677 OFFCURVE",
"284 671 CURVE SMOOTH",
"127 532 LINE SMOOTH",
"119 525 OFFCURVE",
"116 518 OFFCURVE",
"114.118 506.455 CURVE SMOOTH",
"114.118 494.41 OFFCURVE",
"123.388 485 OFFCURVE",
"137 485 CURVE SMOOTH",
"144 485 OFFCURVE",
"152 488 OFFCURVE",
"160 494 CURVE SMOOTH",
"257 579 LINE",
"137 56 LINE",
"48 56 LINE SMOOTH",
"34 56 OFFCURVE",
"19 49 OFFCURVE",
"13.47 22.462 CURVE SMOOTH",
"13.47 9.309 OFFCURVE",
"22.907 0 OFFCURVE",
"37 0 CURVE SMOOTH"
);
}
);
userData = {
com.fontlab.hintData = {
hhints = (
{
position = 0;
width = 56;
}
);
vhints = (
{
position = 13;
width = 316;
}
);
};
};
width = 404;
},
{
background = {
paths = (
{
closed = 1;
nodes = (
"249 0 LINE SMOOTH",
"274 0 OFFCURVE",
"301 21 OFFCURVE",
"307 48 CURVE SMOOTH",
"307.692 51.597 OFFCURVE",
"308.039 55.118 OFFCURVE",
"308.039 58.514 CURVE SMOOTH",
"308.039 79.667 OFFCURVE",
"294.573 96 OFFCURVE",
"267 96 CURVE SMOOTH",
"226 96 LINE",
"343 615 LINE SMOOTH",
"343.694 618.333 OFFCURVE",
"344.042 621.667 OFFCURVE",
"344.042 624.936 CURVE SMOOTH",
"344.042 645.204 OFFCURVE",
"330.694 663 OFFCURVE",
"304 663 CURVE SMOOTH",
"294 663 OFFCURVE",
"277 657 OFFCURVE",
"267 648 CURVE SMOOTH",
"123 521 LINE SMOOTH",
"114 513 OFFCURVE",
"106 501 OFFCURVE",
"103 489 CURVE SMOOTH",
"102.387 485.812 OFFCURVE",
"102.09 482.683 OFFCURVE",
"102.09 479.649 CURVE SMOOTH",
"102.09 457.935 OFFCURVE",
"117.311 441 OFFCURVE",
"141 441 CURVE SMOOTH",
"153 441 OFFCURVE",
"167 445 OFFCURVE",
"179 455 CURVE SMOOTH",
"220 490 LINE",
"186 340 OFFCURVE",
"162 241 OFFCURVE",
"129 96 CURVE",
"71 96 LINE SMOOTH",
"43 96 OFFCURVE",
"18 74 OFFCURVE",
"13 48 CURVE SMOOTH",
"12.155 44.196 OFFCURVE",
"11.746 40.512 OFFCURVE",
"11.746 36.988 CURVE SMOOTH",
"11.746 15.5 OFFCURVE",
"26.945 0 OFFCURVE",
"51 0 CURVE SMOOTH"
);
}
);
};
layerId = "140D7E2C-8008-49AA-8FE3-CF6E53AFBA7D";
paths = (
{
closed = 1;
nodes = (
"249 0 LINE SMOOTH",
"276 0 OFFCURVE",
"308 26 OFFCURVE",
"308.039 58.514 CURVE SMOOTH",
"308.039 79.667 OFFCURVE",
"294.573 96 OFFCURVE",
"267 96 CURVE SMOOTH",
"226 96 LINE",
"344.042 624.936 LINE SMOOTH",
"344.042 645.204 OFFCURVE",
"330.694 663 OFFCURVE",
"304 663 CURVE SMOOTH",
"294 663 OFFCURVE",
"277 657 OFFCURVE",
"267 648 CURVE SMOOTH",
"123 521 LINE SMOOTH",
"114 513 OFFCURVE",
"102 497 OFFCURVE",
"102.09 479.649 CURVE SMOOTH",
"102.09 457.935 OFFCURVE",
"117.311 441 OFFCURVE",
"141 441 CURVE SMOOTH",
"153 441 OFFCURVE",
"167 445 OFFCURVE",
"179 455 CURVE SMOOTH",
"220 490 LINE",
"129 96 LINE",
"71 96 LINE SMOOTH",
"40 96 OFFCURVE",
"12 68 OFFCURVE",
"11.746 36.988 CURVE SMOOTH",
"11.746 15.5 OFFCURVE",
"26.945 0 OFFCURVE",
"51 0 CURVE SMOOTH"
);
}
);
userData = {
com.fontlab.hintData = {
hhints = (
{
position = 0;
width = 96;
}
);
vhints = (
{
position = 12;
width = 332;
}
);
};
};
width = 430;
}
);
unicode = 0031;
},
{
glyphname = two;
lastChange = "2020-01-15 20:20:55 +0000";
layers = (
{
background = {
paths = (
{
closed = 1;
nodes = (
"384 0 LINE SMOOTH",
"394 0 OFFCURVE",
"404 8 OFFCURVE",
"406 18 CURVE SMOOTH",
"408 28 OFFCURVE",
"401 36 OFFCURVE",
"391 36 CURVE SMOOTH",
"53 36 LINE",
"92 181 OFFCURVE",
"190 243 OFFCURVE",
"287 299 CURVE",
"385 353 OFFCURVE",
"478 403 OFFCURVE",
"503 519 CURVE SMOOTH",
"505 530 OFFCURVE",
"506 541 OFFCURVE",
"506 551 CURVE SMOOTH",
"506 627 OFFCURVE",
"448 685 OFFCURVE",
"353 685 CURVE SMOOTH",
"269 685 OFFCURVE",
"199 641 OFFCURVE",
"156 606 CURVE SMOOTH",
"131 587 OFFCURVE",
"124 578 OFFCURVE",
"123 571 CURVE SMOOTH",
"121 562 OFFCURVE",
"127 551 OFFCURVE",
"138 551 CURVE SMOOTH",
"148 551 OFFCURVE",
"155 560 OFFCURVE",
"163 568 CURVE SMOOTH",
"172 576 OFFCURVE",
"251 647 OFFCURVE",
"345 647 CURVE SMOOTH",
"418 647 OFFCURVE",
"469 605 OFFCURVE",
"469 544 CURVE SMOOTH",
"469 536 OFFCURVE",
"468 528 OFFCURVE",
"466 519 CURVE SMOOTH",
"447 429 OFFCURVE",
"368 386 OFFCURVE",
"278 334 CURVE SMOOTH",
"164 269 OFFCURVE",
"49 197 OFFCURVE",
"11 18 CURVE",
"8 0 LINE"
);
}
);
};
layerId = master01;
paths = (
{
closed = 1;
nodes = (
"384 0 LINE SMOOTH",
"394 0 OFFCURVE",
"404 8 OFFCURVE",
"406 18 CURVE SMOOTH",
"408 28 OFFCURVE",
"401 36 OFFCURVE",
"391 36 CURVE SMOOTH",
"53 36 LINE",
"92 181 OFFCURVE",
"190 243 OFFCURVE",
"287 299 CURVE",
"385 353 OFFCURVE",
"478 403 OFFCURVE",
"503 519 CURVE SMOOTH",
"505 530 OFFCURVE",
"506 541 OFFCURVE",
"506 551 CURVE SMOOTH",
"506 627 OFFCURVE",
"448 685 OFFCURVE",
"353 685 CURVE SMOOTH",
"269 685 OFFCURVE",
"199 641 OFFCURVE",
"156 606 CURVE SMOOTH",
"131 587 OFFCURVE",
"124 578 OFFCURVE",
"123 571 CURVE SMOOTH",
"121 562 OFFCURVE",
"127 551 OFFCURVE",
"138 551 CURVE SMOOTH",
"148 551 OFFCURVE",
"155 560 OFFCURVE",
"163 568 CURVE SMOOTH",
"172 576 OFFCURVE",
"251 647 OFFCURVE",
"345 647 CURVE SMOOTH",
"418 647 OFFCURVE",
"469 605 OFFCURVE",
"469 544 CURVE SMOOTH",
"469 536 OFFCURVE",
"468 528 OFFCURVE",
"466 519 CURVE SMOOTH",
"447 429 OFFCURVE",
"368 386 OFFCURVE",
"278 334 CURVE SMOOTH",
"164 269 OFFCURVE",
"49 197 OFFCURVE",
"11 18 CURVE",
"8 0 LINE"
);
}
);
userData = {
com.fontlab.hintData = {
hhints = (
{
position = 0;
width = 36;
},
{
position = 647;
width = 38;
}
);
vhints = (
{
position = 532;
width = 38;
}
);
};
};
width = 507;
},
{
background = {
paths = (
{
closed = 1;
nodes = (
"384 0 LINE SMOOTH",
"399 0 OFFCURVE",
"414 12 OFFCURVE",
"417 27 CURVE SMOOTH",
"417.562 29.249 OFFCURVE",
"417.828 31.419 OFFCURVE",
"417.828 33.488 CURVE SMOOTH",
"417.828 46.137 OFFCURVE",
"407.891 55 OFFCURVE",
"395 55 CURVE SMOOTH",
"81 55 LINE",
"114 180 OFFCURVE",
"206 237 OFFCURVE",
"297 289 CURVE SMOOTH",
"392 343 OFFCURVE",
"486 392 OFFCURVE",
"510 508 CURVE SMOOTH",
"512.504 519.644 OFFCURVE",
"513.723 531.021 OFFCURVE",
"513.723 542.016 CURVE SMOOTH",
"513.723 618.839 OFFCURVE",
"454.228 677 OFFCURVE",
"358 677 CURVE SMOOTH",
"275 677 OFFCURVE",
"205 632 OFFCURVE",
"163 598 CURVE SMOOTH",
"136 577 OFFCURVE",
"128 568 OFFCURVE",
"126 558 CURVE SMOOTH",
"125.586 556.067 OFFCURVE",
"125.381 554.114 OFFCURVE",
"125.381 552.185 CURVE SMOOTH",
"125.381 540.143 OFFCURVE",
"133.348 529 OFFCURVE",
"148 529 CURVE SMOOTH",
"162 529 OFFCURVE",
"172 540 OFFCURVE",
"181 548 CURVE SMOOTH",
"190 556 OFFCURVE",
"262 621 OFFCURVE",
"346 621 CURVE SMOOTH",
"411.352 621 OFFCURVE",
"456.426 583.564 OFFCURVE",
"456.426 530.043 CURVE SMOOTH",
"456.426 522.961 OFFCURVE",
"455.636 515.596 OFFCURVE",
"454 508 CURVE SMOOTH",
"436 422 OFFCURVE",
"358 382 OFFCURVE",
"271 333 CURVE SMOOTH",
"169 275 OFFCURVE",
"56 204 OFFCURVE",
"18 27 CURVE",
"13 0 LINE"
);
}
);
};
layerId = "ACFB53BD-70C1-480F-BE56-298851F5C10E";
paths = (
{
closed = 1;
nodes = (
"384 0 LINE SMOOTH",
"399 0 OFFCURVE",
"414 12 OFFCURVE",
"417 27 CURVE SMOOTH",
"417.562 29.249 OFFCURVE",
"417.828 31.419 OFFCURVE",
"417.828 33.488 CURVE SMOOTH",
"417.828 46.137 OFFCURVE",
"407.891 55 OFFCURVE",
"395 55 CURVE SMOOTH",
"81 55 LINE",
"114 180 OFFCURVE",
"206 237 OFFCURVE",
"297 289 CURVE SMOOTH",
"392 343 OFFCURVE",
"486 392 OFFCURVE",
"510 508 CURVE SMOOTH",
"512.504 519.644 OFFCURVE",
"513.723 531.021 OFFCURVE",
"513.723 542.016 CURVE SMOOTH",
"513.723 618.839 OFFCURVE",
"454.228 677 OFFCURVE",
"358 677 CURVE SMOOTH",
"275 677 OFFCURVE",
"205 632 OFFCURVE",
"163 598 CURVE SMOOTH",
"136 577 OFFCURVE",
"128 568 OFFCURVE",
"126 558 CURVE SMOOTH",
"125.586 556.067 OFFCURVE",
"125.381 554.114 OFFCURVE",
"125.381 552.185 CURVE SMOOTH",
"125.381 540.143 OFFCURVE",
"133.348 529 OFFCURVE",
"148 529 CURVE SMOOTH",
"162 529 OFFCURVE",
"172 540 OFFCURVE",
"181 548 CURVE SMOOTH",
"190 556 OFFCURVE",
"262 621 OFFCURVE",
"346 621 CURVE SMOOTH",
"411.352 621 OFFCURVE",
"456.426 583.564 OFFCURVE",
"456.426 530.043 CURVE SMOOTH",
"456.426 522.961 OFFCURVE",
"455.636 515.596 OFFCURVE",
"454 508 CURVE SMOOTH",
"436 422 OFFCURVE",
"358 382 OFFCURVE",
"271 333 CURVE SMOOTH",
"169 275 OFFCURVE",
"56 204 OFFCURVE",
"18 27 CURVE",
"13 0 LINE"
);
}
);
userData = {
com.fontlab.hintData = {
hhints = (
{
position = 0;
width = 55;
},
{
position = 621;
width = 56;
}
);
vhints = (
{
position = 456;
width = 57;
}
);
};
};
width = 528;
},
{
background = {
paths = (
{
closed = 1;
nodes = (
"369 0 LINE SMOOTH",
"394 0 OFFCURVE",
"421 21 OFFCURVE",
"426 47 CURVE SMOOTH",
"426.787 50.539 OFFCURVE",
"427.161 53.975 OFFCURVE",
"427.161 57.275 CURVE SMOOTH",
"427.161 79.145 OFFCURVE",
"410.723 95 OFFCURVE",
"389 95 CURVE SMOOTH",
"128 95 LINE",
"160 182 OFFCURVE",
"233 226 OFFCURVE",
"303 266 CURVE SMOOTH",
"390 315 OFFCURVE",
"488 372 OFFCURVE",
"511 484 CURVE SMOOTH",
"513.693 496.438 OFFCURVE",
"515.004 508.581 OFFCURVE",
"515.004 520.298 CURVE SMOOTH",
"515.004 599.961 OFFCURVE",
"454.382 660 OFFCURVE",
"355 660 CURVE SMOOTH",
"273 660 OFFCURVE",
"202 616 OFFCURVE",
"160 582 CURVE SMOOTH",
"130 558 OFFCURVE",
"121 546 OFFCURVE",
"117 530 CURVE SMOOTH",
"116.333 526.797 OFFCURVE",
"116.004 523.576 OFFCURVE",
"116.004 520.4 CURVE SMOOTH",
"116.004 499.773 OFFCURVE",
"129.87 481 OFFCURVE",
"155 481 CURVE SMOOTH",
"178 481 OFFCURVE",
"189 492 OFFCURVE",
"201 503 CURVE SMOOTH",
"210 511 OFFCURVE",
"269 564 OFFCURVE",
"334 564 CURVE SMOOTH",
"382.818 564 OFFCURVE",
"416.667 538.002 OFFCURVE",
"416.667 499.291 CURVE SMOOTH",
"416.667 494.389 OFFCURVE",
"416.124 489.283 OFFCURVE",
"415 484 CURVE SMOOTH",
"402 423 OFFCURVE",
"342 390 OFFCURVE",
"259 342 CURVE SMOOTH",
"163 288 OFFCURVE",
"55 220 OFFCURVE",
"18 47 CURVE",
"9 0 LINE"
);
}
);
};
layerId = "140D7E2C-8008-49AA-8FE3-CF6E53AFBA7D";
paths = (
{
closed = 1;
nodes = (
"369 0 LINE SMOOTH",
"394 0 OFFCURVE",
"421 21 OFFCURVE",
"426 47 CURVE SMOOTH",
"426.787 50.539 OFFCURVE",
"427.161 53.975 OFFCURVE",
"427.161 57.275 CURVE SMOOTH",
"427.161 79.145 OFFCURVE",
"410.723 95 OFFCURVE",
"389 95 CURVE SMOOTH",
"128 95 LINE",
"160 182 OFFCURVE",
"233 226 OFFCURVE",
"303 266 CURVE SMOOTH",
"390 315 OFFCURVE",
"488 372 OFFCURVE",
"511 484 CURVE SMOOTH",
"513.693 496.438 OFFCURVE",
"515.004 508.581 OFFCURVE",
"515.004 520.298 CURVE SMOOTH",
"515.004 599.961 OFFCURVE",
"454.382 660 OFFCURVE",
"355 660 CURVE SMOOTH",
"273 660 OFFCURVE",
"202 616 OFFCURVE",
"160 582 CURVE SMOOTH",
"130 558 OFFCURVE",
"121 546 OFFCURVE",
"117 530 CURVE SMOOTH",
"116.333 526.797 OFFCURVE",
"116.004 523.576 OFFCURVE",
"116.004 520.4 CURVE SMOOTH",
"116.004 499.773 OFFCURVE",
"129.87 481 OFFCURVE",
"155 481 CURVE SMOOTH",
"178 481 OFFCURVE",
"189 492 OFFCURVE",
"201 503 CURVE SMOOTH",
"210 511 OFFCURVE",
"269 564 OFFCURVE",
"334 564 CURVE SMOOTH",
"382.818 564 OFFCURVE",
"416.667 538.002 OFFCURVE",
"416.667 499.291 CURVE SMOOTH",
"416.667 494.389 OFFCURVE",
"416.124 489.283 OFFCURVE",
"415 484 CURVE SMOOTH",
"402 423 OFFCURVE",
"342 390 OFFCURVE",
"259 342 CURVE SMOOTH",
"163 288 OFFCURVE",
"55 220 OFFCURVE",
"18 47 CURVE",
"9 0 LINE"
);
}
);
userData = {
com.fontlab.hintData = {
hhints = (
{
position = 0;
width = 95;
},
{
position = 564;
width = 96;
}
);
vhints = (
{
position = 417;
width = 98;
}
);
};
};
width = 554;
}
);
unicode = 0032;
},
{
glyphname = three;
lastChange = "2020-01-15 20:21:04 +0000";
layers = (
{
background = {
paths = (
{
closed = 1;
nodes = (
"250 -6 OFFCURVE",
"388 47 OFFCURVE",
"421 198 CURVE SMOOTH",
"424 212 OFFCURVE",
"425 226 OFFCURVE",
"425 239 CURVE SMOOTH",
"425 302 OFFCURVE",
"392 357 OFFCURVE",
"326 388 CURVE",
"404 425 OFFCURVE",
"464 482 OFFCURVE",
"477 544 CURVE SMOOTH",
"479 553 OFFCURVE",
"480 561 OFFCURVE",
"480 570 CURVE SMOOTH",
"480 640 OFFCURVE",
"415 692 OFFCURVE",
"319 692 CURVE SMOOTH",
"262 692 OFFCURVE",
"207 672 OFFCURVE",
"175 654 CURVE SMOOTH",
"150 640 OFFCURVE",
"140 629 OFFCURVE",
"139 622 CURVE SMOOTH",
"137 614 OFFCURVE",
"141 603 OFFCURVE",
"154 603 CURVE SMOOTH",
"158 603 OFFCURVE",
"163 606 OFFCURVE",
"173 613 CURVE SMOOTH",
"194 626 OFFCURVE",
"237 654 OFFCURVE",
"311 654 CURVE SMOOTH",
"399 654 OFFCURVE",
"442 608 OFFCURVE",
"442 561 CURVE SMOOTH",
"442 555 OFFCURVE",
"441 549 OFFCURVE",
"440 544 CURVE SMOOTH",
"424 469 OFFCURVE",
"321 405 OFFCURVE",
"241 405 CURVE SMOOTH",
"230 405 OFFCURVE",
"220 397 OFFCURVE",
"218 387 CURVE SMOOTH",
"215 376 OFFCURVE",
"222 368 OFFCURVE",
"232 368 CURVE SMOOTH",
"280 368 OFFCURVE",
"387 344 OFFCURVE",
"387 237 CURVE SMOOTH",
"387 225 OFFCURVE",
"386 212 OFFCURVE",
"383 198 CURVE",
"358 83 OFFCURVE",
"257 31 OFFCURVE",
"177 31 CURVE SMOOTH",
"81 31 OFFCURVE",
"46 97 OFFCURVE",
"37 123 CURVE",
"34 129 OFFCURVE",
"30 133 OFFCURVE",
"22 133 CURVE SMOOTH",
"13 133 OFFCURVE",
"2 126 OFFCURVE",
"0 117 CURVE SMOOTH",
"0 114 OFFCURVE",
"-1 109 OFFCURVE",
"0 102 CURVE SMOOTH",
"2 93 OFFCURVE",
"36 -6 OFFCURVE",
"172 -6 CURVE SMOOTH"
);
}
);
};
layerId = master01;
paths = (
{
closed = 1;
nodes = (
"250 -6 OFFCURVE",
"388 47 OFFCURVE",
"421 198 CURVE SMOOTH",
"424 212 OFFCURVE",
"425 226 OFFCURVE",
"425 239 CURVE SMOOTH",
"425 302 OFFCURVE",
"392 357 OFFCURVE",
"326 388 CURVE",
"404 425 OFFCURVE",
"464 482 OFFCURVE",
"477 544 CURVE SMOOTH",
"479 553 OFFCURVE",
"480 561 OFFCURVE",
"480 570 CURVE SMOOTH",
"480 640 OFFCURVE",
"415 692 OFFCURVE",
"319 692 CURVE SMOOTH",
"262 692 OFFCURVE",
"207 672 OFFCURVE",
"175 654 CURVE SMOOTH",
"150 640 OFFCURVE",
"140 629 OFFCURVE",
"139 622 CURVE SMOOTH",
"137 614 OFFCURVE",
"141 603 OFFCURVE",
"154 603 CURVE SMOOTH",
"158 603 OFFCURVE",
"163 606 OFFCURVE",
"173 613 CURVE SMOOTH",
"194 626 OFFCURVE",
"237 654 OFFCURVE",
"311 654 CURVE SMOOTH",
"399 654 OFFCURVE",
"442 608 OFFCURVE",
"442 561 CURVE SMOOTH",
"442 555 OFFCURVE",
"441 549 OFFCURVE",
"440 544 CURVE SMOOTH",
"424 469 OFFCURVE",
"321 405 OFFCURVE",
"241 405 CURVE SMOOTH",
"230 405 OFFCURVE",
"220 397 OFFCURVE",
"218 387 CURVE SMOOTH",
"215 376 OFFCURVE",
"222 368 OFFCURVE",
"232 368 CURVE SMOOTH",
"280 368 OFFCURVE",
"387 344 OFFCURVE",
"387 237 CURVE SMOOTH",
"387 225 OFFCURVE",
"386 212 OFFCURVE",
"383 198 CURVE",
"358 83 OFFCURVE",
"257 31 OFFCURVE",
"177 31 CURVE SMOOTH",
"81 31 OFFCURVE",
"46 97 OFFCURVE",
"37 123 CURVE",
"34 129 OFFCURVE",
"30 133 OFFCURVE",
"22 133 CURVE SMOOTH",
"13 133 OFFCURVE",
"2 126 OFFCURVE",
"0 117 CURVE SMOOTH",
"0 114 OFFCURVE",
"-1 109 OFFCURVE",
"0 102 CURVE SMOOTH",
"2 93 OFFCURVE",
"36 -6 OFFCURVE",
"172 -6 CURVE SMOOTH"
);
}
);
userData = {
com.fontlab.hintData = {
hhints = (
{
position = -6;
width = 37;
},
{
position = 368;
width = 37;
},
{
position = 654;
width = 38;
}
);
vhints = (
{
position = 94;
width = 37;
},
{
position = 481;
width = 38;
},
{
position = 536;
width = 38;
}
);
};
};
width = 490;
},
{
background = {
paths = (
{
closed = 1;
nodes = (
"289 -6 OFFCURVE",
"429 48 OFFCURVE",
"461 200 CURVE SMOOTH",
"464.424 216.315 OFFCURVE",
"466.144 232.183 OFFCURVE",
"466.144 247.384 CURVE SMOOTH",
"466.144 307.657 OFFCURVE",
"439.102 357.445 OFFCURVE",
"384 383 CURVE",
"450 415 OFFCURVE",
"502 469 OFFCURVE",
"516 532 CURVE SMOOTH",
"517.898 541.067 OFFCURVE",
"518.817 549.912 OFFCURVE",
"518.817 558.48 CURVE SMOOTH",
"518.817 631.183 OFFCURVE",
"452.613 684 OFFCURVE",
"356 684 CURVE SMOOTH",
"298 684 OFFCURVE",
"245 664 OFFCURVE",
"212 646 CURVE SMOOTH",
"181 629 OFFCURVE",
"173 617 OFFCURVE",
"171 607 CURVE SMOOTH",
"170.517 604.908 OFFCURVE",
"170.268 602.764 OFFCURVE",
"170.268 600.64 CURVE SMOOTH",
"170.268 589.561 OFFCURVE",
"177.057 579 OFFCURVE",
"193 579 CURVE SMOOTH",
"200 579 OFFCURVE",
"205 582 OFFCURVE",
"214 588 CURVE SMOOTH",
"232 599 OFFCURVE",
"273 628 OFFCURVE",
"344 628 CURVE SMOOTH",
"423.437 628 OFFCURVE",
"461.316 587.258 OFFCURVE",
"461.316 545.493 CURVE SMOOTH",
"461.316 540.991 OFFCURVE",
"460.876 536.476 OFFCURVE",
"460 532 CURVE",
"445 465 OFFCURVE",
"352 409 OFFCURVE",
"280 409 CURVE SMOOTH",
"264 409 OFFCURVE",
"250 397 OFFCURVE",
"246 381 CURVE SMOOTH",
"245.641 379.203 OFFCURVE",
"245.468 377.435 OFFCURVE",
"245.468 375.714 CURVE SMOOTH",
"245.468 363.072 OFFCURVE",
"254.797 353 OFFCURVE",
"268 353 CURVE SMOOTH",
"311.099 353 OFFCURVE",
"409.023 331.232 OFFCURVE",
"409.023 235.573 CURVE SMOOTH",
"409.023 224.696 OFFCURVE",
"407.757 212.864 OFFCURVE",
"405 200 CURVE SMOOTH",
"383 97 OFFCURVE",
"291 50 OFFCURVE",
"220 50 CURVE SMOOTH",
"132 50 OFFCURVE",
"101 109 OFFCURVE",
"93 133 CURVE SMOOTH",
"90 142 OFFCURVE",
"83 148 OFFCURVE",
"71 148 CURVE SMOOTH",
"56 148 OFFCURVE",
"42 137 OFFCURVE",
"38 122 CURVE",
"38 118 OFFCURVE",
"36 112 OFFCURVE",
"39 104 CURVE SMOOTH",
"40 101 OFFCURVE",
"69 -6 OFFCURVE",
"210 -6 CURVE SMOOTH"
);
}
);
};
layerId = "ACFB53BD-70C1-480F-BE56-298851F5C10E";
paths = (
{
closed = 1;
nodes = (
"289 -6 OFFCURVE",
"429 48 OFFCURVE",
"461 200 CURVE SMOOTH",
"464.424 216.315 OFFCURVE",
"466.144 232.183 OFFCURVE",
"466.144 247.384 CURVE SMOOTH",
"466.144 307.657 OFFCURVE",
"439.102 357.445 OFFCURVE",
"384 383 CURVE",
"450 415 OFFCURVE",
"502 469 OFFCURVE",
"516 532 CURVE SMOOTH",
"517.898 541.067 OFFCURVE",
"518.817 549.912 OFFCURVE",
"518.817 558.48 CURVE SMOOTH",
"518.817 631.183 OFFCURVE",
"452.613 684 OFFCURVE",
"356 684 CURVE SMOOTH",
"298 684 OFFCURVE",
"245 664 OFFCURVE",
"212 646 CURVE SMOOTH",
"181 629 OFFCURVE",
"173 617 OFFCURVE",
"171 607 CURVE SMOOTH",
"170.517 604.908 OFFCURVE",
"170.268 602.764 OFFCURVE",
"170.268 600.64 CURVE SMOOTH",
"170.268 589.561 OFFCURVE",
"177.057 579 OFFCURVE",
"193 579 CURVE SMOOTH",
"200 579 OFFCURVE",
"205 582 OFFCURVE",
"214 588 CURVE SMOOTH",
"232 599 OFFCURVE",
"273 628 OFFCURVE",
"344 628 CURVE SMOOTH",
"423.437 628 OFFCURVE",
"461.316 587.258 OFFCURVE",
"461.316 545.493 CURVE SMOOTH",
"461.316 540.991 OFFCURVE",
"460.876 536.476 OFFCURVE",
"460 532 CURVE",
"445 465 OFFCURVE",
"352 409 OFFCURVE",
"280 409 CURVE SMOOTH",
"264 409 OFFCURVE",
"250 397 OFFCURVE",
"246 381 CURVE SMOOTH",
"245.641 379.203 OFFCURVE",
"245.468 377.435 OFFCURVE",
"245.468 375.714 CURVE SMOOTH",
"245.468 363.072 OFFCURVE",
"254.797 353 OFFCURVE",
"268 353 CURVE SMOOTH",
"311.099 353 OFFCURVE",
"409.023 331.232 OFFCURVE",
"409.023 235.573 CURVE SMOOTH",
"409.023 224.696 OFFCURVE",
"407.757 212.864 OFFCURVE",
"405 200 CURVE SMOOTH",
"383 97 OFFCURVE",
"291 50 OFFCURVE",
"220 50 CURVE SMOOTH",
"132 50 OFFCURVE",
"101 109 OFFCURVE",
"93 133 CURVE SMOOTH",
"90 142 OFFCURVE",
"83 148 OFFCURVE",
"71 148 CURVE SMOOTH",
"56 148 OFFCURVE",
"42 137 OFFCURVE",
"38 122 CURVE",
"38 118 OFFCURVE",
"36 112 OFFCURVE",
"39 104 CURVE SMOOTH",
"40 101 OFFCURVE",
"69 -6 OFFCURVE",
"210 -6 CURVE SMOOTH"
);
}
);
userData = {
com.fontlab.hintData = {
hhints = (
{
position = -6;
width = 56;
},
{
position = 353;
width = 56;
},
{
position = 628;
width = 56;
}
);
vhints = (
{
position = 38;
width = 55;
},
{
position = 409;
width = 57;
},
{
position = 461;
width = 58;
}
);
};
};
width = 543;
},
{
background = {
paths = (
{
closed = 1;
nodes = (
"297 -5 OFFCURVE",
"434 50 OFFCURVE",
"467 204 CURVE SMOOTH",
"470.704 221.04 OFFCURVE",
"472.579 237.652 OFFCURVE",
"472.579 253.567 CURVE SMOOTH",
"472.579 302.097 OFFCURVE",
"455.146 344.137 OFFCURVE",
"419 372 CURVE",
"469 406 OFFCURVE",
"505 452 OFFCURVE",
"516 506 CURVE SMOOTH",
"518.068 515.905 OFFCURVE",
"519.07 525.561 OFFCURVE",
"519.07 534.906 CURVE SMOOTH",
"519.07 611.409 OFFCURVE",
"451.918 667 OFFCURVE",
"353 667 CURVE SMOOTH",
"296 667 OFFCURVE",
"243 647 OFFCURVE",
"210 629 CURVE SMOOTH",
"172 608 OFFCURVE",
"161 590 OFFCURVE",
"158 574 CURVE SMOOTH",
"157.158 570.126 OFFCURVE",
"156.713 566.195 OFFCURVE",
"156.713 562.337 CURVE SMOOTH",
"156.713 543.287 OFFCURVE",
"167.558 526 OFFCURVE",
"195 526 CURVE SMOOTH",
"208 526 OFFCURVE",
"215 531 OFFCURVE",
"229 539 CURVE SMOOTH",
"248 551 OFFCURVE",
"283 570 OFFCURVE",
"333 570 CURVE SMOOTH",
"391.681 570 OFFCURVE",
"421.021 543.105 OFFCURVE",
"421.021 515.066 CURVE SMOOTH",
"421.021 512.047 OFFCURVE",
"420.681 509.014 OFFCURVE",
"420 506 CURVE SMOOTH",
"410 458 OFFCURVE",
"339 417 OFFCURVE",
"285 417 CURVE SMOOTH",
"257 417 OFFCURVE",
"232 396 OFFCURVE",
"226 369 CURVE SMOOTH",
"225.186 365.474 OFFCURVE",
"224.796 362.021 OFFCURVE",
"224.796 358.686 CURVE SMOOTH",
"224.796 337.437 OFFCURVE",
"240.662 321 OFFCURVE",
"264 321 CURVE SMOOTH",
"297.338 321 OFFCURVE",
"372.891 303.951 OFFCURVE",
"372.891 230.354 CURVE SMOOTH",
"372.891 222.269 OFFCURVE",
"371.98 213.502 OFFCURVE",
"370 204 CURVE SMOOTH",
"353 126 OFFCURVE",
"284 91 OFFCURVE",
"230 91 CURVE SMOOTH",
"162 91 OFFCURVE",
"137 136 OFFCURVE",
"131 154 CURVE SMOOTH",
"126 170 OFFCURVE",
"115 180 OFFCURVE",
"95 180 CURVE SMOOTH",
"68 180 OFFCURVE",
"43 160 OFFCURVE",
"37 134 CURVE SMOOTH",
"36 128 OFFCURVE",
"36 115 OFFCURVE",
"39 104 CURVE SMOOTH",
"54 40 OFFCURVE",
"125 -5 OFFCURVE",
"211 -5 CURVE SMOOTH"
);
}
);
};
layerId = "140D7E2C-8008-49AA-8FE3-CF6E53AFBA7D";
paths = (
{
closed = 1;
nodes = (
"297 -5 OFFCURVE",
"434 50 OFFCURVE",
"467 204 CURVE SMOOTH",
"470.704 221.04 OFFCURVE",
"472.579 237.652 OFFCURVE",
"472.579 253.567 CURVE SMOOTH",
"472.579 302.097 OFFCURVE",
"455.146 344.137 OFFCURVE",
"419 372 CURVE",
"469 406 OFFCURVE",
"505 452 OFFCURVE",
"516 506 CURVE SMOOTH",
"518.068 515.905 OFFCURVE",
"519.07 525.561 OFFCURVE",
"519.07 534.906 CURVE SMOOTH",
"519.07 611.409 OFFCURVE",
"451.918 667 OFFCURVE",
"353 667 CURVE SMOOTH",
"296 667 OFFCURVE",
"243 647 OFFCURVE",
"210 629 CURVE SMOOTH",
"172 608 OFFCURVE",
"161 590 OFFCURVE",
"158 574 CURVE SMOOTH",
"157.158 570.126 OFFCURVE",
"156.713 566.195 OFFCURVE",
"156.713 562.337 CURVE SMOOTH",
"156.713 543.287 OFFCURVE",
"167.558 526 OFFCURVE",
"195 526 CURVE SMOOTH",
"208 526 OFFCURVE",
"215 531 OFFCURVE",
"229 539 CURVE SMOOTH",
"248 551 OFFCURVE",
"283 570 OFFCURVE",
"333 570 CURVE SMOOTH",
"391.681 570 OFFCURVE",
"421.021 543.105 OFFCURVE",
"421.021 515.066 CURVE SMOOTH",
"421.021 512.047 OFFCURVE",
"420.681 509.014 OFFCURVE",
"420 506 CURVE SMOOTH",
"410 458 OFFCURVE",
"339 417 OFFCURVE",
"285 417 CURVE SMOOTH",
"257 417 OFFCURVE",
"232 396 OFFCURVE",
"226 369 CURVE SMOOTH",
"225.186 365.474 OFFCURVE",
"224.796 362.021 OFFCURVE",
"224.796 358.686 CURVE SMOOTH",
"224.796 337.437 OFFCURVE",
"240.662 321 OFFCURVE",
"264 321 CURVE SMOOTH",
"297.338 321 OFFCURVE",
"372.891 303.951 OFFCURVE",
"372.891 230.354 CURVE SMOOTH",
"372.891 222.269 OFFCURVE",
"371.98 213.502 OFFCURVE",
"370 204 CURVE SMOOTH",
"353 126 OFFCURVE",
"284 91 OFFCURVE",
"230 91 CURVE SMOOTH",
"162 91 OFFCURVE",
"137 136 OFFCURVE",
"131 154 CURVE SMOOTH",
"126 170 OFFCURVE",
"115 180 OFFCURVE",
"95 180 CURVE SMOOTH",
"68 180 OFFCURVE",
"43 160 OFFCURVE",
"37 134 CURVE SMOOTH",
"36 128 OFFCURVE",
"36 115 OFFCURVE",
"39 104 CURVE SMOOTH",
"54 40 OFFCURVE",
"125 -5 OFFCURVE",
"211 -5 CURVE SMOOTH"
);
}
);
userData = {
com.fontlab.hintData = {
hhints = (
{
position = -5;
width = 96;
},
{
position = 321;
width = 96;
},
{
position = 570;
width = 97;
}
);
vhints = (
{
position = 37;
width = 94;
},
{
position = 373;
width = 100;
},
{
position = 421;
width = 98;
}
);
};
};
width = 569;
}
);
unicode = 0033;
},
{
glyphname = four;
lastChange = "2020-01-15 20:22:40 +0000";
layers = (
{
background = {
paths = (
{
closed = 1;
nodes = (
"299 -1 OFFCURVE",
"310 7 OFFCURVE",
"312 18 CURVE SMOOTH",
"345 172 LINE",
"390 171 LINE SMOOTH",
"401 171 OFFCURVE",
"411 179 OFFCURVE",
"413 190 CURVE SMOOTH",
"415 200 OFFCURVE",
"410 208 OFFCURVE",
"398 208 CURVE SMOOTH",
"353 209 LINE",
"452 673 LINE SMOOTH",
"454 684 OFFCURVE",
"446 692 OFFCURVE",
"435 692 CURVE SMOOTH",
"429 692 OFFCURVE",
"423 689 OFFCURVE",
"419 684 CURVE SMOOTH",
"28 206 LINE SMOOTH",
"24 200 OFFCURVE",
"21 197 OFFCURVE",
"20 192 CURVE SMOOTH",
"19 186 OFFCURVE",
"21 177 OFFCURVE",
"33 177 CURVE SMOOTH",
"307 173 LINE",
"274 18 LINE SMOOTH",
"272 7 OFFCURVE",
"278 -1 OFFCURVE",
"289 -1 CURVE SMOOTH"
);
},
{
closed = 1;
nodes = (
"78 214 LINE",
"399 606 LINE",
"315 210 LINE"
);
}
);
};
layerId = master01;
paths = (
{
closed = 1;
nodes = (
"299 -1 OFFCURVE",
"310 7 OFFCURVE",
"312 18 CURVE SMOOTH",
"345 172 LINE",
"390 171 LINE SMOOTH",
"401 171 OFFCURVE",
"411 179 OFFCURVE",
"413 190 CURVE SMOOTH",
"415 200 OFFCURVE",
"410 208 OFFCURVE",
"398 208 CURVE SMOOTH",
"353 209 LINE",
"452 673 LINE SMOOTH",
"454 684 OFFCURVE",
"446 692 OFFCURVE",
"435 692 CURVE SMOOTH",
"429 692 OFFCURVE",
"423 689 OFFCURVE",
"419 684 CURVE SMOOTH",
"28 206 LINE SMOOTH",
"24 200 OFFCURVE",
"21 197 OFFCURVE",
"20 192 CURVE SMOOTH",
"19 186 OFFCURVE",
"21 177 OFFCURVE",
"33 177 CURVE SMOOTH",
"307 173 LINE",
"274 18 LINE SMOOTH",
"272 7 OFFCURVE",
"278 -1 OFFCURVE",
"289 -1 CURVE SMOOTH"
);
},
{
closed = 1;
nodes = (
"78 214 LINE",
"399 606 LINE",
"315 210 LINE"
);
}
);
userData = {
com.fontlab.hintData = {
hhints = (
{
position = -1;
width = 21;
},
{
position = 177;
width = 37;
}
);
};
};
width = 488;
},
{
background = {
paths = (
{
closed = 1;
nodes = (
"321 -1 OFFCURVE",
"337 12 OFFCURVE",
"340 27 CURVE SMOOTH",
"370 165 LINE",
"403 164 LINE SMOOTH",
"403.543 163.964 OFFCURVE",
"404.088 163.946 OFFCURVE",
"404.634 163.946 CURVE SMOOTH",
"419.142 163.946 OFFCURVE",
"434.109 176.58 OFFCURVE",
"437 192 CURVE SMOOTH",
"437.417 194.085 OFFCURVE",
"437.621 196.112 OFFCURVE",
"437.621 198.06 CURVE SMOOTH",
"437.621 210.123 OFFCURVE",
"429.776 219.139 OFFCURVE",
"416 220 CURVE SMOOTH",
"381 221 LINE",
"474 656 LINE SMOOTH",
"474.333 657.778 OFFCURVE",
"474.494 659.506 OFFCURVE",
"474.494 661.174 CURVE SMOOTH",
"474.494 674.519 OFFCURVE",
"464.222 684 OFFCURVE",
"450 684 CURVE SMOOTH",
"441 684 OFFCURVE",
"432 679 OFFCURVE",
"425 671 CURVE SMOOTH",
"50 213 LINE SMOOTH",
"46 208 OFFCURVE",
"43 204 OFFCURVE",
"42 198 CURVE SMOOTH",
"41.469 196.009 OFFCURVE",
"41.22 194.054 OFFCURVE",
"41.22 192.16 CURVE SMOOTH",
"41.22 179.779 OFFCURVE",
"51.858 170 OFFCURVE",
"64 170 CURVE SMOOTH",
"314 166 LINE",
"284 27 LINE SMOOTH",
"283.615 25.073 OFFCURVE",
"283.427 23.18 OFFCURVE",
"283.427 21.343 CURVE SMOOTH",
"283.427 8.875 OFFCURVE",
"292.055 -1 OFFCURVE",
"306 -1 CURVE SMOOTH"
);
},
{
closed = 1;
nodes = (
"125 225 LINE",
"397 556 LINE",
"326 222 LINE"
);
}
);
};
layerId = "ACFB53BD-70C1-480F-BE56-298851F5C10E";
paths = (
{
closed = 1;
nodes = (
"321 -1 OFFCURVE",
"337 12 OFFCURVE",
"340 27 CURVE SMOOTH",
"370 165 LINE",
"403 164 LINE SMOOTH",
"403.543 163.964 OFFCURVE",
"404.088 163.946 OFFCURVE",
"404.634 163.946 CURVE SMOOTH",
"419.142 163.946 OFFCURVE",
"434.109 176.58 OFFCURVE",
"437 192 CURVE SMOOTH",
"437.417 194.085 OFFCURVE",
"437.621 196.112 OFFCURVE",
"437.621 198.06 CURVE SMOOTH",
"437.621 210.123 OFFCURVE",
"429.776 219.139 OFFCURVE",
"416 220 CURVE SMOOTH",
"381 221 LINE",
"474 656 LINE SMOOTH",
"474.333 657.778 OFFCURVE",
"474.494 659.506 OFFCURVE",
"474.494 661.174 CURVE SMOOTH",
"474.494 674.519 OFFCURVE",
"464.222 684 OFFCURVE",
"450 684 CURVE SMOOTH",
"441 684 OFFCURVE",
"432 679 OFFCURVE",
"425 671 CURVE SMOOTH",
"50 213 LINE SMOOTH",
"46 208 OFFCURVE",
"43 204 OFFCURVE",
"42 198 CURVE SMOOTH",
"41.469 196.009 OFFCURVE",
"41.22 194.054 OFFCURVE",
"41.22 192.16 CURVE SMOOTH",
"41.22 179.779 OFFCURVE",
"51.858 170 OFFCURVE",
"64 170 CURVE SMOOTH",
"314 166 LINE",
"284 27 LINE SMOOTH",
"283.615 25.073 OFFCURVE",
"283.427 23.18 OFFCURVE",
"283.427 21.343 CURVE SMOOTH",
"283.427 8.875 OFFCURVE",
"292.055 -1 OFFCURVE",
"306 -1 CURVE SMOOTH"
);
},
{
closed = 1;
nodes = (
"125 225 LINE",
"397 556 LINE",
"326 222 LINE"
);
}
);
userData = {
com.fontlab.hintData = {
hhints = (
{
position = 165;
width = 56;
}
);
};
};
width = 508;
},
{
background = {
paths = (
{
closed = 1;
nodes = (
"323 -1 OFFCURVE",
"351 22 OFFCURVE",
"356 47 CURVE SMOOTH",
"378 149 LINE",
"384 149 LINE SMOOTH",
"410 149 OFFCURVE",
"439 170 OFFCURVE",
"444 197 CURVE",
"444.925 201.008 OFFCURVE",
"445.375 204.921 OFFCURVE",
"445.375 208.673 CURVE SMOOTH",
"445.375 229.26 OFFCURVE",
"431.838 245 OFFCURVE",
"409 245 CURVE SMOOTH",
"399 245 LINE",
"478 619 LINE SMOOTH",
"478.811 622.65 OFFCURVE",
"479.202 626.191 OFFCURVE",
"479.202 629.585 CURVE SMOOTH",
"479.202 651.295 OFFCURVE",
"463.214 667 OFFCURVE",
"439 667 CURVE SMOOTH",
"421 667 OFFCURVE",
"407 659 OFFCURVE",
"394 644 CURVE SMOOTH",
"53 228 LINE SMOOTH",
"46 219 OFFCURVE",
"41 211 OFFCURVE",
"39 201 CURVE SMOOTH",
"38.237 197.032 OFFCURVE",
"37.846 193.181 OFFCURVE",
"37.846 189.503 CURVE SMOOTH",
"37.846 169.079 OFFCURVE",
"49.883 154 OFFCURVE",
"77 154 CURVE SMOOTH",
"282 151 LINE",
"259 47 LINE SMOOTH",
"258.387 43.934 OFFCURVE",
"258.09 40.899 OFFCURVE",
"258.09 37.932 CURVE SMOOTH",
"258.09 16.705 OFFCURVE",
"273.311 -1 OFFCURVE",
"297 -1 CURVE SMOOTH"
);
},
{
closed = 1;
nodes = (
"183 250 LINE",
"345 447 LINE",
"302 247 LINE"
);
}
);
};
layerId = "140D7E2C-8008-49AA-8FE3-CF6E53AFBA7D";
paths = (
{
closed = 1;
nodes = (
"323 -1 OFFCURVE",
"351 22 OFFCURVE",
"356 47 CURVE SMOOTH",
"378 149 LINE",
"384 149 LINE SMOOTH",
"410 149 OFFCURVE",
"439 170 OFFCURVE",
"444 197 CURVE",
"444.925 201.008 OFFCURVE",
"445.375 204.921 OFFCURVE",
"445.375 208.673 CURVE SMOOTH",
"445.375 229.26 OFFCURVE",
"431.838 245 OFFCURVE",
"409 245 CURVE SMOOTH",
"399 245 LINE",
"478 619 LINE SMOOTH",
"478.811 622.65 OFFCURVE",
"479.202 626.191 OFFCURVE",
"479.202 629.585 CURVE SMOOTH",
"479.202 651.295 OFFCURVE",
"463.214 667 OFFCURVE",
"439 667 CURVE SMOOTH",
"421 667 OFFCURVE",
"407 659 OFFCURVE",
"394 644 CURVE SMOOTH",
"53 228 LINE SMOOTH",
"46 219 OFFCURVE",
"41 211 OFFCURVE",
"39 201 CURVE SMOOTH",
"38.237 197.032 OFFCURVE",
"37.846 193.181 OFFCURVE",
"37.846 189.503 CURVE SMOOTH",
"37.846 169.079 OFFCURVE",
"49.883 154 OFFCURVE",
"77 154 CURVE SMOOTH",
"282 151 LINE",
"259 47 LINE SMOOTH",
"258.387 43.934 OFFCURVE",
"258.09 40.899 OFFCURVE",
"258.09 37.932 CURVE SMOOTH",
"258.09 16.705 OFFCURVE",
"273.311 -1 OFFCURVE",
"297 -1 CURVE SMOOTH"
);
},
{
closed = 1;
nodes = (
"183 250 LINE",
"345 447 LINE",
"302 247 LINE"
);
}
);
userData = {
com.fontlab.hintData = {
hhints = (
{
position = -1;
width = 21;
},
{
position = 149;
width = 96;
}
);
};
};
width = 534;
}
);
unicode = 0034;
},
{
glyphname = five;
lastChange = "2020-01-15 20:21:23 +0000";
layers = (
{
background = {
paths = (
{
closed = 1;
nodes = (
"321 -3 OFFCURVE",
"454 113 OFFCURVE",
"483 253 CURVE",
"488 275 OFFCURVE",
"490 295 OFFCURVE",
"490 315 CURVE SMOOTH",
"490 417 OFFCURVE",
"425 482 OFFCURVE",
"326 482 CURVE SMOOTH",
"271 482 OFFCURVE",
"213 457 OFFCURVE",
"167 433 CURVE",
"232 643 LINE",
"519 643 LINE SMOOTH",
"529 643 OFFCURVE",
"539 651 OFFCURVE",
"541 662 CURVE SMOOTH",
"543 672 OFFCURVE",
"537 680 OFFCURVE",
"527 680 CURVE SMOOTH",
"223 680 LINE SMOOTH",
"214 680 OFFCURVE",
"205 673 OFFCURVE",
"202 664 CURVE SMOOTH",
"114 390 LINE",
"113 388 OFFCURVE",
"113 386 OFFCURVE",
"113 384 CURVE SMOOTH",
"113 375 OFFCURVE",
"119 367 OFFCURVE",
"130 367 CURVE SMOOTH",
"135 367 OFFCURVE",
"140 369 OFFCURVE",
"147 375 CURVE SMOOTH",
"160 386 OFFCURVE",
"227 445 OFFCURVE",
"318 445 CURVE SMOOTH",
"413 445 OFFCURVE",
"452 380 OFFCURVE",
"452 305 CURVE SMOOTH",
"452 288 OFFCURVE",
"450 271 OFFCURVE",
"446 253 CURVE SMOOTH",
"421 135 OFFCURVE",
"310 34 OFFCURVE",
"210 34 CURVE SMOOTH",
"136 34 OFFCURVE",
"95 66 OFFCURVE",
"67 122 CURVE SMOOTH",
"64 129 OFFCURVE",
"61 133 OFFCURVE",
"52 133 CURVE SMOOTH",
"42 133 OFFCURVE",
"31 125 OFFCURVE",
"29 115 CURVE SMOOTH",
"28 110 OFFCURVE",
"28 107 OFFCURVE",
"29 104 CURVE SMOOTH",
"37 74 OFFCURVE",
"90 -3 OFFCURVE",
"202 -3 CURVE SMOOTH"
);
}
);
};
layerId = master01;
paths = (
{
closed = 1;
nodes = (
"321 -3 OFFCURVE",
"454 113 OFFCURVE",
"483 253 CURVE",
"488 275 OFFCURVE",
"490 295 OFFCURVE",
"490 315 CURVE SMOOTH",
"490 417 OFFCURVE",
"425 482 OFFCURVE",
"326 482 CURVE SMOOTH",
"271 482 OFFCURVE",
"213 457 OFFCURVE",
"167 433 CURVE",
"232 643 LINE",
"519 643 LINE SMOOTH",
"529 643 OFFCURVE",
"539 651 OFFCURVE",
"541 662 CURVE SMOOTH",
"543 672 OFFCURVE",
"537 680 OFFCURVE",
"527 680 CURVE SMOOTH",
"223 680 LINE SMOOTH",
"214 680 OFFCURVE",
"205 673 OFFCURVE",
"202 664 CURVE SMOOTH",
"114 390 LINE",
"113 388 OFFCURVE",
"113 386 OFFCURVE",
"113 384 CURVE SMOOTH",
"113 375 OFFCURVE",
"119 367 OFFCURVE",
"130 367 CURVE SMOOTH",
"135 367 OFFCURVE",
"140 369 OFFCURVE",
"147 375 CURVE SMOOTH",
"160 386 OFFCURVE",
"227 445 OFFCURVE",
"318 445 CURVE SMOOTH",
"413 445 OFFCURVE",
"452 380 OFFCURVE",
"452 305 CURVE SMOOTH",
"452 288 OFFCURVE",
"450 271 OFFCURVE",
"446 253 CURVE SMOOTH",
"421 135 OFFCURVE",
"310 34 OFFCURVE",
"210 34 CURVE SMOOTH",
"136 34 OFFCURVE",
"95 66 OFFCURVE",
"67 122 CURVE SMOOTH",
"64 129 OFFCURVE",
"61 133 OFFCURVE",
"52 133 CURVE SMOOTH",
"42 133 OFFCURVE",
"31 125 OFFCURVE",
"29 115 CURVE SMOOTH",
"28 110 OFFCURVE",
"28 107 OFFCURVE",
"29 104 CURVE SMOOTH",
"37 74 OFFCURVE",
"90 -3 OFFCURVE",
"202 -3 CURVE SMOOTH"
);
}
);
userData = {
com.fontlab.hintData = {
hhints = (
{
position = -3;
width = 37;
},
{
position = 445;
width = 37;
},
{
position = 643;
width = 37;
}
);
vhints = (
{
position = 516;
width = 38;
}
);
};
};
width = 538;
},
{
background = {
paths = (
{
closed = 1;
nodes = (
"330 -3 OFFCURVE",
"463 112 OFFCURVE",
"493 253 CURVE SMOOTH",
"497.687 274.559 OFFCURVE",
"499.933 294.995 OFFCURVE",
"499.933 314.133 CURVE SMOOTH",
"499.933 417.5 OFFCURVE",
"434.409 483 OFFCURVE",
"334 483 CURVE SMOOTH",
"279 483 OFFCURVE",
"231 464 OFFCURVE",
"195 445 CURVE",
"249 617 LINE",
"515 617 LINE SMOOTH",
"530 617 OFFCURVE",
"545 629 OFFCURVE",
"549 645 CURVE SMOOTH",
"549.359 646.797 OFFCURVE",
"549.532 648.565 OFFCURVE",
"549.532 650.286 CURVE SMOOTH",
"549.532 662.928 OFFCURVE",
"540.203 673 OFFCURVE",
"527 673 CURVE SMOOTH",
"236 673 LINE SMOOTH",
"222 673 OFFCURVE",
"206 662 OFFCURVE",
"202 648 CURVE SMOOTH",
"119 385 LINE SMOOTH",
"117.967 381.489 OFFCURVE",
"117.446 378.02 OFFCURVE",
"117.446 374.726 CURVE SMOOTH",
"117.446 362.073 OFFCURVE",
"125.131 352 OFFCURVE",
"141 352 CURVE SMOOTH",
"149 352 OFFCURVE",
"156 355 OFFCURVE",
"164 362 CURVE SMOOTH",
"171 367 OFFCURVE",
"234 427 OFFCURVE",
"322 427 CURVE SMOOTH",
"407.297 427 OFFCURVE",
"442.44 368.927 OFFCURVE",
"442.44 301.029 CURVE SMOOTH",
"442.44 285.346 OFFCURVE",
"440.565 269.138 OFFCURVE",
"437 253 CURVE SMOOTH",
"414 145 OFFCURVE",
"314 53 OFFCURVE",
"223 53 CURVE SMOOTH",
"156 53 OFFCURVE",
"118 82 OFFCURVE",
"93 133 CURVE SMOOTH",
"88 142 OFFCURVE",
"85 148 OFFCURVE",
"71 148 CURVE SMOOTH",
"56 148 OFFCURVE",
"40 135 OFFCURVE",
"37 120 CURVE SMOOTH",
"36 115 OFFCURVE",
"36 110 OFFCURVE",
"37 106 CURVE SMOOTH",
"45 75 OFFCURVE",
"98 -3 OFFCURVE",
"211 -3 CURVE SMOOTH"
);
}
);
};
layerId = "ACFB53BD-70C1-480F-BE56-298851F5C10E";
paths = (
{
closed = 1;
nodes = (
"330 -3 OFFCURVE",
"463 112 OFFCURVE",
"493 253 CURVE SMOOTH",
"497.687 274.559 OFFCURVE",
"499.933 294.995 OFFCURVE",
"499.933 314.133 CURVE SMOOTH",
"499.933 417.5 OFFCURVE",
"434.409 483 OFFCURVE",
"334 483 CURVE SMOOTH",
"279 483 OFFCURVE",
"231 464 OFFCURVE",
"195 445 CURVE",
"249 617 LINE",
"515 617 LINE SMOOTH",
"530 617 OFFCURVE",
"545 629 OFFCURVE",
"549 645 CURVE SMOOTH",
"549.359 646.797 OFFCURVE",
"549.532 648.565 OFFCURVE",
"549.532 650.286 CURVE SMOOTH",
"549.532 662.928 OFFCURVE",
"540.203 673 OFFCURVE",
"527 673 CURVE SMOOTH",
"236 673 LINE SMOOTH",
"222 673 OFFCURVE",
"206 662 OFFCURVE",
"202 648 CURVE SMOOTH",
"119 385 LINE SMOOTH",
"117.967 381.489 OFFCURVE",
"117.446 378.02 OFFCURVE",
"117.446 374.726 CURVE SMOOTH",
"117.446 362.073 OFFCURVE",
"125.131 352 OFFCURVE",
"141 352 CURVE SMOOTH",
"149 352 OFFCURVE",
"156 355 OFFCURVE",
"164 362 CURVE SMOOTH",
"171 367 OFFCURVE",
"234 427 OFFCURVE",
"322 427 CURVE SMOOTH",
"407.297 427 OFFCURVE",
"442.44 368.927 OFFCURVE",
"442.44 301.029 CURVE SMOOTH",
"442.44 285.346 OFFCURVE",
"440.565 269.138 OFFCURVE",
"437 253 CURVE SMOOTH",
"414 145 OFFCURVE",
"314 53 OFFCURVE",
"223 53 CURVE SMOOTH",
"156 53 OFFCURVE",
"118 82 OFFCURVE",
"93 133 CURVE SMOOTH",
"88 142 OFFCURVE",
"85 148 OFFCURVE",
"71 148 CURVE SMOOTH",
"56 148 OFFCURVE",
"40 135 OFFCURVE",
"37 120 CURVE SMOOTH",
"36 115 OFFCURVE",
"36 110 OFFCURVE",
"37 106 CURVE SMOOTH",
"45 75 OFFCURVE",
"98 -3 OFFCURVE",
"211 -3 CURVE SMOOTH"
);
}
);
userData = {
com.fontlab.hintData = {
hhints = (
{
position = -3;
width = 56;
},
{
position = 427;
width = 56;
},
{
position = 617;
width = 56;
}
);
vhints = (
{
position = 442;
width = 57;
}
);
};
};
width = 559;
},
{
background = {
paths = (
{
closed = 1;
nodes = (
"332 -3 OFFCURVE",
"466 112 OFFCURVE",
"496 253 CURVE SMOOTH",
"500.598 274.306 OFFCURVE",
"502.8 294.507 OFFCURVE",
"502.8 313.442 CURVE SMOOTH",
"502.8 418.042 OFFCURVE",
"435.607 484 OFFCURVE",
"334 484 CURVE SMOOTH",
"299 484 OFFCURVE",
"266 477 OFFCURVE",
"238 466 CURVE",
"268 560 LINE",
"489 560 LINE SMOOTH",
"514 560 OFFCURVE",
"541 581 OFFCURVE",
"547 609 CURVE SMOOTH",
"547.566 611.829 OFFCURVE",
"547.837 614.632 OFFCURVE",
"547.837 617.379 CURVE SMOOTH",
"547.837 638.91 OFFCURVE",
"531.171 657 OFFCURVE",
"509 657 CURVE SMOOTH",
"244 657 LINE SMOOTH",
"220 657 OFFCURVE",
"194 638 OFFCURVE",
"187 614 CURVE SMOOTH",
"112 375 LINE SMOOTH",
"110.081 368.604 OFFCURVE",
"109.117 362.435 OFFCURVE",
"109.117 356.687 CURVE SMOOTH",
"109.117 335.476 OFFCURVE",
"122.249 320 OFFCURVE",
"149 320 CURVE SMOOTH",
"163 320 OFFCURVE",
"174 324 OFFCURVE",
"188 335 CURVE SMOOTH",
"199 344 OFFCURVE",
"249 388 OFFCURVE",
"314 388 CURVE SMOOTH",
"378.316 388 OFFCURVE",
"404.498 344.05 OFFCURVE",
"404.498 292.002 CURVE SMOOTH",
"404.498 279.31 OFFCURVE",
"402.941 266.136 OFFCURVE",
"400 253 CURVE",
"382 166 OFFCURVE",
"303 94 OFFCURVE",
"232 94 CURVE SMOOTH",
"181 94 OFFCURVE",
"150 116 OFFCURVE",
"131 156 CURVE SMOOTH",
"124 170 OFFCURVE",
"118 180 OFFCURVE",
"95 180 CURVE SMOOTH",
"70 180 OFFCURVE",
"42 157 OFFCURVE",
"37 132 CURVE SMOOTH",
"35 124 OFFCURVE",
"35 116 OFFCURVE",
"37 109 CURVE SMOOTH",
"45 77 OFFCURVE",
"98 -3 OFFCURVE",
"212 -3 CURVE SMOOTH"
);
}
);
};
layerId = "140D7E2C-8008-49AA-8FE3-CF6E53AFBA7D";
paths = (
{
closed = 1;
nodes = (
"332 -3 OFFCURVE",
"466 112 OFFCURVE",
"496 253 CURVE SMOOTH",
"500.598 274.306 OFFCURVE",
"502.8 294.507 OFFCURVE",
"502.8 313.442 CURVE SMOOTH",
"502.8 418.042 OFFCURVE",
"435.607 484 OFFCURVE",
"334 484 CURVE SMOOTH",
"299 484 OFFCURVE",
"266 477 OFFCURVE",
"238 466 CURVE",
"268 560 LINE",
"489 560 LINE SMOOTH",
"514 560 OFFCURVE",
"541 581 OFFCURVE",
"547 609 CURVE SMOOTH",
"547.566 611.829 OFFCURVE",
"547.837 614.632 OFFCURVE",
"547.837 617.379 CURVE SMOOTH",
"547.837 638.91 OFFCURVE",
"531.171 657 OFFCURVE",
"509 657 CURVE SMOOTH",
"244 657 LINE SMOOTH",
"220 657 OFFCURVE",
"194 638 OFFCURVE",
"187 614 CURVE SMOOTH",
"112 375 LINE SMOOTH",
"110.081 368.604 OFFCURVE",
"109.117 362.435 OFFCURVE",
"109.117 356.687 CURVE SMOOTH",
"109.117 335.476 OFFCURVE",
"122.249 320 OFFCURVE",
"149 320 CURVE SMOOTH",
"163 320 OFFCURVE",
"174 324 OFFCURVE",
"188 335 CURVE SMOOTH",
"199 344 OFFCURVE",
"249 388 OFFCURVE",
"314 388 CURVE SMOOTH",
"378.316 388 OFFCURVE",
"404.498 344.05 OFFCURVE",
"404.498 292.002 CURVE SMOOTH",
"404.498 279.31 OFFCURVE",
"402.941 266.136 OFFCURVE",
"400 253 CURVE",
"382 166 OFFCURVE",
"303 94 OFFCURVE",
"232 94 CURVE SMOOTH",
"181 94 OFFCURVE",
"150 116 OFFCURVE",
"131 156 CURVE SMOOTH",
"124 170 OFFCURVE",
"118 180 OFFCURVE",
"95 180 CURVE SMOOTH",
"70 180 OFFCURVE",
"42 157 OFFCURVE",
"37 132 CURVE SMOOTH",
"35 124 OFFCURVE",
"35 116 OFFCURVE",
"37 109 CURVE SMOOTH",
"45 77 OFFCURVE",
"98 -3 OFFCURVE",
"212 -3 CURVE SMOOTH"
);
}
);
userData = {
com.fontlab.hintData = {
hhints = (
{
position = -3;
width = 97;
},
{
position = 388;
width = 96;
},
{
position = 560;
width = 97;
}
);
vhints = (
{
position = 404;
width = 98;
}
);
};
};
width = 585;
}
);
unicode = 0035;
},
{
glyphname = six;
lastChange = "2020-01-15 20:21:32 +0000";
layers = (
{
background = {
paths = (
{
closed = 1;
nodes = (
"276 -3 OFFCURVE",
"431 40 OFFCURVE",
"474 242 CURVE SMOOTH",
"478 262 OFFCURVE",
"480 280 OFFCURVE",
"480 297 CURVE SMOOTH",
"480 392 OFFCURVE",
"416 442 OFFCURVE",
"327 442 CURVE SMOOTH",
"264 442 OFFCURVE",
"185 413 OFFCURVE",
"135 377 CURVE",
"205 501 OFFCURVE",
"324 605 OFFCURVE",
"440 656 CURVE SMOOTH",
"446 659 OFFCURVE",
"452 665 OFFCURVE",
"453 672 CURVE SMOOTH",
"455 681 OFFCURVE",
"449 689 OFFCURVE",
"440 689 CURVE SMOOTH",
"435 689 OFFCURVE",
"431 688 OFFCURVE",
"424 685 CURVE SMOOTH",
"372 661 OFFCURVE",
"122 545 OFFCURVE",
"59 247 CURVE SMOOTH",
"53 217 OFFCURVE",
"50 191 OFFCURVE",
"50 168 CURVE SMOOTH",
"50 40 OFFCURVE",
"134 -3 OFFCURVE",
"223 -3 CURVE SMOOTH"
);
},
{
closed = 1;
nodes = (
"160 31 OFFCURVE",
"84 58 OFFCURVE",
"84 172 CURVE SMOOTH",
"84 193 OFFCURVE",
"87 218 OFFCURVE",
"93 247 CURVE SMOOTH",
"99 274 OFFCURVE",
"105 301 OFFCURVE",
"115 326 CURVE",
"138 347 OFFCURVE",
"214 406 OFFCURVE",
"320 407 CURVE SMOOTH",
"353 407 OFFCURVE",
"447 398 OFFCURVE",
"447 291 CURVE SMOOTH",
"447 276 OFFCURVE",
"445 260 OFFCURVE",
"441 242 CURVE SMOOTH",
"404 69 OFFCURVE",
"277 31 OFFCURVE",
"230 31 CURVE SMOOTH"
);
}
);
};
layerId = master01;
paths = (
{
closed = 1;
nodes = (
"276 -3 OFFCURVE",
"431 40 OFFCURVE",
"474 242 CURVE SMOOTH",
"478 262 OFFCURVE",
"480 280 OFFCURVE",
"480 297 CURVE SMOOTH",
"480 392 OFFCURVE",
"416 442 OFFCURVE",
"327 442 CURVE SMOOTH",
"264 442 OFFCURVE",
"185 413 OFFCURVE",
"135 377 CURVE",
"205 501 OFFCURVE",
"324 605 OFFCURVE",
"440 656 CURVE SMOOTH",
"446 659 OFFCURVE",
"452 665 OFFCURVE",
"453 672 CURVE SMOOTH",
"455 681 OFFCURVE",
"449 689 OFFCURVE",
"440 689 CURVE SMOOTH",
"435 689 OFFCURVE",
"431 688 OFFCURVE",
"424 685 CURVE SMOOTH",
"372 661 OFFCURVE",
"122 545 OFFCURVE",
"59 247 CURVE SMOOTH",
"53 217 OFFCURVE",
"50 191 OFFCURVE",
"50 168 CURVE SMOOTH",
"50 40 OFFCURVE",
"134 -3 OFFCURVE",
"223 -3 CURVE SMOOTH"
);
},
{
closed = 1;
nodes = (
"160 31 OFFCURVE",
"84 58 OFFCURVE",
"84 172 CURVE SMOOTH",
"84 193 OFFCURVE",
"87 218 OFFCURVE",
"93 247 CURVE SMOOTH",
"99 274 OFFCURVE",
"105 301 OFFCURVE",
"115 326 CURVE",
"138 347 OFFCURVE",
"214 406 OFFCURVE",
"320 407 CURVE SMOOTH",
"353 407 OFFCURVE",
"447 398 OFFCURVE",
"447 291 CURVE SMOOTH",
"447 276 OFFCURVE",
"445 260 OFFCURVE",
"441 242 CURVE SMOOTH",
"404 69 OFFCURVE",
"277 31 OFFCURVE",
"230 31 CURVE SMOOTH"
);
}
);
userData = {
com.fontlab.hintData = {
hhints = (
{
position = -3;
width = 34;
},
{
position = 407;
width = 35;
},
{
position = 656;
width = 33;
}
);
vhints = (
{
position = 106;
width = 34;
},
{
position = 503;
width = 34;
}
);
};
};
width = 526;
},
{
background = {
paths = (
{
closed = 1;
nodes = (
"277 -3 OFFCURVE",
"433 40 OFFCURVE",
"476 242 CURVE SMOOTH",
"480.163 261.773 OFFCURVE",
"482.137 280.132 OFFCURVE",
"482.137 297.059 CURVE SMOOTH",
"482.137 393.991 OFFCURVE",
"417.39 444 OFFCURVE",
"328 444 CURVE SMOOTH",
"265 444 OFFCURVE",
"211 424 OFFCURVE",
"169 402 CURVE",
"225 501 OFFCURVE",
"326 583 OFFCURVE",
"436 631 CURVE SMOOTH",
"445 635 OFFCURVE",
"453 644 OFFCURVE",
"456 655 CURVE SMOOTH",
"456.388 656.938 OFFCURVE",
"456.575 658.808 OFFCURVE",
"456.575 660.597 CURVE SMOOTH",
"456.575 672.658 OFFCURVE",
"448.062 681 OFFCURVE",
"435 681 CURVE SMOOTH",
"428 681 OFFCURVE",
"423 679 OFFCURVE",
"416 676 CURVE SMOOTH",
"365 653 OFFCURVE",
"120 539 OFFCURVE",
"58 247 CURVE SMOOTH",
"51.786 217.485 OFFCURVE",
"48.927 191.107 OFFCURVE",
"48.927 167.603 CURVE SMOOTH",
"48.927 39.807 OFFCURVE",
"133.466 -3 OFFCURVE",
"223 -3 CURVE SMOOTH"
);
},
{
closed = 1;
nodes = (
"170.331 50 OFFCURVE",
"101.749 73.862 OFFCURVE",
"101.749 177.442 CURVE SMOOTH",
"101.749 197.503 OFFCURVE",
"104.321 220.554 OFFCURVE",
"110 247 CURVE SMOOTH",
"115 272 OFFCURVE",
"121 296 OFFCURVE",
"131 320 CURVE",
"154 339 OFFCURVE",
"224 391 OFFCURVE",
"317 391 CURVE SMOOTH",
"346.005 391 OFFCURVE",
"429.087 382.502 OFFCURVE",
"429.087 286.742 CURVE SMOOTH",
"429.087 273.552 OFFCURVE",
"427.511 258.707 OFFCURVE",
"424 242 CURVE SMOOTH",
"390 84 OFFCURVE",
"276 50 OFFCURVE",
"234 50 CURVE SMOOTH"
);
}
);
};
layerId = "ACFB53BD-70C1-480F-BE56-298851F5C10E";
paths = (
{
closed = 1;
nodes = (
"277 -3 OFFCURVE",
"433 40 OFFCURVE",
"476 242 CURVE SMOOTH",
"480.163 261.773 OFFCURVE",
"482.137 280.132 OFFCURVE",
"482.137 297.059 CURVE SMOOTH",
"482.137 393.991 OFFCURVE",
"417.39 444 OFFCURVE",
"328 444 CURVE SMOOTH",
"265 444 OFFCURVE",
"211 424 OFFCURVE",
"169 402 CURVE",
"225 501 OFFCURVE",
"326 583 OFFCURVE",
"436 631 CURVE SMOOTH",
"445 635 OFFCURVE",
"453 644 OFFCURVE",
"456 655 CURVE SMOOTH",
"456.388 656.938 OFFCURVE",
"456.575 658.808 OFFCURVE",
"456.575 660.597 CURVE SMOOTH",
"456.575 672.658 OFFCURVE",
"448.062 681 OFFCURVE",
"435 681 CURVE SMOOTH",
"428 681 OFFCURVE",
"423 679 OFFCURVE",
"416 676 CURVE SMOOTH",
"365 653 OFFCURVE",
"120 539 OFFCURVE",
"58 247 CURVE SMOOTH",
"51.786 217.485 OFFCURVE",
"48.927 191.107 OFFCURVE",
"48.927 167.603 CURVE SMOOTH",
"48.927 39.807 OFFCURVE",
"133.466 -3 OFFCURVE",
"223 -3 CURVE SMOOTH"
);
},
{
closed = 1;
nodes = (
"170.331 50 OFFCURVE",
"101.749 73.862 OFFCURVE",
"101.749 177.442 CURVE SMOOTH",
"101.749 197.503 OFFCURVE",
"104.321 220.554 OFFCURVE",
"110 247 CURVE SMOOTH",
"115 272 OFFCURVE",
"121 296 OFFCURVE",
"131 320 CURVE",
"154 339 OFFCURVE",
"224 391 OFFCURVE",
"317 391 CURVE SMOOTH",
"346.005 391 OFFCURVE",
"429.087 382.502 OFFCURVE",
"429.087 286.742 CURVE SMOOTH",
"429.087 273.552 OFFCURVE",
"427.511 258.707 OFFCURVE",
"424 242 CURVE SMOOTH",
"390 84 OFFCURVE",
"276 50 OFFCURVE",
"234 50 CURVE SMOOTH"
);
}
);
userData = {
com.fontlab.hintData = {
hhints = (
{
position = -3;
width = 53;
},
{
position = 391;
width = 53;
},
{
position = 631;
width = 50;
}
);
vhints = (
{
position = 49;
width = 53;
},
{
position = 429;
width = 53;
}
);
};
};
width = 546;
},
{
background = {
paths = (
{
closed = 1;
nodes = (
"278 -3 OFFCURVE",
"437 40 OFFCURVE",
"480 243 CURVE SMOOTH",
"484.335 263.182 OFFCURVE",
"486.391 281.934 OFFCURVE",
"486.391 299.232 CURVE SMOOTH",
"486.391 397.642 OFFCURVE",
"419.854 449 OFFCURVE",
"328 449 CURVE SMOOTH",
"294 449 OFFCURVE",
"263 443 OFFCURVE",
"236 434 CURVE",
"285 495 OFFCURVE",
"351 543 OFFCURVE",
"426 575 CURVE SMOOTH",
"443 582 OFFCURVE",
"458 598 OFFCURVE",
"462 618 CURVE SMOOTH",
"462.644 621.347 OFFCURVE",
"462.956 624.594 OFFCURVE",
"462.956 627.713 CURVE SMOOTH",
"462.956 648.818 OFFCURVE",
"448.653 664 OFFCURVE",
"426 664 CURVE SMOOTH",
"416 664 OFFCURVE",
"407 661 OFFCURVE",
"397 657 CURVE SMOOTH",
"349 635 OFFCURVE",
"114 526 OFFCURVE",
"55 247 CURVE SMOOTH",
"48.878 217.919 OFFCURVE",
"46.059 191.883 OFFCURVE",
"46.059 168.642 CURVE SMOOTH",
"46.059 40.038 OFFCURVE",
"132.377 -3 OFFCURVE",
"223 -3 CURVE SMOOTH"
);
},
{
closed = 1;
nodes = (
"193.679 91 OFFCURVE",
"141.563 109.868 OFFCURVE",
"141.563 191.415 CURVE SMOOTH",
"141.563 207.419 OFFCURVE",
"143.571 225.837 OFFCURVE",
"148 247 CURVE SMOOTH",
"152 265 OFFCURVE",
"156 283 OFFCURVE",
"162 302 CURVE",
"186 320 OFFCURVE",
"239 355 OFFCURVE",
"308 355 CURVE SMOOTH",
"329.056 355 OFFCURVE",
"390.908 348.842 OFFCURVE",
"390.908 277.1 CURVE SMOOTH",
"390.908 267.069 OFFCURVE",
"389.699 255.757 OFFCURVE",
"387 243 CURVE SMOOTH",
"361 118 OFFCURVE",
"275 91 OFFCURVE",
"243 91 CURVE SMOOTH"
);
}
);
};
layerId = "140D7E2C-8008-49AA-8FE3-CF6E53AFBA7D";
paths = (
{
closed = 1;
nodes = (
"278 -3 OFFCURVE",
"437 40 OFFCURVE",
"480 243 CURVE SMOOTH",
"484.335 263.182 OFFCURVE",
"486.391 281.934 OFFCURVE",
"486.391 299.232 CURVE SMOOTH",
"486.391 397.642 OFFCURVE",
"419.854 449 OFFCURVE",
"328 449 CURVE SMOOTH",
"294 449 OFFCURVE",
"263 443 OFFCURVE",
"236 434 CURVE",
"285 495 OFFCURVE",
"351 543 OFFCURVE",
"426 575 CURVE SMOOTH",
"443 582 OFFCURVE",
"458 598 OFFCURVE",
"462 618 CURVE SMOOTH",
"462.644 621.347 OFFCURVE",
"462.956 624.594 OFFCURVE",
"462.956 627.713 CURVE SMOOTH",
"462.956 648.818 OFFCURVE",
"448.653 664 OFFCURVE",
"426 664 CURVE SMOOTH",
"416 664 OFFCURVE",
"407 661 OFFCURVE",
"397 657 CURVE SMOOTH",
"349 635 OFFCURVE",
"114 526 OFFCURVE",
"55 247 CURVE SMOOTH",
"48.878 217.919 OFFCURVE",
"46.059 191.883 OFFCURVE",
"46.059 168.642 CURVE SMOOTH",
"46.059 40.038 OFFCURVE",
"132.377 -3 OFFCURVE",
"223 -3 CURVE SMOOTH"
);
},
{
closed = 1;
nodes = (
"193.679 91 OFFCURVE",
"141.563 109.868 OFFCURVE",
"141.563 191.415 CURVE SMOOTH",
"141.563 207.419 OFFCURVE",
"143.571 225.837 OFFCURVE",
"148 247 CURVE SMOOTH",
"152 265 OFFCURVE",
"156 283 OFFCURVE",
"162 302 CURVE",
"186 320 OFFCURVE",
"239 355 OFFCURVE",
"308 355 CURVE SMOOTH",
"329.056 355 OFFCURVE",
"390.908 348.842 OFFCURVE",
"390.908 277.1 CURVE SMOOTH",
"390.908 267.069 OFFCURVE",
"389.699 255.757 OFFCURVE",
"387 243 CURVE SMOOTH",
"361 118 OFFCURVE",
"275 91 OFFCURVE",
"243 91 CURVE SMOOTH"
);
}
);
userData = {
com.fontlab.hintData = {
hhints = (
{
position = -3;
width = 94;
},
{
position = 355;
width = 94;
},
{
position = 575;
width = 89;
}
);
vhints = (
{
position = 46;
width = 96;
},
{
position = 391;
width = 95;
}
);
};
};
width = 572;
}
);
unicode = 0036;
},
{
glyphname = seven;
lastChange = "2020-01-15 20:21:41 +0000";
layers = (
{
background = {
paths = (
{
closed = 1;
nodes = (
"48 1 OFFCURVE",
"55 4 OFFCURVE",
"60 10 CURVE SMOOTH",
"517 649 LINE SMOOTH",
"519 652 OFFCURVE",
"521 654 OFFCURVE",
"521 658 CURVE",
"523 668 OFFCURVE",
"517 677 OFFCURVE",
"506 677 CURVE SMOOTH",
"131 677 LINE SMOOTH",
"121 677 OFFCURVE",
"111 669 OFFCURVE",
"109 659 CURVE SMOOTH",
"106 648 OFFCURVE",
"114 640 OFFCURVE",
"124 640 CURVE SMOOTH",
"469 640 LINE",
"30 28 LINE SMOOTH",
"29 26 OFFCURVE",
"27 23 OFFCURVE",
"27 20 CURVE",
"24 9 OFFCURVE",
"31 1 OFFCURVE",
"41 1 CURVE SMOOTH"
);
}
);
};
layerId = master01;
paths = (
{
closed = 1;
nodes = (
"48 1 OFFCURVE",
"55 4 OFFCURVE",
"60 10 CURVE SMOOTH",
"517 649 LINE SMOOTH",
"519 652 OFFCURVE",
"521 654 OFFCURVE",
"521 658 CURVE",
"523 668 OFFCURVE",
"517 677 OFFCURVE",
"506 677 CURVE SMOOTH",
"131 677 LINE SMOOTH",
"121 677 OFFCURVE",
"111 669 OFFCURVE",
"109 659 CURVE SMOOTH",
"106 648 OFFCURVE",
"114 640 OFFCURVE",
"124 640 CURVE SMOOTH",
"469 640 LINE",
"30 28 LINE SMOOTH",
"29 26 OFFCURVE",
"27 23 OFFCURVE",
"27 20 CURVE",
"24 9 OFFCURVE",
"31 1 OFFCURVE",
"41 1 CURVE SMOOTH"
);
}
);
userData = {
com.fontlab.hintData = {
hhints = (
{
position = 1;
width = 21;
},
{
position = 640;
width = 37;
}
);
};
};
width = 448;
},
{
background = {
paths = (
{
closed = 1;
nodes = (
"98 1 OFFCURVE",
"109 6 OFFCURVE",
"116 16 CURVE SMOOTH",
"555 629 LINE SMOOTH",
"558 633 OFFCURVE",
"560 637 OFFCURVE",
"561 641 CURVE SMOOTH",
"561.385 643.055 OFFCURVE",
"561.573 645.06 OFFCURVE",
"561.573 646.995 CURVE SMOOTH",
"561.573 660.125 OFFCURVE",
"552.945 670 OFFCURVE",
"539 670 CURVE SMOOTH",
"179 670 LINE SMOOTH",
"163 670 OFFCURVE",
"148 657 OFFCURVE",
"145 642 CURVE SMOOTH",
"144.615 639.945 OFFCURVE",
"144.427 637.956 OFFCURVE",
"144.427 636.05 CURVE SMOOTH",
"144.427 623.115 OFFCURVE",
"153.055 614 OFFCURVE",
"167 614 CURVE SMOOTH",
"482 614 LINE",
"71 41 LINE SMOOTH",
"68 37 OFFCURVE",
"67 33 OFFCURVE",
"66 29 CURVE SMOOTH",
"65.403 26.762 OFFCURVE",
"65.118 24.568 OFFCURVE",
"65.118 22.455 CURVE SMOOTH",
"65.118 10.41 OFFCURVE",
"74.388 1 OFFCURVE",
"88 1 CURVE SMOOTH"
);
}
);
};
layerId = "ACFB53BD-70C1-480F-BE56-298851F5C10E";
paths = (
{
closed = 1;
nodes = (
"98 1 OFFCURVE",
"109 6 OFFCURVE",
"116 16 CURVE SMOOTH",
"555 629 LINE SMOOTH",
"558 633 OFFCURVE",
"560 637 OFFCURVE",
"561 641 CURVE SMOOTH",
"561.385 643.055 OFFCURVE",
"561.573 645.06 OFFCURVE",
"561.573 646.995 CURVE SMOOTH",
"561.573 660.125 OFFCURVE",
"552.945 670 OFFCURVE",
"539 670 CURVE SMOOTH",
"179 670 LINE SMOOTH",
"163 670 OFFCURVE",
"148 657 OFFCURVE",
"145 642 CURVE SMOOTH",
"144.615 639.945 OFFCURVE",
"144.427 637.956 OFFCURVE",
"144.427 636.05 CURVE SMOOTH",
"144.427 623.115 OFFCURVE",
"153.055 614 OFFCURVE",
"167 614 CURVE SMOOTH",
"482 614 LINE",
"71 41 LINE SMOOTH",
"68 37 OFFCURVE",
"67 33 OFFCURVE",
"66 29 CURVE SMOOTH",
"65.403 26.762 OFFCURVE",
"65.118 24.568 OFFCURVE",
"65.118 22.455 CURVE SMOOTH",
"65.118 10.41 OFFCURVE",
"74.388 1 OFFCURVE",
"88 1 CURVE SMOOTH"
);
}
);
userData = {
com.fontlab.hintData = {
hhints = (
{
position = 614;
width = 56;
}
);
};
};
width = 501;
},
{
background = {
paths = (
{
closed = 1;
nodes = (
"116 1 OFFCURVE",
"135 8 OFFCURVE",
"148 27 CURVE SMOOTH",
"548 584 LINE",
"552 591 OFFCURVE",
"556 599 OFFCURVE",
"557 605 CURVE SMOOTH",
"557.848 608.817 OFFCURVE",
"558.257 612.533 OFFCURVE",
"558.257 616.102 CURVE SMOOTH",
"558.257 637.78 OFFCURVE",
"543.183 654 OFFCURVE",
"520 654 CURVE SMOOTH",
"193 654 LINE SMOOTH",
"166 654 OFFCURVE",
"140 631 OFFCURVE",
"134 606 CURVE",
"133.387 602.689 OFFCURVE",
"133.09 599.468 OFFCURVE",
"133.09 596.365 CURVE SMOOTH",
"133.09 574.165 OFFCURVE",
"148.311 558 OFFCURVE",
"172 558 CURVE SMOOTH",
"422 558 LINE",
"72 70 LINE SMOOTH",
"67 63 OFFCURVE",
"63 55 OFFCURVE",
"62 49 CURVE SMOOTH",
"61.387 45.934 OFFCURVE",
"61.09 42.899 OFFCURVE",
"61.09 39.932 CURVE SMOOTH",
"61.09 18.705 OFFCURVE",
"76.311 1 OFFCURVE",
"100 1 CURVE SMOOTH"
);
}
);
};
layerId = "140D7E2C-8008-49AA-8FE3-CF6E53AFBA7D";
paths = (
{
closed = 1;
nodes = (
"116 1 OFFCURVE",
"135 8 OFFCURVE",
"148 27 CURVE SMOOTH",
"548 584 LINE",
"552 591 OFFCURVE",
"556 599 OFFCURVE",
"557 605 CURVE SMOOTH",
"557.848 608.817 OFFCURVE",
"558.257 612.533 OFFCURVE",
"558.257 616.102 CURVE SMOOTH",
"558.257 637.78 OFFCURVE",
"543.183 654 OFFCURVE",
"520 654 CURVE SMOOTH",
"193 654 LINE SMOOTH",
"166 654 OFFCURVE",
"140 631 OFFCURVE",
"134 606 CURVE",
"133.387 602.689 OFFCURVE",
"133.09 599.468 OFFCURVE",
"133.09 596.365 CURVE SMOOTH",
"133.09 574.165 OFFCURVE",
"148.311 558 OFFCURVE",
"172 558 CURVE SMOOTH",
"422 558 LINE",
"72 70 LINE SMOOTH",
"67 63 OFFCURVE",
"63 55 OFFCURVE",
"62 49 CURVE SMOOTH",
"61.387 45.934 OFFCURVE",
"61.09 42.899 OFFCURVE",
"61.09 39.932 CURVE SMOOTH",
"61.09 18.705 OFFCURVE",
"76.311 1 OFFCURVE",
"100 1 CURVE SMOOTH"
);
}
);
userData = {
com.fontlab.hintData = {
hhints = (
{
position = 1;
width = 21;
},
{
position = 558;
width = 96;
}
);
};
};
width = 527;
}
);
unicode = 0037;
},
